<?xml version="1.0" encoding="utf-8"?>
<!-- Generator: Adobe Illustrator 25.2.1, SVG Export Plug-In . SVG Version: 6.00 Build 0)  -->
<svg version="1.1" id="Layer_1" xmlns="http://www.w3.org/2000/svg" xmlns:xlink="http://www.w3.org/1999/xlink" x="0px" y="0px"
	 viewBox="0 0 533.4 533.5" style="enable-background:new 0 0 533.4 533.5;" xml:space="preserve">
<style type="text/css">
	.st0{fill:#F9F9F9;}
	.st1{fill:#DE8F68;}
	.st2{fill:#010101;}
	.st3{fill:#6F8DC7;}
	.st4{fill:#9CB4DE;}
	.st5{fill:#D37C59;}
	.st6{fill:#E2E7F4;}
	.st7{fill:#D0D7ED;}
	.st8{fill:#DD8F6C;}
	.st9{enable-background:new    ;}
	.st10{fill:#ED6969;}
</style>
<path class="st0" d="M390.7,62.8c29.8,26.8,49.4,64.2,80.7,118c31.5,53.8,74.9,123.9,58.5,165.6s-93.2,55.2-165.5,82.6
	s-140.5,68.6-203.2,60.6S41.2,424.4,26.8,361s13.6-133,33.9-196.2S93.1,44.4,128.4,18.6S222-1.8,271.4,9S360.9,36,390.7,62.8z"/>
<rect x="360.6" y="504.7" class="st1" width="11.3" height="9.6"/>
<polygon class="st2" points="373,512.8 373,522.3 346.1,522.3 346.1,518.8 360.1,512.8 "/>
<rect x="185.3" y="387.6" class="st1" width="11.3" height="9.5"/>
<polygon class="st2" points="197.7,395.6 197.7,405.2 170.8,405.2 170.8,401.7 184.8,395.6 "/>
<path class="st3" d="M360.2,268c0.6,5.4,12.5,239.3,12.5,239.3h-12.5l-61-220.2L360.2,268z"/>
<path class="st4" d="M366.7,242.2c0,31.8-11.7,60.3-35.3,60.3c-32.4,0-75.4-20.7-87.2-32.4c-2.9,8.7-44.8,118.6-44.8,118.6H182
	c0,0,11.1-128,31.9-160.8c6.9-9.1,62.7-6.8,91,0S366.7,242.2,366.7,242.2z"/>
<path class="st5" d="M282.9,57.2c0.4-2,2.3-3.4,4.3-3.3c2.5,0.2,6.7,6.9,6.7,12.3s-1.5,7.5-1.1,11.4s10.5,57.4,10.5,60.7
	c2.5,0.2,11.6-1.1,11.6-1.1l-6.4,25.6h-18.5L278.2,59.9L282.9,57.2z"/>
<path class="st2" d="M300.6,66.3L296.7,82c0,0-38.4-4.5-42.6-5.5s2.1-27,6.4-26C264.9,51.5,300.6,66.3,300.6,66.3z"/>
<path class="st6" d="M335.7,112.8c49.1,0,37,126.9,31.3,131.6s-66.8-11.3-71.9-18.3S299.7,112.8,335.7,112.8z"/>
<path class="st1" d="M318.2,145c-2.7,0.9-18.5,7.1-18.5,7.1c-0.3-3.2-12.4-66.3-13.2-70.2c1.5-3.9,2.3-8,2.2-12.1
	c0-10.4-4.2-18.8-9.4-18.8s-9.4,8.4-9.4,18.8c-0.1,4.3,0.8,8.6,2.5,12.6c-0.6,7.9-5.8,82.8,4.9,93.5c11.3,11.3,38.7,1.1,55.3-6.5
	C336.2,168.2,331.3,141.5,318.2,145z"/>
<rect x="298.2" y="69" transform="matrix(0.2589 -0.9659 0.9659 0.2589 152.0379 346.493)" class="st2" width="7.2" height="10.3"/>
<path class="st7" d="M367,136.1c7.5,14.5-22.2,40.7-30.4,38.8s-21.4-31.2-19-36.5S359.8,122,367,136.1z"/>
<path class="st5" d="M338.8,125.1c0,2.5-15,3.1-15,0V96.8h15V125.1z"/>
<ellipse class="st8" cx="325.8" cy="81.6" rx="19.6" ry="31.7"/>
<path class="st2" d="M311.2,60.6c-0.3,4.6,1.9,9.1,5.8,11.6c5.8,4,10,2.2,14.3,6c2.3,2.3,7.8,6.6,7.9,13.4c0,5,1.6,7.5,3.1,7.5
	s5.2-1,7.7-1c24,0,52.1,24.7,106.1,24.7c28.2,0,72.4-7.1,72.4-48.5c0-22.4-8-49.4-50.6-49.4c-27,0-46,13.2-68.1,13.2
	c-28.5,0-39.5-10.3-59.2-10.3c-14,0-45.6,8.1-45.6,29.4c0,8.1,2.5,10.4,3.3,10.9C308.9,65.5,309.9,63,311.2,60.6z"/>
<circle class="st8" cx="337.1" cy="89.1" r="5"/>
<g class="st9">
	<path class="st10" d="M68.5,510.4H8.7v-24.5l56.2-80.4h34v78.6h14.6v26.3H98.9v23.1H68.5V510.4z M70.6,484.1V439l-29.9,45.2H70.6z"
		/>
	<path class="st10" d="M178.1,401.1c37,0,50,27.7,50,65.8c0,38.4-13,66.1-50,66.1s-50-27.7-50-66.1
		C128.2,428.8,141.2,401.1,178.1,401.1z M178.1,429.5c-18,0-20.1,17.4-20.1,37.3c0,20.6,2.1,37.7,20.1,37.7
		c18,0,20.1-17.1,20.1-37.7C198.2,447,196.1,429.5,178.1,429.5z"/>
	<path class="st10" d="M304.4,510.4h-59.7v-24.5l56.2-80.4h34v78.6h14.6v26.3h-14.6v23.1h-30.4V510.4z M306.5,484.1V439l-29.9,45.2
		H306.5z"/>
</g>
</svg>
