<svg width="76" height="24" viewBox="0 0 66 14" fill="none" xmlns="http://www.w3.org/2000/svg">
<path d="M11.1578 1.78876L9.46451 0H1.87726L0 1.78876V12.2588L1.79904 13.9523H9.57232L11.1578 12.2588V1.78876ZM2.82223 11.2491V2.70537H8.33561V11.2491H2.82223Z" fill="white"/>
<path d="M32.4502 13.9544H35.2724V2.70537H40.7858V13.9544H43.608V1.78876L41.9147 0H34.3296L32.4523 1.78876V13.9544" fill="white"/>
<path d="M48.0581 11.6216V2.45557V0H45.2358V11.6216V12.4388L46.7516 13.9544H47.9333H52.711V11.6216H48.0581Z" fill="white"/>
<path d="M60.1378 5.82987L56.6158 0H55.9415H53.4258L58.3282 8.22194H58.3578L54.375 13.9544H57.8547L66 1.78453L63.9684 0L60.1378 5.82987Z" fill="white"/>
<path d="M21.806 5.92937L23.6495 13.9544H26.7698L28.8162 12.0408L30.8181 0H27.941L25.9157 11.7423L22.9941 0H21.8652H21.7426H20.6116L17.69 11.7423L15.6648 0H12.7876L14.7896 12.0408L16.8381 13.9544H19.9563L21.7997 5.92937H21.806Z" fill="white"/>
</svg>
