<svg width="15" height="15" viewBox="0 0 15 15" fill="none" xmlns="http://www.w3.org/2000/svg">
<path d="M13.3333 13.3333H15V15H13.3333V13.3333ZM13.3333 11.6667H15V10H13.3333V11.6667ZM0 8.33333H1.66667V6.66667H0V8.33333ZM0 11.6667H1.66667V10H0V11.6667ZM0 5H1.66667V3.33333H0V5ZM0 1.66667H1.66667V0H0V1.66667ZM3.33333 1.66667H5V0H3.33333V1.66667ZM10 15H11.6667V13.3333H10V15ZM6.66667 15H8.33333V13.3333H6.66667V15ZM10 15H11.6667V13.3333H10V15ZM3.33333 15H5V13.3333H3.33333V15ZM0 15H1.66667V13.3333H0V15ZM15 4.16667C15 1.86667 13.1333 0 10.8333 0H6.66667V1.66667H10.8333C12.2083 1.66667 13.3333 2.79167 13.3333 4.16667V8.33333H15V4.16667Z" fill="#CACCD2"/>
</svg>
