<svg width="20" height="20" viewBox="0 0 13 9" fill="none" xmlns="http://www.w3.org/2000/svg">
    <path d="M0.549508 8.5625V7.89976L3.03845 5.17518C3.33054 4.85609 3.57109 4.57872 3.76009 4.34308C3.9491 4.10499 4.08901 3.88162 4.17983 3.67298C4.2731 3.46189 4.31974 3.24098 4.31974 3.01025C4.31974 2.74515 4.25592 2.51565 4.12828 2.32174C4.0031 2.12783 3.83128 1.9781 3.61282 1.87255C3.39436 1.76701 3.1489 1.71423 2.87645 1.71423C2.58681 1.71423 2.33398 1.77437 2.11798 1.89464C1.90443 2.01246 1.73875 2.17815 1.62093 2.39169C1.50557 2.60524 1.44788 2.85561 1.44788 3.14279H0.578963C0.578963 2.70097 0.680828 2.31315 0.884557 1.97933C1.08829 1.6455 1.36565 1.38532 1.71666 1.19877C2.07012 1.01222 2.46653 0.918949 2.9059 0.918949C3.34772 0.918949 3.73923 1.01222 4.08042 1.19877C4.4216 1.38532 4.68915 1.63691 4.88306 1.95355C5.07697 2.27019 5.17393 2.62243 5.17393 3.01025C5.17393 3.28762 5.12361 3.55885 5.02297 3.82394C4.92479 4.08658 4.75297 4.3799 4.50751 4.70391C4.26451 5.02546 3.927 5.41819 3.495 5.8821L1.80134 7.69358V7.75249H5.30648V8.5625H0.549508ZM9.28657 8.5625H6.95963V1.02204H9.38966C10.1211 1.02204 10.747 1.173 11.2674 1.47491C11.7878 1.77437 12.1867 2.20515 12.464 2.76725C12.7414 3.32689 12.8801 3.99699 12.8801 4.77754C12.8801 5.56301 12.7402 6.23924 12.4603 6.80625C12.1805 7.3708 11.7731 7.80526 11.238 8.10963C10.7029 8.41154 10.0524 8.5625 9.28657 8.5625ZM7.87274 7.75249H9.22766C9.85113 7.75249 10.3678 7.63222 10.7777 7.39167C11.1876 7.15112 11.4932 6.80871 11.6945 6.36443C11.8958 5.92015 11.9964 5.39119 11.9964 4.77754C11.9964 4.16881 11.897 3.64476 11.6982 3.20539C11.4994 2.76356 11.2024 2.42483 10.8072 2.18919C10.412 1.9511 9.91985 1.83205 9.33076 1.83205H7.87274V7.75249Z" fill="white"/>
    <text x="0" y="9" font-size="2" font-weight="bold" fill="white">2D</text>
</svg>
