<svg width="55" height="25" viewBox="0 0 38 15" fill="none" xmlns="http://www.w3.org/2000/svg">
<path d="M26.2352 11.3414C25.7492 11.3414 25.3159 11.2579 24.9355 11.091C24.5575 10.9241 24.2568 10.6921 24.0334 10.3951C23.8125 10.0957 23.6922 9.74835 23.6726 9.35317H24.6004C24.62 9.59617 24.7035 9.80604 24.8508 9.98277C24.9981 10.157 25.1907 10.292 25.4288 10.3878C25.6669 10.4835 25.9308 10.5314 26.2204 10.5314C26.5444 10.5314 26.8316 10.4749 27.082 10.362C27.3324 10.2491 27.5287 10.092 27.6711 9.89072C27.8135 9.68944 27.8846 9.45626 27.8846 9.19116C27.8846 8.9138 27.8159 8.66957 27.6785 8.45847C27.541 8.24493 27.3397 8.07801 27.0746 7.95774C26.8095 7.83747 26.4855 7.77733 26.1026 7.77733H25.4988V6.96732H26.1026C26.4021 6.96732 26.6647 6.91332 26.8905 6.80532C27.1188 6.69731 27.2968 6.54513 27.4244 6.34876C27.5545 6.1524 27.6195 5.92167 27.6195 5.65657C27.6195 5.4013 27.5631 5.17916 27.4502 4.99016C27.3373 4.80115 27.1777 4.65388 26.9715 4.54833C26.7678 4.44279 26.5273 4.39001 26.2499 4.39001C25.9897 4.39001 25.7442 4.43788 25.5135 4.53361C25.2852 4.62688 25.0987 4.76311 24.9539 4.94229C24.8091 5.11902 24.7305 5.33257 24.7182 5.58294H23.8346C23.8493 5.18775 23.9684 4.84165 24.1917 4.54465C24.4151 4.24519 24.7072 4.01201 25.068 3.8451C25.4313 3.67819 25.8302 3.59473 26.2646 3.59473C26.731 3.59473 27.1311 3.68923 27.4649 3.87823C27.7987 4.06478 28.0552 4.31147 28.2344 4.61829C28.4136 4.92511 28.5032 5.25648 28.5032 5.61239C28.5032 6.03703 28.3915 6.39908 28.1681 6.69854C27.9472 6.998 27.6465 7.20541 27.2661 7.32078V7.37969C27.7423 7.45823 28.1141 7.66074 28.3817 7.98719C28.6492 8.3112 28.783 8.71252 28.783 9.19116C28.783 9.60108 28.6713 9.96927 28.448 10.2957C28.2271 10.6197 27.9251 10.875 27.5422 11.0616C27.1593 11.2481 26.7236 11.3414 26.2352 11.3414ZM32.7484 11.2383H30.4214V3.69782H32.8515C33.5829 3.69782 34.2089 3.84878 34.7292 4.15069C35.2496 4.45015 35.6485 4.88093 35.9258 5.44303C36.2032 6.00267 36.3419 6.67277 36.3419 7.45332C36.3419 8.23879 36.202 8.91502 35.9221 9.48203C35.6423 10.0466 35.2349 10.481 34.6998 10.7854C34.1647 11.0873 33.5142 11.2383 32.7484 11.2383ZM31.3345 10.4283H32.6895C33.3129 10.4283 33.8296 10.308 34.2395 10.0674C34.6494 9.8269 34.955 9.48449 35.1563 9.04021C35.3576 8.59593 35.4582 8.06697 35.4582 7.45332C35.4582 6.84459 35.3588 6.32054 35.16 5.88117C34.9612 5.43934 34.6642 5.10061 34.269 4.86497C33.8738 4.62688 33.3817 4.50783 32.7926 4.50783H31.3345V10.4283Z" fill="white"/>
<path d="M14.0462 3.76775C13.9916 3.69364 13.9169 3.63672 13.831 3.60374L7.68051 1.27679C7.62232 1.25139 7.5595 1.23828 7.496 1.23828C7.4325 1.23828 7.36969 1.25139 7.31149 1.27679L1.16103 3.64474C1.07977 3.66626 1.00556 3.70867 0.945766 3.76775C0.874163 3.85438 0.834371 3.9629 0.833008 4.07528V11.5789C0.834337 11.6813 0.866293 11.7809 0.924757 11.865C0.983222 11.949 1.06552 12.0136 1.16103 12.0505L7.31149 14.4184H7.496H7.68051L13.831 12.0505C13.9265 12.0136 14.0088 11.949 14.0672 11.865C14.1257 11.7809 14.1577 11.6813 14.159 11.5789V4.11628C14.1677 3.98992 14.1273 3.86509 14.0462 3.76775Z" stroke="white" stroke-width="0.864011" stroke-linecap="round" stroke-linejoin="round"/>
<path d="M7.49609 14.4878V6.32812" stroke="white" stroke-width="0.864011" stroke-linecap="round" stroke-linejoin="round"/>
<path d="M7.49609 6.32812V14.4878" stroke="white" stroke-width="0.864011" stroke-linecap="round" stroke-linejoin="round"/>
<path d="M0.945312 3.80859L7.49555 6.33031L14.0458 3.80859" stroke="white" stroke-width="0.864011" stroke-linecap="round" stroke-linejoin="round"/>
</svg>
