<svg width="15" height="15" viewBox="0 0 15 15" fill="none" xmlns="http://www.w3.org/2000/svg">
<path d="M14.0462 3.76775C13.9916 3.69364 13.9169 3.63672 13.831 3.60374L7.68051 1.27679C7.62232 1.25139 7.5595 1.23828 7.496 1.23828C7.4325 1.23828 7.36969 1.25139 7.31149 1.27679L1.16103 3.64474C1.07977 3.66626 1.00556 3.70867 0.945766 3.76775C0.874163 3.85438 0.834371 3.9629 0.833008 4.07528V11.5789C0.834337 11.6813 0.866293 11.7809 0.924757 11.865C0.983222 11.949 1.06552 12.0136 1.16103 12.0505L7.31149 14.4184H7.496H7.68051L13.831 12.0505C13.9265 12.0136 14.0088 11.949 14.0672 11.865C14.1257 11.7809 14.1577 11.6813 14.159 11.5789V4.11628C14.1677 3.98992 14.1273 3.86509 14.0462 3.76775Z" stroke="white" stroke-width="0.864011" stroke-linecap="round" stroke-linejoin="round"/>
<path d="M7.49609 14.4878V6.32812" stroke="white" stroke-width="0.864011" stroke-linecap="round" stroke-linejoin="round"/>
<path d="M7.49609 6.32812V14.4878" stroke="white" stroke-width="0.864011" stroke-linecap="round" stroke-linejoin="round"/>
<path d="M0.945312 3.80859L7.49555 6.33031L14.0458 3.80859" stroke="white" stroke-width="0.864011" stroke-linecap="round" stroke-linejoin="round"/>
</svg>
