<svg width="14" height="9" viewBox="0 0 14 9" fill="none" xmlns="http://www.w3.org/2000/svg">
<path d="M5.07255 8.3999H0.99575C0.55895 8.3999 0.22295 8.0527 0.22295 7.6159C0.22295 7.3807 0.32375 7.1567 0.55895 6.9439L2.54135 5.0847C3.39255 4.2895 3.94135 3.7743 3.94135 3.1247C3.94135 2.5647 3.57175 2.1391 2.93335 2.1391C2.44055 2.1391 2.09335 2.4303 1.88055 2.8447C1.72375 3.1023 1.49975 3.2703 1.16375 3.2703C0.67095 3.2703 0.34615 2.9343 0.34615 2.5199C0.34615 2.2959 0.44695 2.0831 0.57015 1.8703C1.02935 1.0415 1.91415 0.559902 2.97815 0.559902C4.61335 0.559902 5.66615 1.6575 5.66615 3.0351C5.66615 4.1327 5.00535 4.9503 3.87415 5.9471L2.92215 6.8095H5.07255C5.53175 6.8095 5.86775 7.1567 5.86775 7.6047C5.86775 8.0639 5.53175 8.3999 5.07255 8.3999ZM9.78976 8.3999H7.52736C6.94496 8.3999 6.59776 8.0639 6.59776 7.4703V1.6015C6.59776 1.0079 6.94496 0.671902 7.52736 0.671902H9.78976C12.0074 0.671902 13.7546 2.3519 13.7546 4.5359C13.7546 6.7199 12.0074 8.3999 9.78976 8.3999ZM8.35616 2.3295V6.7423H9.78976C11.0666 6.7423 12.0074 5.7903 12.0074 4.5359C12.0074 3.2703 11.0666 2.3295 9.78976 2.3295H8.35616Z" fill="white"/>
</svg>
