<svg width="11" height="16" viewBox="0 0 11 16" fill="none" xmlns="http://www.w3.org/2000/svg">
<path fill-rule="evenodd" clip-rule="evenodd" d="M0.0799561 0.720001H4.51996C6.54996 0.720001 8.01996 1.02 8.92996 1.59C9.84996 2.16 10.3 3.08 10.3 4.34C10.3 5.19 10.1 5.89 9.69996 6.44C9.29996 6.98 8.76996 7.31 8.09996 7.42V7.52C9.00996 7.72 9.65996 8.1 10.06 8.65C10.46 9.21 10.66 9.95 10.66 10.85C10.66 12.16 10.19 13.18 9.25996 13.91C8.13568 14.6959 6.77934 15.0799 5.40996 15H0.0799561V0.720001ZM3.10996 6.38H4.85996C5.67996 6.38 6.27996 6.25 6.64996 6C7.00996 5.74 7.19996 5.32 7.19996 4.74C7.19996 4.19 6.99996 3.8 6.59996 3.56C6.00743 3.28073 5.35358 3.15684 4.69996 3.2H3.09996V6.38H3.10996ZM3.10996 8.78V12.5H5.07996C5.90996 12.5 6.52996 12.34 6.91996 12.02C7.31996 11.7 7.51996 11.22 7.51996 10.56C7.51996 9.37 6.66996 8.78 4.97996 8.78H3.10996Z" fill="#DDDAD6"/>
</svg>
