<svg width="37" height="37" viewBox="0 0 37 37" fill="none" xmlns="http://www.w3.org/2000/svg">
<path d="M8.84126 7.6688C7.28524 7.6688 6.01932 8.93432 6.01932 10.4895C6.01932 12.0443 7.28491 13.3101 8.84126 13.3101C10.3961 13.3101 11.6607 12.0445 11.6607 10.4895C11.6607 8.93441 10.3962 7.6688 8.84126 7.6688ZM8.84126 11.996C8.01006 11.996 7.33435 11.3205 7.33435 10.4904C7.33435 9.66028 8.00975 8.98478 8.84126 8.98478C9.67134 8.98478 10.3457 9.66014 10.3457 10.4904C10.3457 11.3207 9.67139 11.996 8.84126 11.996Z" fill="#CACCD2" stroke="#CACCD2" stroke-width="0.2"/>
<path d="M16.1962 11.1442H16.1962C17.7513 11.1439 19.0168 9.87926 19.0168 8.32225C19.0168 6.76742 17.7512 5.50278 16.1962 5.50278C14.6414 5.50278 13.3755 6.76831 13.3755 8.32225C13.3755 9.87949 14.6411 11.1442 16.1962 11.1442ZM16.1962 9.82884C15.3661 9.82884 14.6905 9.15344 14.6905 8.32193C14.6905 7.49185 15.3659 6.81749 16.1962 6.81749C17.0264 6.81749 17.7018 7.49299 17.7018 8.32193C17.7018 9.15344 17.0263 9.82884 16.1962 9.82884Z" fill="#CACCD2" stroke="#CACCD2" stroke-width="0.2"/>
<path d="M22.9756 10.7377C22.1453 10.7377 21.4699 11.4121 21.4699 12.2422C21.4699 13.0733 22.1454 13.7488 22.9756 13.7491V10.7377ZM22.9756 10.7377C23.8058 10.7377 24.4812 11.4132 24.4812 12.2422M22.9756 10.7377L24.4812 12.2422M24.4812 12.2422C24.4812 13.0734 23.8057 13.7491 22.9756 13.7491L24.4812 12.2422ZM22.9765 15.0641H22.9765C24.5316 15.0638 25.7972 13.7982 25.7972 12.2422C25.7972 10.6873 24.5316 9.42271 22.9765 9.42271C21.4218 9.42271 20.1559 10.6882 20.1559 12.2422C20.1559 13.7994 21.4214 15.0641 22.9765 15.0641Z" fill="#CACCD2" stroke="#CACCD2" stroke-width="0.2"/>
<path d="M8.84126 23.6805C7.28524 23.6805 6.01932 24.946 6.01932 26.5012C6.01932 28.056 7.28497 29.3206 8.84126 29.3206C10.3961 29.3206 11.6607 28.0551 11.6607 26.5012C11.6607 24.9465 10.3962 23.6805 8.84126 23.6805ZM8.84126 28.0068C8.01001 28.0068 7.33435 27.3312 7.33435 26.5024C7.33435 25.6734 8.0098 24.9967 8.84126 24.9967C9.67134 24.9967 10.3457 25.6721 10.3457 26.5024C10.3457 27.3323 9.67148 28.0068 8.84126 28.0068Z" fill="#CACCD2" stroke="#CACCD2" stroke-width="0.2"/>
<path d="M4.43863 22.1941C4.65182 22.0454 4.86856 21.8997 5.08266 21.7559L5.0827 21.7559L5.08885 21.7517C5.72928 21.3212 6.39143 20.8761 6.89274 20.3597C7.39752 19.8397 7.74833 19.2383 7.74833 18.4952C7.74833 17.7515 7.39694 17.1494 6.89135 16.6287C6.38989 16.1122 5.72773 15.6668 5.08704 15.2357L5.07835 15.2299L5.0782 15.2298C4.86494 15.0869 4.64969 14.9426 4.43894 14.794L4.43863 14.7938C4.27326 14.6782 3.46368 14.0799 2.86724 13.0769C2.27296 12.0776 1.88988 10.6771 2.56887 8.94228L2.5689 8.9422C3.77594 5.85054 7.64365 2.21518 14.5929 2.21518C19.7204 2.21518 26.6264 5.76706 29.4119 12.3098L29.4634 12.4306L29.5662 12.3489C29.9019 12.0821 30.2066 11.8497 30.5098 11.6199L30.5726 11.5723L30.541 11.5001C27.504 4.55631 20.2238 0.9 14.5938 0.9C7.00512 0.9 2.71152 4.96296 1.34413 8.4645C-0.0559161 12.044 2.16291 14.8072 3.68589 15.8728L3.6859 15.8728C3.87097 16.0023 4.05874 16.1286 4.24382 16.2532C4.27807 16.2762 4.31223 16.2992 4.34627 16.3221L4.34641 16.3222C4.89643 16.6914 5.4223 17.0448 5.81152 17.4071C6.20267 17.7712 6.43511 18.1257 6.43511 18.4939C6.43511 18.8609 6.20347 19.2146 5.81327 19.5783C5.425 19.9402 4.90022 20.2934 4.35068 20.6633L4.43863 22.1941ZM4.43863 22.1941C4.27391 22.3093 3.46454 22.9075 2.86805 23.9106C2.27372 24.9101 1.89035 26.3108 2.5689 28.0457L2.56893 28.0458C3.77525 31.1374 7.6439 34.7728 14.5929 34.7728C17.5697 34.7728 21.1529 33.5754 24.179 31.2836C27.1225 29.0543 29.5335 25.7936 30.3477 21.6011L30.3442 21.605L30.4113 21.2526L30.4115 21.2513L30.4116 21.2508L30.5077 21.2681L30.4353 21.2033C30.8497 20.7401 31.2589 20.2737 31.6529 19.8087C31.6768 19.7796 31.7 19.7517 31.7238 19.7233L31.7353 19.7095L31.9329 19.4723L31.9118 19.7804C31.1827 30.4235 21.6027 36.0868 14.5937 36.0868C7.00462 36.0868 2.71011 32.0238 1.34407 28.5223C-0.0547611 24.944 2.16284 22.1805 3.68583 21.1148L3.68606 21.1147C3.89408 20.97 4.10482 20.8284 4.31335 20.6884L4.35061 20.6633L4.43863 22.1941ZM29.5852 12.2063C29.8901 11.9654 30.1707 11.7514 30.4494 11.5402C27.4301 4.63689 20.1888 1 14.5938 1C7.04401 1 2.78883 5.03981 1.43726 8.50093L29.5852 12.2063ZM29.5852 12.2063C29.5888 12.2147 29.5924 12.2231 29.596 12.2315L29.5039 12.2707L29.4417 12.1924C29.4488 12.1867 29.4559 12.1811 29.463 12.1755C26.6342 5.6532 19.7318 2.11518 14.5929 2.11518C7.60598 2.11518 3.69901 5.77262 2.47575 8.90584L29.5852 12.2063Z" fill="#CACCD2" stroke="#CACCD2" stroke-width="0.2"/>
<path d="M19.5071 22.8028C15.8822 24.4734 15.1712 27.8527 15.6768 30.2599C15.8078 30.8836 16.011 31.3897 16.2694 31.7425C16.5281 32.0957 16.8499 32.3045 17.214 32.3052H17.2142C17.328 32.3052 17.4908 32.2837 17.6611 32.1897C17.8323 32.0952 18.0047 31.9309 18.1413 31.6555L18.1413 31.6554C18.3531 31.2277 18.5591 31.005 18.8086 30.8649C19.0643 30.7214 19.3738 30.6592 19.8139 30.5717L19.5071 22.8028ZM19.5071 22.8028C20.0852 22.1999 23.7666 18.3974 27.2164 15.4816C29.2677 13.7469 30.8413 12.4637 32.0627 11.6141C32.6736 11.1892 33.1991 10.8708 33.6543 10.6584C34.1088 10.4463 34.4997 10.3368 34.8397 10.3368C35.2921 10.3368 35.5819 10.527 35.7454 10.6905L35.7455 10.6907C36.0526 10.9993 36.1539 11.3957 36.0732 11.8807C35.9934 12.3601 35.7355 12.932 35.3203 13.6108C34.4893 14.9693 33.0045 16.7926 30.9531 19.2196L30.953 19.2196C28.2483 22.4138 24.7888 25.8098 23.8174 26.7516C23.8834 27.1959 23.8532 27.7632 23.5986 28.3257C23.333 28.9124 22.8264 29.4873 21.9454 29.9104C21.0962 30.3191 20.3827 30.4597 19.8169 30.5711L19.814 30.5717L19.5071 22.8028ZM34.7974 11.6399C34.6865 11.6545 34.55 11.6946 34.3891 11.7607C34.1878 11.8435 33.9555 11.964 33.6984 12.1159C33.1842 12.4197 32.578 12.8446 31.9335 13.3311C30.6512 14.299 29.2257 15.5043 28.0846 16.469L28.067 16.4838C25.1089 18.9872 21.9652 22.1609 20.8239 23.334L23.1039 25.6119C24.276 24.4694 27.4476 21.3261 29.951 18.3689L34.7974 11.6399ZM34.7974 11.6399C34.7981 11.6594 34.7972 11.6818 34.7942 11.7076C34.7867 11.7716 34.767 11.8496 34.7343 11.9415C34.6688 12.1252 34.5553 12.3527 34.4021 12.6149C34.0961 13.1385 33.6399 13.7867 33.1194 14.4749C32.0849 15.8428 30.8044 17.3587 29.9659 18.3513L29.9511 18.3688L34.7974 11.6399ZM18.249 29.6742C17.8625 29.8743 17.5012 30.1817 17.1758 30.6892C16.9766 30.224 16.7797 29.3678 16.8779 28.3357L16.8779 28.3356C16.9808 27.2473 17.4974 25.3111 19.7629 24.1355L22.5061 26.8753C22.5391 27.0383 22.568 27.3369 22.4487 27.6678C22.3234 28.0154 22.0301 28.4111 21.376 28.7255C20.6785 29.06 20.0908 29.1766 19.5638 29.2811L19.5601 29.2819L19.5598 29.2819L19.5596 29.282C19.1175 29.3685 18.6707 29.456 18.249 29.6742Z" fill="#CACCD2" stroke="#CACCD2" stroke-width="0.2"/>
</svg>
