<svg width="42" height="35" viewBox="0 0 42 35" fill="none" xmlns="http://www.w3.org/2000/svg">
<path d="M36.4975 0H5.20701C2.3365 0 0 2.33587 0 5.20701V29.7918C0 29.7994 0.00122489 29.8059 0.00122489 29.8135C0.00153109 29.8212 0.00214357 29.8285 0.00244978 29.8362C0.026641 32.6871 2.35055 35 5.20703 35H36.4967C39.3587 35 41.6863 32.6797 41.7025 29.8218C41.7028 29.8175 41.7034 29.8129 41.7034 29.8092C41.7034 29.8031 41.7043 29.7985 41.7043 29.7924L41.7049 5.20759C41.7052 2.33614 39.3691 0.000580147 36.4976 0.000580147L36.4975 0ZM36.4975 33.5231H5.20701C3.24139 33.5231 1.62877 31.9948 1.48884 30.0628L10.5542 20.1751C11.2159 19.4518 12.0954 19.0546 13.0312 19.0546C13.9668 19.0546 14.8459 19.4518 15.5083 20.1751L24.7806 30.2901C24.9257 30.4475 25.1245 30.5293 25.3241 30.5293C25.5024 30.5293 25.6809 30.4644 25.8224 30.3351C26.1228 30.0598 26.1427 29.5932 25.8677 29.2924L23.6558 26.8794L27.9028 22.3746C28.5781 21.6592 29.4768 21.2649 30.4328 21.2649C31.3894 21.2649 32.2873 21.6593 32.9628 22.3746L40.2169 30.0684C40.0736 31.9973 38.4622 33.5232 36.4981 33.5232L36.4975 33.5231ZM40.2297 27.9336L34.0342 21.3634C33.0782 20.3483 31.7985 19.7894 30.4315 19.7894C29.0646 19.7894 27.7845 20.3477 26.8288 21.3634L22.6551 25.7898L16.5946 19.1779C15.6499 18.1474 14.3837 17.58 13.0305 17.58C11.6764 17.58 10.411 18.1477 9.46632 19.1779L1.47574 27.8951V5.20591C1.47574 3.14779 3.14959 1.47308 5.20795 1.47308H36.4977C38.5561 1.47308 40.2305 3.14779 40.2305 5.20591V27.9328L40.2297 27.9336Z" fill="#CACCD2"/>
<path d="M29.7936 4.91626C26.9218 4.91626 24.5859 7.25213 24.5859 10.1239C24.5859 12.9953 26.9218 15.3315 29.7936 15.3315C32.665 15.3315 35.0012 12.995 35.0012 10.1239C35.0012 7.25244 32.665 4.91626 29.7936 4.91626ZM29.7936 13.8562C27.7351 13.8562 26.0607 12.1823 26.0607 10.124C26.0607 8.06585 27.7346 6.39114 29.7936 6.39114C31.8517 6.39114 33.5258 8.06585 33.5258 10.124C33.5261 12.1824 31.8517 13.8562 29.7936 13.8562Z" fill="#CACCD2"/>
</svg>
