<svg width="35" height="35" viewBox="0 0 35 35" fill="none" xmlns="http://www.w3.org/2000/svg">
<path d="M26.3109 0.749757L26.3109 0.750042C26.5468 0.747217 26.7535 0.884535 26.8591 1.08776C26.8594 1.0882 26.8596 1.08865 26.8598 1.0891L30.516 7.99131L30.5163 7.99191L34.1495 14.8963L34.15 14.8973C34.2517 15.0925 34.2516 15.3293 34.1501 15.5246L34.15 15.5248C34.0476 15.7215 33.8502 15.8568 33.6222 15.862L33.6165 15.8622V15.8621H19.0401C19.0228 15.8627 19.0054 15.8626 18.9882 15.8618L18.978 15.8614L18.9679 15.8601C18.7519 15.8328 18.5749 15.6903 18.4864 15.4985C18.3981 15.3072 18.4043 15.0821 18.5023 14.8963L26.3109 0.749757ZM26.3109 0.749757L26.299 0.75047C26.0787 0.76364 25.8912 0.897504 25.7926 1.08802C25.7923 1.08851 25.7921 1.089 25.7918 1.0895L22.1358 7.99131L22.1355 7.99191L18.5025 14.8959L26.3109 0.749757ZM26.3255 2.72329L29.4258 8.60831L29.4261 8.60898L32.5771 14.5469H20.0741L23.2248 8.60897L23.2251 8.60832L26.3255 2.72329ZM5.60464 0.762065C2.92252 0.762065 0.750068 2.93359 0.750068 5.61494V11.7523C0.750068 14.434 2.92253 16.6052 5.60464 16.6052H11.7443C14.4267 16.6052 16.5989 14.434 16.5989 11.7523V5.61494C16.5989 2.9336 14.4267 0.762065 11.7443 0.762065H5.60464ZM5.60464 2.02915H11.7443C13.7388 2.02915 15.3315 3.62143 15.3315 5.61494V11.7523C15.3315 13.7459 13.7388 15.3381 11.7443 15.3381H5.60464C3.61017 15.3381 2.01744 13.7459 2.01744 11.7523V5.61494C2.01744 3.62143 3.61017 2.02915 5.60464 2.02915ZM8.6744 18.4068C4.30255 18.4068 0.75 21.9579 0.75 26.3284C0.75 30.6989 4.30255 34.25 8.6744 34.25C13.0463 34.25 16.5988 30.6989 16.5988 26.3284C16.5988 21.9579 13.0463 18.4068 8.6744 18.4068ZM23.2558 18.4068C20.5734 18.4068 18.4012 20.5781 18.4012 23.2597V29.3971C18.4012 32.0785 20.5734 34.25 23.2558 34.25H29.3954C32.0775 34.25 34.25 32.0785 34.25 29.3971V23.2597C34.25 20.5781 32.0775 18.4068 29.3954 18.4068H23.2558ZM8.6744 19.6739C12.3557 19.6739 15.3314 22.6487 15.3314 26.3284C15.3314 30.0078 12.3557 32.9828 8.6744 32.9828C4.99341 32.9828 2.01744 30.0078 2.01744 26.3284C2.01744 22.6487 4.99341 19.6739 8.6744 19.6739ZM23.2558 19.6739H29.3954C31.3899 19.6739 32.9826 21.2662 32.9826 23.2597V29.3971C32.9826 31.3906 31.3899 32.9829 29.3954 32.9829H23.2558C21.2613 32.9829 19.6686 31.3906 19.6686 29.3971V23.2597C19.6686 21.2662 21.2613 19.6739 23.2558 19.6739Z" fill="#CACCD2" stroke="#CACCD2" stroke-width="0.5"/>
</svg>
