<svg width="24" height="24" viewBox="0 0 24 24" fill="none" xmlns="http://www.w3.org/2000/svg">
<g clip-path="url(#clip0_1_2243)">
<path fill-rule="evenodd" clip-rule="evenodd" d="M11.75 5.25H19.25C19.4489 5.25 19.6397 5.32902 19.7803 5.46967C19.921 5.61032 20 5.80109 20 6C20 6.19891 19.921 6.38968 19.7803 6.53033C19.6397 6.67098 19.4489 6.75 19.25 6.75H11.75C11.5511 6.75 11.3603 6.67098 11.2197 6.53033C11.079 6.38968 11 6.19891 11 6C11 5.80109 11.079 5.61032 11.2197 5.46967C11.3603 5.32902 11.5511 5.25 11.75 5.25ZM11.75 11.25H19.25C19.4489 11.25 19.6397 11.329 19.7803 11.4697C19.921 11.6103 20 11.8011 20 12C20 12.1989 19.921 12.3897 19.7803 12.5303C19.6397 12.671 19.4489 12.75 19.25 12.75H11.75C11.5511 12.75 11.3603 12.671 11.2197 12.5303C11.079 12.3897 11 12.1989 11 12C11 11.8011 11.079 11.6103 11.2197 11.4697C11.3603 11.329 11.5511 11.25 11.75 11.25ZM11.75 17.25H19.25C19.4489 17.25 19.6397 17.329 19.7803 17.4697C19.921 17.6103 20 17.8011 20 18C20 18.1989 19.921 18.3897 19.7803 18.5303C19.6397 18.671 19.4489 18.75 19.25 18.75H11.75C11.5511 18.75 11.3603 18.671 11.2197 18.5303C11.079 18.3897 11 18.1989 11 18C11 17.8011 11.079 17.6103 11.2197 17.4697C11.3603 17.329 11.5511 17.25 11.75 17.25ZM6 8C5.46957 8 4.96086 7.78929 4.58579 7.41421C4.21071 7.03914 4 6.53043 4 6C4 5.46957 4.21071 4.96086 4.58579 4.58579C4.96086 4.21071 5.46957 4 6 4C6.53043 4 7.03914 4.21071 7.41421 4.58579C7.78929 4.96086 8 5.46957 8 6C8 6.53043 7.78929 7.03914 7.41421 7.41421C7.03914 7.78929 6.53043 8 6 8ZM6 14C5.46957 14 4.96086 13.7893 4.58579 13.4142C4.21071 13.0391 4 12.5304 4 12C4 11.4696 4.21071 10.9609 4.58579 10.5858C4.96086 10.2107 5.46957 10 6 10C6.53043 10 7.03914 10.2107 7.41421 10.5858C7.78929 10.9609 8 11.4696 8 12C8 12.5304 7.78929 13.0391 7.41421 13.4142C7.03914 13.7893 6.53043 14 6 14ZM6 20C5.46957 20 4.96086 19.7893 4.58579 19.4142C4.21071 19.0391 4 18.5304 4 18C4 17.4696 4.21071 16.9609 4.58579 16.5858C4.96086 16.2107 5.46957 16 6 16C6.53043 16 7.03914 16.2107 7.41421 16.5858C7.78929 16.9609 8 17.4696 8 18C8 18.5304 7.78929 19.0391 7.41421 19.4142C7.03914 19.7893 6.53043 20 6 20Z" fill="#DDDAD6"/>
</g>
<defs>
<clipPath id="clip0_1_2243">
<rect width="24" height="24" fill="white"/>
</clipPath>
</defs>
</svg>
