<svg width="37" height="36" viewBox="0 0 37 36" fill="none" xmlns="http://www.w3.org/2000/svg">
<path d="M35.3298 35.198H0.757427C0.339284 35.198 0 34.8587 0 34.4405V31.1991C0 30.7809 0.339284 30.4417 0.757427 30.4417L35.3298 30.4419C35.748 30.4419 36.0873 30.7812 36.0873 31.1993V34.4408C36.0873 34.8587 35.7495 35.198 35.3298 35.198ZM1.51434 33.6834H34.5723V31.9565H1.51434V33.6834Z" fill="#CACCD2"/>
<path d="M35.3675 29.6255H0.766576C0.504631 29.6255 0.260694 29.489 0.122749 29.2679C-0.016714 29.0453 -0.0286323 28.7666 0.0895311 28.5318L0.781784 27.1339C1.52857 25.6269 2.24341 24.1833 2.98863 22.7534C3.2417 22.2746 3.88985 21.8824 4.43682 21.8793C6.56661 21.8595 7.76449 21.8565 9.16269 21.8565L12.5525 21.858C12.9645 21.858 13.3023 22.1882 13.3099 22.6003L13.3145 22.8972C13.3373 24.7571 13.5265 25.3343 14.6731 25.3343C15.4532 25.3797 17.5193 25.404 18.0404 25.3842C18.2146 25.3888 18.422 25.3919 18.6781 25.3919C19.5187 25.3919 20.8623 25.369 21.4137 25.3358C22.645 25.3343 23.0193 24.695 23.0617 22.5987C23.0708 22.1867 23.407 21.8565 23.8191 21.8565L27.1257 21.855C28.4557 21.855 29.5674 21.858 31.7 21.8778C32.2451 21.8808 32.895 22.2731 33.1466 22.7503C33.8751 24.1483 34.575 25.5587 35.3035 27.0309L36.0472 28.529C36.1639 28.7623 36.1517 29.0425 36.014 29.2636C35.8738 29.4892 35.6301 29.6254 35.3679 29.6254L35.3675 29.6255ZM1.98698 28.1109H34.1452L33.9438 27.7034C33.2184 26.2418 32.5246 24.839 31.8022 23.4532C31.7915 23.4532 31.7007 23.4002 31.6554 23.3896C29.5576 23.3728 28.4487 23.3698 27.1235 23.3698L24.547 23.3713C24.4501 24.7875 23.9911 26.8491 21.4599 26.8491C20.7692 26.8929 18.5836 26.9203 18.0397 26.899C17.9608 26.9036 17.7352 26.9066 17.455 26.9066C16.5854 26.9066 15.1936 26.8823 14.6256 26.8475H14.6225C12.1294 26.8475 11.8507 24.7875 11.8083 23.3713L9.16229 23.3698C7.76739 23.3698 6.5738 23.3728 4.44706 23.3926C4.43184 23.4002 4.33955 23.4547 4.3076 23.4894C3.5897 24.8709 2.88077 26.3051 2.13853 27.8048L1.98698 28.1109Z" fill="#CACCD2"/>
<path d="M19.0726 24.3545C19.0635 24.3545 18.9152 24.3514 18.9076 24.3514C18.6289 24.3423 17.5127 24.3423 17.2352 24.3514C17.2276 24.3514 17.0778 24.3545 17.0701 24.3545C16.2341 24.3545 15.5888 24.1318 15.1511 23.6911C14.7375 23.273 14.5286 22.6809 14.5332 21.9341L14.5393 21.1995C14.5545 19.4166 14.571 17.5719 14.4574 15.7769C14.43 15.3663 14.1363 14.8196 13.812 14.5848C11.7626 13.0974 10.4947 10.8345 10.3312 8.38214C10.174 6.04494 11.063 3.77143 12.767 2.14472C14.2164 0.761712 16.0916 0 18.0472 0C20.0481 0 21.9248 0.761972 23.3742 2.14622C25.0797 3.76987 25.9673 6.04339 25.8113 8.38363C25.6478 10.8359 24.3784 13.0958 22.329 14.5848C22.0049 14.8196 21.711 15.3678 21.6836 15.7768C21.5731 17.546 21.5883 19.3636 21.6017 21.1206L21.6078 21.934C21.6124 22.6808 21.4034 23.2729 20.9899 23.691C20.554 24.1317 19.9086 24.3544 19.0726 24.3544L19.0726 24.3545ZM18.0715 22.8323C18.4397 22.8323 18.8077 22.8338 18.9545 22.8384L19.0727 22.8414C19.3589 22.8414 19.7391 22.8036 19.9163 22.6249C20.0375 22.5036 20.0966 22.2749 20.0951 21.9447L20.089 21.1358C20.0738 19.3515 20.0588 17.5067 20.1739 15.683C20.2284 14.8181 20.7495 13.8639 21.4403 13.361C23.1245 12.1372 24.1682 10.2876 24.3016 8.28365C24.4289 6.36613 23.729 4.57564 22.3311 3.24287C21.1634 2.12971 19.6592 1.51451 18.0962 1.51451C16.4845 1.51451 14.979 2.12791 13.8126 3.24138C12.4141 4.57571 11.7145 6.36463 11.8418 8.28215C11.9767 10.2847 13.0171 12.1354 14.7032 13.361C15.3939 13.8623 15.915 14.818 15.9695 15.683C16.0846 17.5323 16.0679 19.4032 16.0545 21.2131L16.0484 21.9447C16.0469 22.2734 16.1059 22.5021 16.2271 22.6233C16.4029 22.8005 16.783 22.8398 17.0708 22.8398C17.3355 22.8338 17.7034 22.8322 18.0716 22.8322L18.0715 22.8323Z" fill="#CACCD2"/>
</svg>
