<svg width="24" height="24" viewBox="0 0 24 24" fill="none" xmlns="http://www.w3.org/2000/svg">
<g clip-path="url(#clip0_1_2246)">
<path fill-rule="evenodd" clip-rule="evenodd" d="M3 6C3 5.80109 3.07902 5.61032 3.21967 5.46967C3.36032 5.32902 3.55109 5.25 3.75 5.25H11.25C11.4489 5.25 11.6397 5.32902 11.7803 5.46967C11.921 5.61032 12 5.80109 12 6C12 6.19891 11.921 6.38968 11.7803 6.53033C11.6397 6.67098 11.4489 6.75 11.25 6.75H3.75C3.55109 6.75 3.36032 6.67098 3.21967 6.53033C3.07902 6.38968 3 6.19891 3 6ZM3 12C3 11.8011 3.07902 11.6103 3.21967 11.4697C3.36032 11.329 3.55109 11.25 3.75 11.25H11.25C11.4489 11.25 11.6397 11.329 11.7803 11.4697C11.921 11.6103 12 11.8011 12 12C12 12.1989 11.921 12.3897 11.7803 12.5303C11.6397 12.671 11.4489 12.75 11.25 12.75H3.75C3.55109 12.75 3.36032 12.671 3.21967 12.5303C3.07902 12.3897 3 12.1989 3 12ZM3.75 17.25C3.55109 17.25 3.36032 17.329 3.21967 17.4697C3.07902 17.6103 3 17.8011 3 18C3 18.1989 3.07902 18.3897 3.21967 18.5303C3.36032 18.671 3.55109 18.75 3.75 18.75H11.25C11.4489 18.75 11.6397 18.671 11.7803 18.5303C11.921 18.3897 12 18.1989 12 18C12 17.8011 11.921 17.6103 11.7803 17.4697C11.6397 17.329 11.4489 17.25 11.25 17.25H3.75Z" fill="#DDDAD6"/>
<path d="M17.75 4C17.5511 4 17.3603 4.07902 17.2197 4.21967C17.079 4.36032 17 4.55109 17 4.75V19.25C17 19.4489 17.079 19.6397 17.2197 19.7803C17.3603 19.921 17.5511 20 17.75 20C17.9489 20 18.1397 19.921 18.2803 19.7803C18.421 19.6397 18.5 19.4489 18.5 19.25V4.75C18.5 4.55109 18.421 4.36032 18.2803 4.21967C18.1397 4.07902 17.9489 4 17.75 4Z" fill="#DDDAD6"/>
<path fill-rule="evenodd" clip-rule="evenodd" d="M14.72 16.43C14.8607 16.2895 15.0513 16.2107 15.25 16.2107C15.4488 16.2107 15.6394 16.2895 15.78 16.43L17.75 18.4L19.72 16.43C19.7887 16.3563 19.8715 16.2972 19.9635 16.2562C20.0555 16.2152 20.1548 16.1932 20.2555 16.1914C20.3562 16.1896 20.4562 16.2082 20.5496 16.2459C20.643 16.2836 20.7279 16.3397 20.7991 16.411C20.8703 16.4822 20.9264 16.567 20.9642 16.6604C21.0019 16.7538 21.0204 16.8538 21.0186 16.9545C21.0168 17.0552 20.9948 17.1545 20.9538 17.2465C20.9128 17.3385 20.8537 17.4213 20.78 17.49L18.635 19.636C18.4598 19.8107 18.2368 19.9297 17.994 19.9779C17.7513 20.0261 17.4998 20.0015 17.271 19.907C17.1192 19.8443 16.9812 19.7522 16.865 19.636L14.72 17.49C14.5796 17.3494 14.5007 17.1587 14.5007 16.96C14.5007 16.7612 14.5796 16.5706 14.72 16.43ZM20.78 7.573C20.6394 7.71345 20.4488 7.79234 20.25 7.79234C20.0513 7.79234 19.8607 7.71345 19.72 7.573L17.75 5.603L15.78 7.573C15.7114 7.64669 15.6286 7.70579 15.5366 7.74678C15.4446 7.78777 15.3453 7.80981 15.2446 7.81159C15.1439 7.81337 15.0438 7.79484 14.9504 7.75712C14.857 7.7194 14.7722 7.66326 14.701 7.59204C14.6298 7.52082 14.5736 7.43599 14.5359 7.3426C14.4982 7.24921 14.4797 7.14918 14.4814 7.04848C14.4832 6.94777 14.5053 6.84846 14.5463 6.75646C14.5872 6.66446 14.6463 6.58166 14.72 6.513L16.865 4.367C17.0402 4.19223 17.2632 4.07316 17.5059 4.02476C17.7486 3.97637 18.0002 4.0008 18.229 4.095C18.381 4.158 18.519 4.251 18.635 4.367L20.78 6.513C20.9205 6.65363 20.9994 6.84425 20.9994 7.043C20.9994 7.24175 20.9205 7.43237 20.78 7.573Z" fill="#DDDAD6"/>
</g>
<defs>
<clipPath id="clip0_1_2246">
<rect width="24" height="24" fill="white"/>
</clipPath>
</defs>
</svg>
