<svg width="33" height="37" viewBox="0 0 33 37" fill="none" xmlns="http://www.w3.org/2000/svg">
<path d="M2.52285 16.5155H12.3628C12.7589 16.5155 13.0802 16.1939 13.0802 15.7981V5.95815C13.0802 5.56202 12.7586 5.24072 12.3628 5.24072H2.52285C2.12672 5.24072 1.80542 5.56228 1.80542 5.95815V15.7981C1.80542 16.1942 2.12673 16.5155 2.52285 16.5155ZM3.24028 6.67622H11.6452V15.0811H3.24028V6.67622Z" fill="#CACCD2"/>
<path d="M32.2831 0.562744H17.7661C17.3692 0.562744 17.0486 0.884303 17.0486 1.28017V15.7979C17.0486 16.194 17.3695 16.5153 17.7661 16.5153H32.2825C32.6794 16.5153 32.9999 16.1938 32.9999 15.7979V1.28017C33.0007 0.88429 32.6791 0.562744 32.2831 0.562744ZM31.5655 15.0805H18.4834V1.99773H31.5648V15.0805H31.5655Z" fill="#CACCD2"/>
<path d="M30.5096 20.4849H20.6703C20.2734 20.4849 19.9529 20.8057 19.9529 21.2023V31.0422C19.9529 31.4391 20.2737 31.7596 20.6703 31.7596H30.5096C30.9065 31.7596 31.227 31.4388 31.227 31.0422V21.2023C31.227 20.8054 30.9065 20.4849 30.5096 20.4849ZM29.7922 30.3241H21.3879V21.9192H29.7922V30.3241Z" fill="#CACCD2"/>
<path d="M15.2658 20.4849H0.74868C0.352547 20.4849 0.03125 20.8057 0.03125 21.2023V35.72C0.03125 36.1169 0.352809 36.4374 0.74868 36.4374H15.2658C15.6619 36.4374 15.9832 36.1166 15.9832 35.72L15.9834 21.2023C15.9834 20.8054 15.6626 20.4849 15.2658 20.4849ZM14.5483 35.0026H1.46624V21.9198H14.5483V35.0026Z" fill="#CACCD2"/>
</svg>
