<svg width="37" height="37" viewBox="0 0 37 37" fill="none" xmlns="http://www.w3.org/2000/svg">
<path d="M12.8279 15.0145H17.4221V23.1176C17.4221 23.7279 17.8902 24.25 18.5 24.25C19.1098 24.25 19.5778 23.7279 19.5778 23.1176V15.0145H24.1721C24.1722 15.0145 24.1723 15.0145 24.1724 15.0145C24.7824 15.0144 25.25 14.4923 25.25 13.8824C25.25 13.2722 24.7823 12.75 24.1721 12.75H12.8279C12.2177 12.75 11.75 13.2722 11.75 13.8824C11.75 14.4924 12.2177 15.0145 12.8279 15.0145Z" fill="#CACCD2" stroke="#CACCD2" stroke-width="0.5"/>
<mask id="path-1-outside-1_1_805" maskUnits="userSpaceOnUse" x="0" y="0" width="37" height="37" fill="black">
<path d="M12.8279 15.0145H17.4221V23.1176C17.4221 23.7279 17.8902 24.25 18.5 24.25C19.1098 24.25 19.5778 23.7279 19.5778 23.1176V15.0145H24.1721C24.1722 15.0145 24.1723 15.0145 24.1724 15.0145C24.7824 15.0144 25.25 14.4923 25.25 13.8824C25.25 13.2722 24.7823 12.75 24.1721 12.75H12.8279C12.2177 12.75 11.75 13.2722 11.75 13.8824C11.75 14.4924 12.2177 15.0145 12.8279 15.0145Z" fill="#CACCD2" stroke="#CACCD2" stroke-width="0.5"/>
<path d="M33.4541 29.4591V7.54088C34.2226 7.35741 34.9002 6.90558 35.365 6.26689C35.8301 5.62822 36.0514 4.84448 35.9899 4.05707C35.9282 3.26946 35.5874 2.52982 35.0289 1.97109C34.4702 1.41261 33.7305 1.07187 32.9429 1.01008C32.1553 0.948575 31.3716 1.16994 30.7328 1.635C30.0942 2.0998 29.6426 2.77738 29.4591 3.54585H7.54095C7.35747 2.77771 6.9059 2.10006 6.26722 1.63526C5.62854 1.17047 4.84481 0.94884 4.05713 1.01035C3.26972 1.07211 2.53015 1.41286 1.97161 1.97136C1.41287 2.5301 1.07213 3.26973 1.01061 4.05714C0.94884 4.84475 1.17047 5.62824 1.63527 6.26696C2.10006 6.90564 2.77765 7.35745 3.54585 7.54095V29.4591C2.77745 29.6426 2.09979 30.0944 1.635 30.7331C1.16994 31.3718 0.948574 32.1555 1.01008 32.9429C1.07185 33.7305 1.4126 34.4702 1.97109 35.0289C2.52984 35.5874 3.26947 35.9281 4.05707 35.9899C4.84468 36.0514 5.62844 35.8301 6.26716 35.365C6.90584 34.9002 7.35739 34.2226 7.54089 33.4541H29.4591C29.6425 34.2223 30.0941 34.8999 30.7328 35.3647C31.3715 35.8295 32.1552 36.0512 32.9429 35.9897C33.7303 35.9279 34.4699 35.5871 35.0284 35.0286C35.5871 34.4699 35.9279 33.7303 35.9894 32.9429C36.0512 32.1553 35.8295 31.3718 35.3647 30.733C34.8999 30.0944 34.2224 29.6425 33.4541 29.4591ZM31.3124 29.6607C31.1699 29.7253 31.0323 29.8001 30.9005 29.8844C30.8566 29.9124 30.813 29.9399 30.7707 29.97C30.4604 30.1891 30.1899 30.4595 29.9706 30.7699C29.94 30.813 29.9123 30.8571 29.8837 30.9017C29.8007 31.032 29.7267 31.168 29.6629 31.3084C29.6457 31.3458 29.6257 31.3811 29.6099 31.4192C29.544 31.5765 29.4905 31.7384 29.4501 31.9037H7.55049C7.51 31.7384 7.45654 31.5765 7.39063 31.4192C7.3748 31.3811 7.35481 31.3458 7.33769 31.3084C7.27358 31.168 7.19988 31.032 7.11684 30.9017C7.08829 30.8571 7.06052 30.813 7.0299 30.7699C6.8106 30.4595 6.54018 30.1891 6.2298 29.97C6.18724 29.9399 6.1439 29.9124 6.10004 29.8844C5.9682 29.8001 5.83066 29.7253 5.68819 29.6607C5.65263 29.6443 5.61889 29.6254 5.58282 29.6104C5.4253 29.5442 5.26258 29.4902 5.09675 29.4494V7.55055C5.26258 7.50981 5.4253 7.45582 5.58282 7.38965C5.61916 7.37459 5.65263 7.35565 5.68819 7.3393C5.83066 7.27468 5.9682 7.19994 6.10004 7.11559C6.1439 7.08757 6.1875 7.06006 6.2298 7.02995C6.54018 6.81092 6.81086 6.54024 7.0299 6.23012C7.06052 6.18704 7.08829 6.14292 7.11684 6.09828C7.19988 5.96801 7.27385 5.83202 7.33794 5.69161C7.35507 5.65424 7.37505 5.61895 7.39089 5.5808L7.39063 5.58054C7.45654 5.42353 7.51001 5.26159 7.55049 5.09627H29.4501C29.4905 5.26159 29.544 5.42353 29.6099 5.58054C29.6257 5.61869 29.6457 5.65398 29.6629 5.69136V5.69161C29.727 5.83202 29.8007 5.96801 29.8837 6.09828C29.9123 6.14292 29.94 6.18703 29.9706 6.23012C30.1899 6.54025 30.4604 6.81092 30.7707 7.02995C30.8133 7.06005 30.8566 7.08756 30.9005 7.11559C31.0323 7.19994 31.1699 7.27468 31.3124 7.3393C31.3479 7.35565 31.3816 7.37459 31.4177 7.38965C31.5755 7.45582 31.738 7.50955 31.9038 7.55055V29.4494C31.738 29.4902 31.5755 29.5442 31.4177 29.6104C31.3814 29.6251 31.3479 29.6443 31.3124 29.6607ZM32.679 2.5505C33.1487 2.5505 33.599 2.73709 33.9312 3.06902C34.2631 3.4012 34.4497 3.85144 34.4499 4.32122C34.4499 4.79069 34.2633 5.24123 33.9314 5.57315C33.5992 5.90534 33.149 6.09193 32.6792 6.09193C32.2098 6.09193 31.7592 5.9056 31.4273 5.57341C31.0951 5.24149 30.9085 4.79099 30.9085 4.32148C30.909 3.85201 31.0956 3.40199 31.4275 3.06981C31.7595 2.73788 32.2095 2.55128 32.679 2.5505ZM2.5512 4.32144C2.5512 3.85197 2.73779 3.40142 3.06972 3.0695C3.4019 2.73758 3.85214 2.55098 4.32165 2.55098C4.79112 2.55098 5.24167 2.73758 5.57359 3.0695C5.90551 3.40169 6.09211 3.85193 6.09211 4.32144C6.09211 4.79091 5.90551 5.24145 5.57359 5.57337C5.2414 5.9053 4.79116 6.09189 4.32165 6.09189C3.85218 6.09137 3.40217 5.90452 3.07025 5.57285C2.73832 5.24093 2.55171 4.79088 2.5512 4.32144ZM4.3216 34.4499C3.85188 34.4499 3.40159 34.2633 3.0694 33.9313C2.73748 33.5992 2.55088 33.1489 2.55062 32.6791C2.55062 32.2097 2.73722 31.7591 3.06914 31.4272C3.40133 31.095 3.85157 30.9084 4.32135 30.9084C4.79081 30.9084 5.24136 31.0948 5.57328 31.4269C5.90546 31.7589 6.09206 32.2094 6.09206 32.6789C6.09154 33.1484 5.90495 33.5984 5.57302 33.9305C5.2411 34.2625 4.79105 34.4491 4.3216 34.4499ZM32.6795 34.4499C32.2098 34.4499 31.7595 34.2633 31.4273 33.9313C31.0954 33.5992 30.9088 33.1489 30.9085 32.6791C30.9085 32.2097 31.0951 31.7591 31.427 31.4272C31.7592 31.095 32.2095 30.9084 32.6792 30.9084C33.1487 30.9084 33.5992 31.0948 33.9312 31.4269C34.2634 31.7589 34.4499 32.2094 34.4499 32.6789C34.4494 33.1484 34.2628 33.5984 33.9309 33.9305C33.599 34.2625 33.1489 34.4491 32.6795 34.4499Z"/>
</mask>
<path d="M33.4541 29.4591V7.54088C34.2226 7.35741 34.9002 6.90558 35.365 6.26689C35.8301 5.62822 36.0514 4.84448 35.9899 4.05707C35.9282 3.26946 35.5874 2.52982 35.0289 1.97109C34.4702 1.41261 33.7305 1.07187 32.9429 1.01008C32.1553 0.948575 31.3716 1.16994 30.7328 1.635C30.0942 2.0998 29.6426 2.77738 29.4591 3.54585H7.54095C7.35747 2.77771 6.9059 2.10006 6.26722 1.63526C5.62854 1.17047 4.84481 0.94884 4.05713 1.01035C3.26972 1.07211 2.53015 1.41286 1.97161 1.97136C1.41287 2.5301 1.07213 3.26973 1.01061 4.05714C0.94884 4.84475 1.17047 5.62824 1.63527 6.26696C2.10006 6.90564 2.77765 7.35745 3.54585 7.54095V29.4591C2.77745 29.6426 2.09979 30.0944 1.635 30.7331C1.16994 31.3718 0.948574 32.1555 1.01008 32.9429C1.07185 33.7305 1.4126 34.4702 1.97109 35.0289C2.52984 35.5874 3.26947 35.9281 4.05707 35.9899C4.84468 36.0514 5.62844 35.8301 6.26716 35.365C6.90584 34.9002 7.35739 34.2226 7.54089 33.4541H29.4591C29.6425 34.2223 30.0941 34.8999 30.7328 35.3647C31.3715 35.8295 32.1552 36.0512 32.9429 35.9897C33.7303 35.9279 34.4699 35.5871 35.0284 35.0286C35.5871 34.4699 35.9279 33.7303 35.9894 32.9429C36.0512 32.1553 35.8295 31.3718 35.3647 30.733C34.8999 30.0944 34.2224 29.6425 33.4541 29.4591ZM31.3124 29.6607C31.1699 29.7253 31.0323 29.8001 30.9005 29.8844C30.8566 29.9124 30.813 29.9399 30.7707 29.97C30.4604 30.1891 30.1899 30.4595 29.9706 30.7699C29.94 30.813 29.9123 30.8571 29.8837 30.9017C29.8007 31.032 29.7267 31.168 29.6629 31.3084C29.6457 31.3458 29.6257 31.3811 29.6099 31.4192C29.544 31.5765 29.4905 31.7384 29.4501 31.9037H7.55049C7.51 31.7384 7.45654 31.5765 7.39063 31.4192C7.3748 31.3811 7.35481 31.3458 7.33769 31.3084C7.27358 31.168 7.19988 31.032 7.11684 30.9017C7.08829 30.8571 7.06052 30.813 7.0299 30.7699C6.8106 30.4595 6.54018 30.1891 6.2298 29.97C6.18724 29.9399 6.1439 29.9124 6.10004 29.8844C5.9682 29.8001 5.83066 29.7253 5.68819 29.6607C5.65263 29.6443 5.61889 29.6254 5.58282 29.6104C5.4253 29.5442 5.26258 29.4902 5.09675 29.4494V7.55055C5.26258 7.50981 5.4253 7.45582 5.58282 7.38965C5.61916 7.37459 5.65263 7.35565 5.68819 7.3393C5.83066 7.27468 5.9682 7.19994 6.10004 7.11559C6.1439 7.08757 6.1875 7.06006 6.2298 7.02995C6.54018 6.81092 6.81086 6.54024 7.0299 6.23012C7.06052 6.18704 7.08829 6.14292 7.11684 6.09828C7.19988 5.96801 7.27385 5.83202 7.33794 5.69161C7.35507 5.65424 7.37505 5.61895 7.39089 5.5808L7.39063 5.58054C7.45654 5.42353 7.51001 5.26159 7.55049 5.09627H29.4501C29.4905 5.26159 29.544 5.42353 29.6099 5.58054C29.6257 5.61869 29.6457 5.65398 29.6629 5.69136V5.69161C29.727 5.83202 29.8007 5.96801 29.8837 6.09828C29.9123 6.14292 29.94 6.18703 29.9706 6.23012C30.1899 6.54025 30.4604 6.81092 30.7707 7.02995C30.8133 7.06005 30.8566 7.08756 30.9005 7.11559C31.0323 7.19994 31.1699 7.27468 31.3124 7.3393C31.3479 7.35565 31.3816 7.37459 31.4177 7.38965C31.5755 7.45582 31.738 7.50955 31.9038 7.55055V29.4494C31.738 29.4902 31.5755 29.5442 31.4177 29.6104C31.3814 29.6251 31.3479 29.6443 31.3124 29.6607ZM32.679 2.5505C33.1487 2.5505 33.599 2.73709 33.9312 3.06902C34.2631 3.4012 34.4497 3.85144 34.4499 4.32122C34.4499 4.79069 34.2633 5.24123 33.9314 5.57315C33.5992 5.90534 33.149 6.09193 32.6792 6.09193C32.2098 6.09193 31.7592 5.9056 31.4273 5.57341C31.0951 5.24149 30.9085 4.79099 30.9085 4.32148C30.909 3.85201 31.0956 3.40199 31.4275 3.06981C31.7595 2.73788 32.2095 2.55128 32.679 2.5505ZM2.5512 4.32144C2.5512 3.85197 2.73779 3.40142 3.06972 3.0695C3.4019 2.73758 3.85214 2.55098 4.32165 2.55098C4.79112 2.55098 5.24167 2.73758 5.57359 3.0695C5.90551 3.40169 6.09211 3.85193 6.09211 4.32144C6.09211 4.79091 5.90551 5.24145 5.57359 5.57337C5.2414 5.9053 4.79116 6.09189 4.32165 6.09189C3.85218 6.09137 3.40217 5.90452 3.07025 5.57285C2.73832 5.24093 2.55171 4.79088 2.5512 4.32144ZM4.3216 34.4499C3.85188 34.4499 3.40159 34.2633 3.0694 33.9313C2.73748 33.5992 2.55088 33.1489 2.55062 32.6791C2.55062 32.2097 2.73722 31.7591 3.06914 31.4272C3.40133 31.095 3.85157 30.9084 4.32135 30.9084C4.79081 30.9084 5.24136 31.0948 5.57328 31.4269C5.90546 31.7589 6.09206 32.2094 6.09206 32.6789C6.09154 33.1484 5.90495 33.5984 5.57302 33.9305C5.2411 34.2625 4.79105 34.4491 4.3216 34.4499ZM32.6795 34.4499C32.2098 34.4499 31.7595 34.2633 31.4273 33.9313C31.0954 33.5992 30.9088 33.1489 30.9085 32.6791C30.9085 32.2097 31.0951 31.7591 31.427 31.4272C31.7592 31.095 32.2095 30.9084 32.6792 30.9084C33.1487 30.9084 33.5992 31.0948 33.9312 31.4269C34.2634 31.7589 34.4499 32.2094 34.4499 32.6789C34.4494 33.1484 34.2628 33.5984 33.9309 33.9305C33.599 34.2625 33.1489 34.4491 32.6795 34.4499Z" fill="#CACCD2"/>
<path d="M33.4541 29.4591V7.54088C34.2226 7.35741 34.9002 6.90558 35.365 6.26689C35.8301 5.62822 36.0514 4.84448 35.9899 4.05707C35.9282 3.26946 35.5874 2.52982 35.0289 1.97109C34.4702 1.41261 33.7305 1.07187 32.9429 1.01008C32.1553 0.948575 31.3716 1.16994 30.7328 1.635C30.0942 2.0998 29.6426 2.77738 29.4591 3.54585H7.54095C7.35747 2.77771 6.9059 2.10006 6.26722 1.63526C5.62854 1.17047 4.84481 0.94884 4.05713 1.01035C3.26972 1.07211 2.53015 1.41286 1.97161 1.97136C1.41287 2.5301 1.07213 3.26973 1.01061 4.05714C0.94884 4.84475 1.17047 5.62824 1.63527 6.26696C2.10006 6.90564 2.77765 7.35745 3.54585 7.54095V29.4591C2.77745 29.6426 2.09979 30.0944 1.635 30.7331C1.16994 31.3718 0.948574 32.1555 1.01008 32.9429C1.07185 33.7305 1.4126 34.4702 1.97109 35.0289C2.52984 35.5874 3.26947 35.9281 4.05707 35.9899C4.84468 36.0514 5.62844 35.8301 6.26716 35.365C6.90584 34.9002 7.35739 34.2226 7.54089 33.4541H29.4591C29.6425 34.2223 30.0941 34.8999 30.7328 35.3647C31.3715 35.8295 32.1552 36.0512 32.9429 35.9897C33.7303 35.9279 34.4699 35.5871 35.0284 35.0286C35.5871 34.4699 35.9279 33.7303 35.9894 32.9429C36.0512 32.1553 35.8295 31.3718 35.3647 30.733C34.8999 30.0944 34.2224 29.6425 33.4541 29.4591ZM31.3124 29.6607C31.1699 29.7253 31.0323 29.8001 30.9005 29.8844C30.8566 29.9124 30.813 29.9399 30.7707 29.97C30.4604 30.1891 30.1899 30.4595 29.9706 30.7699C29.94 30.813 29.9123 30.8571 29.8837 30.9017C29.8007 31.032 29.7267 31.168 29.6629 31.3084C29.6457 31.3458 29.6257 31.3811 29.6099 31.4192C29.544 31.5765 29.4905 31.7384 29.4501 31.9037H7.55049C7.51 31.7384 7.45654 31.5765 7.39063 31.4192C7.3748 31.3811 7.35481 31.3458 7.33769 31.3084C7.27358 31.168 7.19988 31.032 7.11684 30.9017C7.08829 30.8571 7.06052 30.813 7.0299 30.7699C6.8106 30.4595 6.54018 30.1891 6.2298 29.97C6.18724 29.9399 6.1439 29.9124 6.10004 29.8844C5.9682 29.8001 5.83066 29.7253 5.68819 29.6607C5.65263 29.6443 5.61889 29.6254 5.58282 29.6104C5.4253 29.5442 5.26258 29.4902 5.09675 29.4494V7.55055C5.26258 7.50981 5.4253 7.45582 5.58282 7.38965C5.61916 7.37459 5.65263 7.35565 5.68819 7.3393C5.83066 7.27468 5.9682 7.19994 6.10004 7.11559C6.1439 7.08757 6.1875 7.06006 6.2298 7.02995C6.54018 6.81092 6.81086 6.54024 7.0299 6.23012C7.06052 6.18704 7.08829 6.14292 7.11684 6.09828C7.19988 5.96801 7.27385 5.83202 7.33794 5.69161C7.35507 5.65424 7.37505 5.61895 7.39089 5.5808L7.39063 5.58054C7.45654 5.42353 7.51001 5.26159 7.55049 5.09627H29.4501C29.4905 5.26159 29.544 5.42353 29.6099 5.58054C29.6257 5.61869 29.6457 5.65398 29.6629 5.69136V5.69161C29.727 5.83202 29.8007 5.96801 29.8837 6.09828C29.9123 6.14292 29.94 6.18703 29.9706 6.23012C30.1899 6.54025 30.4604 6.81092 30.7707 7.02995C30.8133 7.06005 30.8566 7.08756 30.9005 7.11559C31.0323 7.19994 31.1699 7.27468 31.3124 7.3393C31.3479 7.35565 31.3816 7.37459 31.4177 7.38965C31.5755 7.45582 31.738 7.50955 31.9038 7.55055V29.4494C31.738 29.4902 31.5755 29.5442 31.4177 29.6104C31.3814 29.6251 31.3479 29.6443 31.3124 29.6607ZM32.679 2.5505C33.1487 2.5505 33.599 2.73709 33.9312 3.06902C34.2631 3.4012 34.4497 3.85144 34.4499 4.32122C34.4499 4.79069 34.2633 5.24123 33.9314 5.57315C33.5992 5.90534 33.149 6.09193 32.6792 6.09193C32.2098 6.09193 31.7592 5.9056 31.4273 5.57341C31.0951 5.24149 30.9085 4.79099 30.9085 4.32148C30.909 3.85201 31.0956 3.40199 31.4275 3.06981C31.7595 2.73788 32.2095 2.55128 32.679 2.5505ZM2.5512 4.32144C2.5512 3.85197 2.73779 3.40142 3.06972 3.0695C3.4019 2.73758 3.85214 2.55098 4.32165 2.55098C4.79112 2.55098 5.24167 2.73758 5.57359 3.0695C5.90551 3.40169 6.09211 3.85193 6.09211 4.32144C6.09211 4.79091 5.90551 5.24145 5.57359 5.57337C5.2414 5.9053 4.79116 6.09189 4.32165 6.09189C3.85218 6.09137 3.40217 5.90452 3.07025 5.57285C2.73832 5.24093 2.55171 4.79088 2.5512 4.32144ZM4.3216 34.4499C3.85188 34.4499 3.40159 34.2633 3.0694 33.9313C2.73748 33.5992 2.55088 33.1489 2.55062 32.6791C2.55062 32.2097 2.73722 31.7591 3.06914 31.4272C3.40133 31.095 3.85157 30.9084 4.32135 30.9084C4.79081 30.9084 5.24136 31.0948 5.57328 31.4269C5.90546 31.7589 6.09206 32.2094 6.09206 32.6789C6.09154 33.1484 5.90495 33.5984 5.57302 33.9305C5.2411 34.2625 4.79105 34.4491 4.3216 34.4499ZM32.6795 34.4499C32.2098 34.4499 31.7595 34.2633 31.4273 33.9313C31.0954 33.5992 30.9088 33.1489 30.9085 32.6791C30.9085 32.2097 31.0951 31.7591 31.427 31.4272C31.7592 31.095 32.2095 30.9084 32.6792 30.9084C33.1487 30.9084 33.5992 31.0948 33.9312 31.4269C34.2634 31.7589 34.4499 32.2094 34.4499 32.6789C34.4494 33.1484 34.2628 33.5984 33.9309 33.9305C33.599 34.2625 33.1489 34.4491 32.6795 34.4499Z" stroke="#CACCD2" mask="url(#path-1-outside-1_1_805)"/>
<path d="M33.4541 29.4591V7.54088C34.2226 7.35741 34.9002 6.90558 35.365 6.26689C35.8301 5.62822 36.0514 4.84448 35.9899 4.05707C35.9282 3.26946 35.5874 2.52982 35.0289 1.97109C34.4702 1.41261 33.7305 1.07187 32.9429 1.01008C32.1553 0.948575 31.3716 1.16994 30.7328 1.635C30.0942 2.0998 29.6426 2.77738 29.4591 3.54585H7.54095C7.35747 2.77771 6.9059 2.10006 6.26722 1.63526C5.62854 1.17047 4.84481 0.94884 4.05713 1.01035C3.26972 1.07211 2.53015 1.41286 1.97161 1.97136C1.41287 2.5301 1.07213 3.26973 1.01061 4.05714C0.94884 4.84475 1.17047 5.62824 1.63527 6.26696C2.10006 6.90564 2.77765 7.35745 3.54585 7.54095V29.4591C2.77745 29.6426 2.09979 30.0944 1.635 30.7331C1.16994 31.3718 0.948574 32.1555 1.01008 32.9429C1.07185 33.7305 1.4126 34.4702 1.97109 35.0289C2.52984 35.5874 3.26947 35.9281 4.05707 35.9899C4.84468 36.0514 5.62844 35.8301 6.26716 35.365C6.90584 34.9002 7.35739 34.2226 7.54089 33.4541H29.4591C29.6425 34.2223 30.0941 34.8999 30.7328 35.3647C31.3715 35.8295 32.1552 36.0512 32.9429 35.9897C33.7303 35.9279 34.4699 35.5871 35.0284 35.0286C35.5871 34.4699 35.9279 33.7303 35.9894 32.9429C36.0512 32.1553 35.8295 31.3718 35.3647 30.733C34.8999 30.0944 34.2224 29.6425 33.4541 29.4591ZM31.3124 29.6607C31.1699 29.7253 31.0323 29.8001 30.9005 29.8844C30.8566 29.9124 30.813 29.9399 30.7707 29.97C30.4604 30.1891 30.1899 30.4595 29.9706 30.7699C29.94 30.813 29.9123 30.8571 29.8837 30.9017C29.8007 31.032 29.7267 31.168 29.6629 31.3084C29.6457 31.3458 29.6257 31.3811 29.6099 31.4192C29.544 31.5765 29.4905 31.7384 29.4501 31.9037H7.55049C7.51 31.7384 7.45654 31.5765 7.39063 31.4192C7.3748 31.3811 7.35481 31.3458 7.33769 31.3084C7.27358 31.168 7.19988 31.032 7.11684 30.9017C7.08829 30.8571 7.06052 30.813 7.0299 30.7699C6.8106 30.4595 6.54018 30.1891 6.2298 29.97C6.18724 29.9399 6.1439 29.9124 6.10004 29.8844C5.9682 29.8001 5.83066 29.7253 5.68819 29.6607C5.65263 29.6443 5.61889 29.6254 5.58282 29.6104C5.4253 29.5442 5.26258 29.4902 5.09675 29.4494V7.55055C5.26258 7.50981 5.4253 7.45582 5.58282 7.38965C5.61916 7.37459 5.65263 7.35565 5.68819 7.3393C5.83066 7.27468 5.9682 7.19994 6.10004 7.11559C6.1439 7.08757 6.1875 7.06006 6.2298 7.02995C6.54018 6.81092 6.81086 6.54024 7.0299 6.23012C7.06052 6.18704 7.08829 6.14292 7.11684 6.09828C7.19988 5.96801 7.27385 5.83202 7.33794 5.69161C7.35507 5.65424 7.37505 5.61895 7.39089 5.5808L7.39063 5.58054C7.45654 5.42353 7.51001 5.26159 7.55049 5.09627H29.4501C29.4905 5.26159 29.544 5.42353 29.6099 5.58054C29.6257 5.61869 29.6457 5.65398 29.6629 5.69136V5.69161C29.727 5.83202 29.8007 5.96801 29.8837 6.09828C29.9123 6.14292 29.94 6.18703 29.9706 6.23012C30.1899 6.54025 30.4604 6.81092 30.7707 7.02995C30.8133 7.06005 30.8566 7.08756 30.9005 7.11559C31.0323 7.19994 31.1699 7.27468 31.3124 7.3393C31.3479 7.35565 31.3816 7.37459 31.4177 7.38965C31.5755 7.45582 31.738 7.50955 31.9038 7.55055V29.4494C31.738 29.4902 31.5755 29.5442 31.4177 29.6104C31.3814 29.6251 31.3479 29.6443 31.3124 29.6607ZM32.679 2.5505C33.1487 2.5505 33.599 2.73709 33.9312 3.06902C34.2631 3.4012 34.4497 3.85144 34.4499 4.32122C34.4499 4.79069 34.2633 5.24123 33.9314 5.57315C33.5992 5.90534 33.149 6.09193 32.6792 6.09193C32.2098 6.09193 31.7592 5.9056 31.4273 5.57341C31.0951 5.24149 30.9085 4.79099 30.9085 4.32148C30.909 3.85201 31.0956 3.40199 31.4275 3.06981C31.7595 2.73788 32.2095 2.55128 32.679 2.5505ZM2.5512 4.32144C2.5512 3.85197 2.73779 3.40142 3.06972 3.0695C3.4019 2.73758 3.85214 2.55098 4.32165 2.55098C4.79112 2.55098 5.24167 2.73758 5.57359 3.0695C5.90551 3.40169 6.09211 3.85193 6.09211 4.32144C6.09211 4.79091 5.90551 5.24145 5.57359 5.57337C5.2414 5.9053 4.79116 6.09189 4.32165 6.09189C3.85218 6.09137 3.40217 5.90452 3.07025 5.57285C2.73832 5.24093 2.55171 4.79088 2.5512 4.32144ZM4.3216 34.4499C3.85188 34.4499 3.40159 34.2633 3.0694 33.9313C2.73748 33.5992 2.55088 33.1489 2.55062 32.6791C2.55062 32.2097 2.73722 31.7591 3.06914 31.4272C3.40133 31.095 3.85157 30.9084 4.32135 30.9084C4.79081 30.9084 5.24136 31.0948 5.57328 31.4269C5.90546 31.7589 6.09206 32.2094 6.09206 32.6789C6.09154 33.1484 5.90495 33.5984 5.57302 33.9305C5.2411 34.2625 4.79105 34.4491 4.3216 34.4499ZM32.6795 34.4499C32.2098 34.4499 31.7595 34.2633 31.4273 33.9313C31.0954 33.5992 30.9088 33.1489 30.9085 32.6791C30.9085 32.2097 31.0951 31.7591 31.427 31.4272C31.7592 31.095 32.2095 30.9084 32.6792 30.9084C33.1487 30.9084 33.5992 31.0948 33.9312 31.4269C34.2634 31.7589 34.4499 32.2094 34.4499 32.6789C34.4494 33.1484 34.2628 33.5984 33.9309 33.9305C33.599 34.2625 33.1489 34.4491 32.6795 34.4499Z" fill="#CACCD2"/>
<path d="M33.4541 29.4591V7.54088C34.2226 7.35741 34.9002 6.90558 35.365 6.26689C35.8301 5.62822 36.0514 4.84448 35.9899 4.05707C35.9282 3.26946 35.5874 2.52982 35.0289 1.97109C34.4702 1.41261 33.7305 1.07187 32.9429 1.01008C32.1553 0.948575 31.3716 1.16994 30.7328 1.635C30.0942 2.0998 29.6426 2.77738 29.4591 3.54585H7.54095C7.35747 2.77771 6.9059 2.10006 6.26722 1.63526C5.62854 1.17047 4.84481 0.94884 4.05713 1.01035C3.26972 1.07211 2.53015 1.41286 1.97161 1.97136C1.41287 2.5301 1.07213 3.26973 1.01061 4.05714C0.94884 4.84475 1.17047 5.62824 1.63527 6.26696C2.10006 6.90564 2.77765 7.35745 3.54585 7.54095V29.4591C2.77745 29.6426 2.09979 30.0944 1.635 30.7331C1.16994 31.3718 0.948574 32.1555 1.01008 32.9429C1.07185 33.7305 1.4126 34.4702 1.97109 35.0289C2.52984 35.5874 3.26947 35.9281 4.05707 35.9899C4.84468 36.0514 5.62844 35.8301 6.26716 35.365C6.90584 34.9002 7.35739 34.2226 7.54089 33.4541H29.4591C29.6425 34.2223 30.0941 34.8999 30.7328 35.3647C31.3715 35.8295 32.1552 36.0512 32.9429 35.9897C33.7303 35.9279 34.4699 35.5871 35.0284 35.0286C35.5871 34.4699 35.9279 33.7303 35.9894 32.9429C36.0512 32.1553 35.8295 31.3718 35.3647 30.733C34.8999 30.0944 34.2224 29.6425 33.4541 29.4591ZM31.3124 29.6607C31.1699 29.7253 31.0323 29.8001 30.9005 29.8844C30.8566 29.9124 30.813 29.9399 30.7707 29.97C30.4604 30.1891 30.1899 30.4595 29.9706 30.7699C29.94 30.813 29.9123 30.8571 29.8837 30.9017C29.8007 31.032 29.7267 31.168 29.6629 31.3084C29.6457 31.3458 29.6257 31.3811 29.6099 31.4192C29.544 31.5765 29.4905 31.7384 29.4501 31.9037H7.55049C7.51 31.7384 7.45654 31.5765 7.39063 31.4192C7.3748 31.3811 7.35481 31.3458 7.33769 31.3084C7.27358 31.168 7.19988 31.032 7.11684 30.9017C7.08829 30.8571 7.06052 30.813 7.0299 30.7699C6.8106 30.4595 6.54018 30.1891 6.2298 29.97C6.18724 29.9399 6.1439 29.9124 6.10004 29.8844C5.9682 29.8001 5.83066 29.7253 5.68819 29.6607C5.65263 29.6443 5.61889 29.6254 5.58282 29.6104C5.4253 29.5442 5.26258 29.4902 5.09675 29.4494V7.55055C5.26258 7.50981 5.4253 7.45582 5.58282 7.38965C5.61916 7.37459 5.65263 7.35565 5.68819 7.3393C5.83066 7.27468 5.9682 7.19994 6.10004 7.11559C6.1439 7.08757 6.1875 7.06006 6.2298 7.02995C6.54018 6.81092 6.81086 6.54024 7.0299 6.23012C7.06052 6.18704 7.08829 6.14292 7.11684 6.09828C7.19988 5.96801 7.27385 5.83202 7.33794 5.69161C7.35507 5.65424 7.37505 5.61895 7.39089 5.5808L7.39063 5.58054C7.45654 5.42353 7.51001 5.26159 7.55049 5.09627H29.4501C29.4905 5.26159 29.544 5.42353 29.6099 5.58054C29.6257 5.61869 29.6457 5.65398 29.6629 5.69136V5.69161C29.727 5.83202 29.8007 5.96801 29.8837 6.09828C29.9123 6.14292 29.94 6.18703 29.9706 6.23012C30.1899 6.54025 30.4604 6.81092 30.7707 7.02995C30.8133 7.06005 30.8566 7.08756 30.9005 7.11559C31.0323 7.19994 31.1699 7.27468 31.3124 7.3393C31.3479 7.35565 31.3816 7.37459 31.4177 7.38965C31.5755 7.45582 31.738 7.50955 31.9038 7.55055V29.4494C31.738 29.4902 31.5755 29.5442 31.4177 29.6104C31.3814 29.6251 31.3479 29.6443 31.3124 29.6607ZM32.679 2.5505C33.1487 2.5505 33.599 2.73709 33.9312 3.06902C34.2631 3.4012 34.4497 3.85144 34.4499 4.32122C34.4499 4.79069 34.2633 5.24123 33.9314 5.57315C33.5992 5.90534 33.149 6.09193 32.6792 6.09193C32.2098 6.09193 31.7592 5.9056 31.4273 5.57341C31.0951 5.24149 30.9085 4.79099 30.9085 4.32148C30.909 3.85201 31.0956 3.40199 31.4275 3.06981C31.7595 2.73788 32.2095 2.55128 32.679 2.5505ZM2.5512 4.32144C2.5512 3.85197 2.73779 3.40142 3.06972 3.0695C3.4019 2.73758 3.85214 2.55098 4.32165 2.55098C4.79112 2.55098 5.24167 2.73758 5.57359 3.0695C5.90551 3.40169 6.09211 3.85193 6.09211 4.32144C6.09211 4.79091 5.90551 5.24145 5.57359 5.57337C5.2414 5.9053 4.79116 6.09189 4.32165 6.09189C3.85218 6.09137 3.40217 5.90452 3.07025 5.57285C2.73832 5.24093 2.55171 4.79088 2.5512 4.32144ZM4.3216 34.4499C3.85188 34.4499 3.40159 34.2633 3.0694 33.9313C2.73748 33.5992 2.55088 33.1489 2.55062 32.6791C2.55062 32.2097 2.73722 31.7591 3.06914 31.4272C3.40133 31.095 3.85157 30.9084 4.32135 30.9084C4.79081 30.9084 5.24136 31.0948 5.57328 31.4269C5.90546 31.7589 6.09206 32.2094 6.09206 32.6789C6.09154 33.1484 5.90495 33.5984 5.57302 33.9305C5.2411 34.2625 4.79105 34.4491 4.3216 34.4499ZM32.6795 34.4499C32.2098 34.4499 31.7595 34.2633 31.4273 33.9313C31.0954 33.5992 30.9088 33.1489 30.9085 32.6791C30.9085 32.2097 31.0951 31.7591 31.427 31.4272C31.7592 31.095 32.2095 30.9084 32.6792 30.9084C33.1487 30.9084 33.5992 31.0948 33.9312 31.4269C34.2634 31.7589 34.4499 32.2094 34.4499 32.6789C34.4494 33.1484 34.2628 33.5984 33.9309 33.9305C33.599 34.2625 33.1489 34.4491 32.6795 34.4499Z" stroke="#CACCD2" mask="url(#path-3-outside-1_1_802)"/>
</svg>
