<svg width="24" height="24" viewBox="0 0 24 24" fill="none" xmlns="http://www.w3.org/2000/svg">
<g clip-path="url(#clip0_1_2240)">
<path fill-rule="evenodd" clip-rule="evenodd" d="M3.75 5.25H20.25C20.4489 5.25 20.6397 5.32902 20.7803 5.46967C20.921 5.61032 21 5.80109 21 6C21 6.19891 20.921 6.38968 20.7803 6.53033C20.6397 6.67098 20.4489 6.75 20.25 6.75H3.75C3.55109 6.75 3.36032 6.67098 3.21967 6.53033C3.07902 6.38968 3 6.19891 3 6C3 5.80109 3.07902 5.61032 3.21967 5.46967C3.36032 5.32902 3.55109 5.25 3.75 5.25ZM7.75 9.25H16.25C16.4489 9.25 16.6397 9.32902 16.7803 9.46967C16.921 9.61032 17 9.80109 17 10C17 10.1989 16.921 10.3897 16.7803 10.5303C16.6397 10.671 16.4489 10.75 16.25 10.75H7.75C7.55109 10.75 7.36032 10.671 7.21967 10.5303C7.07902 10.3897 7 10.1989 7 10C7 9.80109 7.07902 9.61032 7.21967 9.46967C7.36032 9.32902 7.55109 9.25 7.75 9.25ZM3.75 13.25H20.25C20.4489 13.25 20.6397 13.329 20.7803 13.4697C20.921 13.6103 21 13.8011 21 14C21 14.1989 20.921 14.3897 20.7803 14.5303C20.6397 14.671 20.4489 14.75 20.25 14.75H3.75C3.55109 14.75 3.36032 14.671 3.21967 14.5303C3.07902 14.3897 3 14.1989 3 14C3 13.8011 3.07902 13.6103 3.21967 13.4697C3.36032 13.329 3.55109 13.25 3.75 13.25ZM7.75 17.25H16.25C16.4489 17.25 16.6397 17.329 16.7803 17.4697C16.921 17.6103 17 17.8011 17 18C17 18.1989 16.921 18.3897 16.7803 18.5303C16.6397 18.671 16.4489 18.75 16.25 18.75H7.75C7.55109 18.75 7.36032 18.671 7.21967 18.5303C7.07902 18.3897 7 18.1989 7 18C7 17.8011 7.07902 17.6103 7.21967 17.4697C7.36032 17.329 7.55109 17.25 7.75 17.25Z" fill="#DDDAD6"/>
</g>
<defs>
<clipPath id="clip0_1_2240">
<rect width="24" height="24" fill="white"/>
</clipPath>
</defs>
</svg>
