<svg width="23" height="36" viewBox="0 0 23 36" fill="none" xmlns="http://www.w3.org/2000/svg">
<path d="M1.29901 2.06676H21.9666C22.5372 2.06676 23 1.60399 23 1.03338C23 0.46277 22.5372 0 21.9666 0H1.29901C0.728395 0 0.265625 0.46277 0.265625 1.03338C0.265625 1.60399 0.728395 2.06676 1.29901 2.06676Z" fill="#CACCD2"/>
<path d="M12.3644 4.37286C12.3166 4.325 12.2638 4.28203 12.2076 4.24455L12.1332 4.20332L12.0464 4.1494L11.9472 4.11624L11.8564 4.08741H11.8561C11.7197 4.05973 11.5793 4.05973 11.4429 4.08741L11.3521 4.11624L11.2529 4.1494L11.1497 4.20303L11.0753 4.24426L11.075 4.24455C11.0185 4.28203 10.966 4.32499 10.9179 4.37286L0.671167 14.6114C0.330934 15.022 0.35919 15.6241 0.73633 16.0012C1.11347 16.3783 1.71553 16.4066 2.12608 16.0664L10.5998 7.58452V34.0391C10.5998 34.6097 11.0626 35.0724 11.6332 35.0724C12.2038 35.0724 12.6666 34.6097 12.6666 34.0391V7.58452L21.1403 16.0664C21.5509 16.4066 22.1529 16.3783 22.53 16.0012C22.9071 15.6241 22.9354 15.022 22.5952 14.6114L12.3644 4.37286Z" fill="#CACCD2"/>
</svg>
