<svg width="16" height="13" viewBox="0 0 16 13" fill="none" xmlns="http://www.w3.org/2000/svg">
<path d="M14.2881 3.39934C13.8176 3.39934 12.4004 3.39372 12.2278 3.39378L11.8443 3.05874C11.5434 2.79595 11.2405 2.46608 10.9386 2.20028C10.7977 2.07614 10.6551 1.95402 10.5123 1.83177C10.0192 1.40916 9.50937 0.972164 9.08477 0.464555C9.0222 0.391652 8.94101 0.33697 8.84984 0.306282C8.75861 0.275594 8.66076 0.270044 8.56664 0.290235C8.50027 0.296008 8.43639 0.318525 8.3811 0.355637C8.32581 0.392749 8.28095 0.443241 8.25065 0.502392C8.22547 0.565121 8.21648 0.633145 8.22455 0.700224C8.23255 0.767302 8.25734 0.831293 8.29656 0.886379C8.32857 0.93351 8.36621 0.976646 8.40858 1.01479L8.41731 1.02328C8.76616 1.36382 9.11514 1.70426 9.46418 2.04463C9.88432 2.45449 10.3045 2.92971 10.7245 3.33984C10.7621 3.37656 10.7989 3.41595 10.8371 3.45744L4.57406 3.6992C4.58658 3.6845 4.59636 3.67371 4.60633 3.66385L5.45809 2.8275C6.02133 2.27431 6.58426 1.72098 7.14691 1.16748C7.23231 1.0876 7.30825 0.998214 7.37325 0.901087C7.47615 0.737742 7.46723 0.573173 7.34872 0.449815C7.29612 0.393985 7.22601 0.357717 7.14986 0.347023C7.07379 0.336329 6.99633 0.351825 6.93028 0.390985C6.84502 0.430939 6.76422 0.479778 6.68926 0.536688C6.58222 0.622934 6.47481 0.708773 6.36704 0.794147C6.04973 1.04661 5.72161 1.30769 5.4127 1.5812C4.84807 2.08103 4.28902 2.60515 3.74834 3.11218L3.63146 3.22176C3.51643 3.32957 3.41228 3.51095 3.29166 3.64528C3.23762 3.70546 2.68624 3.71391 2.68624 3.71391C2.19363 3.7224 1.68219 3.7312 1.17082 3.74048C1.13974 3.74107 1.10852 3.74115 1.07736 3.74115C0.982226 3.73893 0.887061 3.7438 0.792657 3.75576C0.434363 3.81012 0.0668211 4.00406 0.0215015 4.3772C-0.0164725 4.68985 0.126963 4.88833 0.528609 5.08284C0.530117 5.08408 0.531691 5.08551 0.533397 5.08721C0.578913 5.31563 0.623883 5.5447 0.668307 5.77438C0.77167 6.30446 0.878181 6.85248 0.996235 7.39034C1.0815 7.77891 1.17574 8.17191 1.2671 8.55199C1.38594 9.04679 1.50885 9.55819 1.61228 10.0646C1.72896 10.6459 1.90703 11.2134 2.14352 11.7574C2.37963 12.2988 2.80377 12.6057 3.40473 12.6696C4.1126 12.745 4.80485 12.8134 5.49134 12.8181C5.62985 12.8191 5.76844 12.8195 5.90708 12.8195C7.02145 12.8195 8.1284 12.7889 9.09494 12.7594C9.76391 12.739 10.468 12.6945 11.2468 12.6236C12.2509 12.5321 12.9133 12.0497 13.2718 11.1487C13.6116 10.2947 13.8188 9.39393 14.0192 8.52297C14.0433 8.41804 14.0675 8.31318 14.0918 8.20824C14.2694 7.44379 14.4373 6.66391 14.5997 5.90965C14.6692 5.58688 14.739 5.26407 14.8092 4.94125C15.1645 4.7915 15.3619 4.48931 15.3663 4.08676C15.3715 3.64854 15.0412 3.39934 14.2881 3.39934ZM1.45041 5.13232C1.45304 5.13043 1.45553 5.1286 1.45802 5.12703C1.58362 5.12605 1.70935 5.12408 1.83507 5.12212C2.14988 5.11722 2.47499 5.1122 2.79367 5.12278C5.71708 5.2202 8.69775 5.14406 11.5804 5.07049C12.3259 5.05141 13.096 5.03177 13.8574 5.01524C13.8427 5.08227 13.8286 5.14761 13.8149 5.21125C13.7755 5.39498 13.7379 5.56852 13.6956 5.73957L13.5506 6.32682C13.2456 7.56172 12.9303 8.8381 12.6127 10.0917C12.5121 10.5088 12.3432 10.9065 12.1129 11.2689C11.9583 11.5079 11.763 11.6413 11.5156 11.6765C11.4325 11.6884 11.3495 11.7004 11.2664 11.7126C10.8254 11.777 10.3694 11.8433 9.92046 11.8646C8.84741 11.9149 7.86881 11.9374 6.92858 11.9334C6.26715 11.9305 5.59404 11.8979 4.94304 11.8663C4.73159 11.8561 4.52019 11.8461 4.30883 11.8365C4.09528 11.8272 3.87787 11.8083 3.6676 11.7901C3.58015 11.7826 3.49286 11.7752 3.40572 11.768C3.12737 11.7459 2.97489 11.6112 2.9114 11.3303C2.76888 10.7013 2.61567 10.0639 2.46758 9.44751C2.41231 9.21739 2.35718 8.9872 2.30217 8.75708L2.07604 7.80903C1.86655 6.93108 1.65742 6.05306 1.44864 5.17492C1.44725 5.1607 1.44784 5.14638 1.45041 5.13232Z" fill="white"/>
</svg>
