<svg width="24" height="21" viewBox="0 0 24 21" fill="none" xmlns="http://www.w3.org/2000/svg">
<path d="M15.2837 0.306913C15.2837 0.306913 14.3962 1.59255 12.2194 1.59255C10.2518 1.59255 9.16247 0.406485 9.07324 0.305463L9.38704 0.208984C9.38704 0.208984 10.3738 1.263 12.2023 1.263C14.1609 1.263 14.965 0.208984 14.965 0.208984L15.2836 0.307009L15.2837 0.306913Z" fill="white"/>
<path d="M12.2198 1.62332C10.2528 1.62332 9.16802 0.45872 9.05076 0.325893L9.01953 0.290511L9.39665 0.174601L9.4097 0.188426C9.41946 0.198866 10.4097 1.23277 12.2028 1.23277C14.1241 1.23277 14.9333 0.201186 14.9413 0.190746L14.9541 0.173828L15.3328 0.290318L15.3092 0.324539C15.3 0.33788 15.0782 0.654577 14.5849 0.975527C14.1308 1.27105 13.3518 1.62323 12.2198 1.62323L12.2198 1.62332ZM9.12848 0.320672C9.34628 0.552781 10.3986 1.56242 12.2198 1.56242C13.3351 1.56242 14.1019 1.21653 14.5489 0.926321C14.9414 0.671397 15.1627 0.413767 15.2336 0.323573L14.9761 0.244398C14.9239 0.307138 14.7211 0.53364 14.3339 0.762462C13.9238 1.00482 13.2212 1.29367 12.2026 1.29367C10.4958 1.29367 9.50424 0.368332 9.37867 0.243722L9.12848 0.320672Z" fill="black"/>
<path d="M18.8612 7.08855C18.8612 7.08855 18.6841 10.3692 18.707 11.8518C18.748 14.4942 18.8612 20.3552 18.8612 20.3552H5.49174C5.49174 20.3552 5.60494 14.4942 5.64602 11.8518C5.66884 10.3692 5.49174 7.08855 5.49174 7.08855C5.49174 7.08855 6.039 5.55156 5.93179 4.17003C5.82467 2.78859 5.03516 1.54926 5.03516 1.54926L9.07371 0.306641C9.16284 0.407663 10.2521 1.59373 12.2199 1.59373C14.3967 1.59373 15.2842 0.308091 15.2842 0.308091L19.3178 1.54926C19.3178 1.54926 18.5283 2.78859 18.4212 4.17003C18.3141 5.55147 18.8613 7.08855 18.8613 7.08855H18.8612Z" fill="white"/>
<path d="M18.8921 20.3854H5.46052L5.4611 20.3544C5.46226 20.2958 5.57478 14.4632 5.61539 11.851C5.63791 10.3865 5.46284 7.1227 5.4611 7.08993L5.46081 7.08384L5.46284 7.07804C5.46825 7.06277 6.00671 5.531 5.90124 4.17209C5.79597 2.81443 5.01718 1.57762 5.00925 1.56524L4.98779 1.5316L9.08329 0.271484L9.09624 0.286178C9.21157 0.416879 10.2792 1.56302 12.2196 1.56302C13.3366 1.56302 14.1042 1.21616 14.5514 0.925178C15.0348 0.610705 15.2566 0.293719 15.2589 0.290625L15.2715 0.272258L19.3647 1.5317L19.3433 1.56534C19.3354 1.57771 18.5565 2.81453 18.4513 4.17219C18.3459 5.5311 18.8843 7.06277 18.8897 7.07814L18.8917 7.08384L18.8914 7.08993C18.8897 7.1227 18.7146 10.3865 18.7371 11.851C18.7777 14.4632 18.8902 20.2957 18.8914 20.3544L18.892 20.3854H18.8921ZM5.52258 20.3245H18.83C18.8211 19.8594 18.7154 14.3653 18.6763 11.852C18.6542 10.4153 18.8218 7.25224 18.8303 7.09264C18.7937 6.98707 18.2875 5.49678 18.3906 4.16745C18.4872 2.92048 19.1451 1.77579 19.2711 1.5665L15.2958 0.343311C15.241 0.416589 15.0172 0.694713 14.5847 0.976124C14.1305 1.27165 13.3515 1.62382 12.2196 1.62382C10.3115 1.62382 9.23371 0.527954 9.06386 0.341088L5.08147 1.5665C5.20753 1.7757 5.86528 2.92048 5.96195 4.16745C6.06501 5.49678 5.55883 6.98717 5.52219 7.09264C5.5307 7.25224 5.69833 10.4153 5.67619 11.852C5.63714 14.3653 5.53147 19.8594 5.52248 20.3245H5.52258Z" fill="black"/>
<path d="M5.49151 7.08812L2.96538 8.03163L0.956543 3.95325L5.03493 1.54883C5.03493 1.54883 5.82445 2.78816 5.93156 4.1696C6.03867 5.55104 5.49151 7.08812 5.49151 7.08812Z" fill="white"/>
<path d="M2.9499 8.06998L2.93772 8.04533L0.916504 3.94152L5.04448 1.50781L5.06034 1.53266C5.06826 1.54513 5.85517 2.79432 5.96161 4.16744C6.06804 5.53951 5.52533 7.08306 5.51982 7.09853L5.51508 7.11187L2.9499 8.06998ZM0.996065 3.9653L2.98015 7.99371L5.46713 7.06479C5.51991 6.91099 6.00115 5.46352 5.90099 4.17218C5.80403 2.92115 5.13506 1.77279 5.02447 1.59037L0.996065 3.9653Z" fill="black"/>
<path d="M23.3957 3.95325L21.3869 8.03163L18.8608 7.08812C18.8608 7.08812 18.3135 5.55113 18.4206 4.1696C18.5277 2.78816 19.3173 1.54883 19.3173 1.54883L23.3957 3.95325Z" fill="white"/>
<path d="M21.4021 8.06998L18.8368 7.11187L18.8321 7.09853C18.8266 7.08306 18.2839 5.53951 18.3903 4.16744C18.4968 2.79422 19.2836 1.54513 19.2915 1.53266L19.3074 1.50781L23.4354 3.94152L23.4229 3.96685L21.402 8.06989L21.4021 8.06998ZM18.8848 7.06479L21.3718 7.99371L23.3559 3.9653L19.3276 1.59037C19.2169 1.77269 18.548 2.92115 18.4511 4.17218C18.3509 5.46362 18.8322 6.91099 18.8849 7.06479H18.8848Z" fill="black"/>
<path d="M1.38681 3.81692C1.3755 3.81692 1.36467 3.81064 1.35945 3.79971L1.3263 3.73127C1.31895 3.71619 1.32533 3.69792 1.34041 3.69057C1.35549 3.68322 1.37376 3.68951 1.38101 3.70468L1.41417 3.77313C1.42152 3.78831 1.41514 3.80648 1.40006 3.81383C1.3958 3.81595 1.39126 3.81692 1.38681 3.81692Z" fill="black"/>
<path d="M3.27138 7.70227C3.26007 7.70227 3.24924 7.69598 3.24402 7.68506L3.17674 7.54634C3.16939 7.53125 3.17568 7.51298 3.19086 7.50564C3.20603 7.49839 3.22421 7.50457 3.23155 7.51975L3.29884 7.65847C3.30618 7.67356 3.2999 7.69183 3.28472 7.69917C3.28047 7.7012 3.27593 7.70227 3.27148 7.70227H3.27138ZM3.13682 7.42472C3.1255 7.42472 3.11468 7.41844 3.10946 7.40752L3.04217 7.26879C3.03483 7.25371 3.04121 7.23544 3.05629 7.22809C3.07137 7.22084 3.08964 7.22713 3.09689 7.24221L3.16417 7.38093C3.17152 7.39611 3.16514 7.41428 3.15006 7.42163C3.14581 7.42366 3.14126 7.42472 3.13682 7.42472ZM3.00225 7.14718C2.99094 7.14718 2.98011 7.14089 2.97489 7.12997L2.90761 6.99125C2.90026 6.97617 2.90664 6.9579 2.92172 6.95055C2.9369 6.9433 2.95507 6.94958 2.96242 6.96466L3.0297 7.10339C3.03705 7.11847 3.03067 7.13674 3.01559 7.14408C3.01134 7.14611 3.00679 7.14718 3.00235 7.14718H3.00225ZM2.86768 6.86963C2.85637 6.86963 2.84554 6.86335 2.84032 6.85243L2.77304 6.7137C2.76569 6.69853 2.77207 6.68035 2.78715 6.673C2.80223 6.66566 2.82051 6.67204 2.82776 6.68712L2.89504 6.82584C2.90239 6.84092 2.89601 6.85919 2.88093 6.86654C2.87667 6.86867 2.87213 6.86963 2.86768 6.86963ZM2.73311 6.59209C2.7218 6.59209 2.71098 6.58581 2.70576 6.57488L2.63847 6.43616C2.63113 6.42108 2.63751 6.40281 2.65259 6.39546C2.66776 6.38821 2.68594 6.39449 2.69329 6.40957L2.76057 6.5483C2.76792 6.56338 2.76163 6.58165 2.74646 6.589C2.7422 6.59103 2.73766 6.59209 2.73321 6.59209H2.73311ZM2.59855 6.31454C2.58724 6.31454 2.57641 6.30826 2.57119 6.29734L2.50391 6.15861C2.49656 6.14353 2.50284 6.12526 2.51802 6.11791C2.5332 6.11057 2.55137 6.11695 2.55872 6.13203L2.626 6.27075C2.63335 6.28583 2.62707 6.3041 2.61189 6.31145C2.60763 6.31348 2.60309 6.31454 2.59864 6.31454H2.59855ZM2.46398 6.037C2.45267 6.037 2.44184 6.03072 2.43662 6.01979L2.36934 5.88107C2.36199 5.86599 2.36837 5.84772 2.38345 5.84037C2.39863 5.83302 2.4168 5.83931 2.42415 5.85448L2.49144 5.99321C2.49878 6.00839 2.4924 6.02656 2.47732 6.03391C2.47307 6.03594 2.46852 6.037 2.46408 6.037H2.46398ZM2.32941 5.75946C2.3181 5.75946 2.30728 5.75317 2.30206 5.74225L2.23477 5.60352C2.22742 5.58844 2.23371 5.57017 2.24889 5.56283C2.26406 5.55548 2.28224 5.56176 2.28958 5.57694L2.35687 5.71566C2.36422 5.73074 2.35793 5.74902 2.34275 5.75636C2.3385 5.75839 2.33396 5.75946 2.32951 5.75946H2.32941ZM2.19485 5.48191C2.18354 5.48191 2.17271 5.47563 2.16749 5.4647L2.1002 5.32598C2.09286 5.3109 2.09914 5.29263 2.11432 5.28528C2.1295 5.27793 2.14767 5.28422 2.15502 5.2994L2.2223 5.43812C2.22965 5.4532 2.22336 5.47147 2.20819 5.47882C2.20393 5.48085 2.19939 5.48191 2.19494 5.48191H2.19485ZM2.06028 5.20437C2.04897 5.20437 2.03814 5.19808 2.03292 5.18716L1.96564 5.04844C1.95829 5.03335 1.96467 5.01508 1.97975 5.00774C1.99493 5.00039 2.0131 5.00677 2.02045 5.02185L2.08773 5.16057C2.09508 5.17566 2.0887 5.19393 2.07362 5.20127C2.06937 5.2033 2.06482 5.20437 2.06038 5.20437H2.06028ZM1.92571 4.92682C1.9144 4.92682 1.90357 4.92054 1.89835 4.90962L1.83107 4.77089C1.82372 4.75581 1.83001 4.73754 1.84518 4.73019C1.86036 4.72285 1.87854 4.72913 1.88588 4.74431L1.95317 4.88303C1.96051 4.89811 1.95423 4.91638 1.93905 4.92373C1.9348 4.92576 1.93026 4.92682 1.92581 4.92682H1.92571ZM1.79115 4.64928C1.77983 4.64928 1.76901 4.64299 1.76379 4.63207L1.6965 4.49335C1.68916 4.47827 1.69544 4.46 1.71062 4.45265C1.7257 4.4453 1.74397 4.45168 1.75122 4.46676L1.8185 4.60549C1.82585 4.62066 1.81957 4.63884 1.80439 4.64618C1.80014 4.64821 1.79559 4.64928 1.79115 4.64928ZM1.65658 4.37173C1.64527 4.37173 1.63444 4.36545 1.62922 4.35453L1.56194 4.2158C1.55459 4.20072 1.56087 4.18245 1.57605 4.1751C1.59123 4.16785 1.6094 4.17404 1.61675 4.18922L1.68403 4.32794C1.69138 4.34302 1.6851 4.36129 1.66992 4.36864C1.66567 4.37067 1.66112 4.37173 1.65668 4.37173H1.65658ZM1.52201 4.09419C1.5107 4.09419 1.49987 4.08791 1.49465 4.07698L1.42737 3.93826C1.42002 3.92318 1.4264 3.90491 1.44148 3.89756C1.45666 3.89031 1.47484 3.8965 1.48218 3.91167L1.54947 4.0504C1.55681 4.06548 1.55053 4.08375 1.53535 4.0911C1.5311 4.09313 1.52655 4.09419 1.52211 4.09419H1.52201Z" fill="black"/>
<path d="M3.37119 7.91067C3.35988 7.91067 3.34905 7.90439 3.34383 7.89346L3.31067 7.82502C3.30332 7.80994 3.3097 7.79167 3.32478 7.78432C3.33987 7.77697 3.35814 7.78326 3.36539 7.79843L3.39854 7.86688C3.40589 7.88206 3.39951 7.90023 3.38443 7.90758C3.38018 7.9097 3.37563 7.91067 3.37119 7.91067Z" fill="black"/>
<path d="M22.9645 3.81686C22.9601 3.81686 22.9555 3.81589 22.9513 3.81377C22.9361 3.80642 22.9298 3.78825 22.9372 3.77307L22.9704 3.70463C22.9778 3.68954 22.9959 3.68326 23.0111 3.69051C23.0263 3.69786 23.0326 3.71603 23.0252 3.73121L22.9921 3.79965C22.9868 3.81048 22.9759 3.81686 22.9647 3.81686H22.9645Z" fill="black"/>
<path d="M21.0812 7.70231C21.0768 7.70231 21.0722 7.70134 21.068 7.69922C21.0528 7.69187 21.0465 7.67369 21.0539 7.65852L21.1211 7.51979C21.1285 7.50471 21.1466 7.49843 21.1618 7.50568C21.177 7.51303 21.1833 7.5312 21.1759 7.54638L21.1087 7.6851C21.1034 7.69593 21.0925 7.70231 21.0813 7.70231H21.0812ZM21.2158 7.42477C21.2113 7.42477 21.2068 7.4238 21.2025 7.42167C21.1874 7.41432 21.1811 7.39615 21.1884 7.38097L21.2557 7.24225C21.263 7.22717 21.2812 7.22079 21.2963 7.22813C21.3115 7.23548 21.3178 7.25366 21.3104 7.26883L21.2431 7.40756C21.2379 7.41838 21.227 7.42477 21.2158 7.42477ZM21.3503 7.14722C21.3459 7.14722 21.3414 7.14625 21.3371 7.14413C21.322 7.13678 21.3156 7.11861 21.323 7.10343L21.3903 6.9647C21.3976 6.94962 21.4158 6.94324 21.431 6.95059C21.446 6.95794 21.4524 6.97611 21.4451 6.99129L21.3778 7.13001C21.3726 7.14084 21.3617 7.14722 21.3504 7.14722H21.3503ZM21.4849 6.86968C21.4805 6.86968 21.4759 6.86871 21.4717 6.86658C21.4566 6.85924 21.4502 6.84106 21.4576 6.82588L21.5248 6.68716C21.5322 6.67208 21.5504 6.6657 21.5655 6.67305C21.5806 6.68039 21.587 6.69857 21.5796 6.71374L21.5124 6.85247C21.5071 6.8633 21.4962 6.86968 21.485 6.86968H21.4849ZM21.6195 6.59213C21.615 6.59213 21.6105 6.59116 21.6062 6.58904C21.5911 6.58169 21.5848 6.56352 21.5921 6.54834L21.6594 6.40962C21.6667 6.39453 21.6849 6.38815 21.7001 6.3955C21.7152 6.40285 21.7216 6.42102 21.7142 6.4362L21.6469 6.57492C21.6417 6.58575 21.6308 6.59213 21.6196 6.59213H21.6195ZM21.754 6.31459C21.7496 6.31459 21.7451 6.31362 21.7408 6.31149C21.7257 6.30415 21.7193 6.28597 21.7267 6.2708L21.794 6.13207C21.8013 6.11689 21.8195 6.11061 21.8347 6.11796C21.8498 6.1253 21.8561 6.14348 21.8488 6.15866L21.7815 6.29738C21.7763 6.30821 21.7654 6.31459 21.7541 6.31459H21.754ZM21.8886 6.03704C21.8842 6.03704 21.8796 6.03608 21.8754 6.03395C21.8603 6.0266 21.8539 6.00843 21.8613 5.99325L21.9285 5.85453C21.9359 5.83945 21.9541 5.83307 21.9692 5.84041C21.9843 5.84776 21.9907 5.86593 21.9833 5.88111L21.9161 6.01983C21.9108 6.03066 21.8999 6.03704 21.8887 6.03704H21.8886ZM22.0232 5.7595C22.0187 5.7595 22.0142 5.75853 22.0099 5.7564C21.9948 5.74906 21.9885 5.73088 21.9958 5.71571L22.0631 5.57698C22.0705 5.5619 22.0885 5.55552 22.1038 5.56287C22.1189 5.57021 22.1253 5.58839 22.1179 5.60357L22.0506 5.74229C22.0454 5.75312 22.0345 5.7595 22.0233 5.7595H22.0232ZM22.1577 5.48195C22.1533 5.48195 22.1488 5.48099 22.1445 5.47886C22.1294 5.47151 22.123 5.45334 22.1304 5.43816L22.1977 5.29944C22.205 5.28436 22.2231 5.27798 22.2384 5.28532C22.2535 5.29267 22.2598 5.31084 22.2525 5.32602L22.1852 5.46475C22.18 5.47557 22.1691 5.48195 22.1578 5.48195H22.1577ZM22.2923 5.20441C22.2879 5.20441 22.2833 5.20344 22.2791 5.20132C22.264 5.19397 22.2576 5.17579 22.265 5.16062L22.3322 5.02189C22.3395 5.00681 22.3578 5.00043 22.3728 5.00778C22.3879 5.01513 22.3943 5.0333 22.387 5.04848L22.3197 5.1872C22.3144 5.19803 22.3036 5.20441 22.2923 5.20441ZM22.4269 4.92686C22.4224 4.92686 22.4179 4.9259 22.4136 4.92377C22.3986 4.91642 22.3922 4.89825 22.3995 4.88307L22.4668 4.74435C22.4742 4.72927 22.4923 4.72289 22.5075 4.73023C22.5226 4.73758 22.529 4.75576 22.5216 4.77093L22.4543 4.90966C22.4491 4.92048 22.4382 4.92686 22.427 4.92686H22.4269ZM22.5614 4.64932C22.557 4.64932 22.5525 4.64835 22.5482 4.64623C22.5331 4.63888 22.5267 4.62071 22.5341 4.60553L22.6014 4.4668C22.6087 4.45163 22.6269 4.44534 22.642 4.45269C22.6571 4.46004 22.6634 4.47821 22.6561 4.49339L22.5888 4.63211C22.5836 4.64294 22.5727 4.64932 22.5614 4.64932ZM22.696 4.37178C22.6916 4.37178 22.687 4.37081 22.6828 4.36868C22.6676 4.36134 22.6613 4.34316 22.6687 4.32798L22.7359 4.18926C22.7433 4.17408 22.7614 4.1679 22.7766 4.17515C22.7918 4.18249 22.7981 4.20067 22.7908 4.21584L22.7235 4.35457C22.7182 4.3654 22.7073 4.37178 22.6961 4.37178H22.696ZM22.8306 4.09423C22.8261 4.09423 22.8216 4.09326 22.8173 4.09114C22.8023 4.08379 22.7959 4.06562 22.8032 4.05044L22.8705 3.91172C22.8779 3.89654 22.8959 3.89025 22.9112 3.8976C22.9263 3.90495 22.9327 3.92312 22.9253 3.9383L22.858 4.07702C22.8528 4.08785 22.8419 4.09423 22.8307 4.09423H22.8306Z" fill="black"/>
<path d="M20.9801 7.91065C20.9757 7.91065 20.9711 7.90969 20.9669 7.90756C20.9518 7.90021 20.9454 7.88204 20.9528 7.86686L20.9859 7.79842C20.9932 7.78334 21.0114 7.77696 21.0265 7.7843C21.0417 7.79165 21.048 7.80982 21.0406 7.825L21.0075 7.89345C21.0023 7.90427 20.9914 7.91065 20.9801 7.91065Z" fill="black"/>
<path d="M5.59384 19.8949H5.51776C5.50094 19.8949 5.4873 19.8813 5.4873 19.8644C5.4873 19.8476 5.50094 19.834 5.51776 19.834H5.59384C5.61066 19.834 5.62429 19.8476 5.62429 19.8644C5.62429 19.8813 5.61066 19.8949 5.59384 19.8949Z" fill="black"/>
<path d="M18.622 19.9072L18.4705 19.9071C18.4537 19.9071 18.44 19.8934 18.44 19.8766C18.44 19.8598 18.4537 19.8462 18.4705 19.8462L18.622 19.8463C18.6388 19.8463 18.6524 19.8599 18.6524 19.8767C18.6524 19.8935 18.6388 19.9072 18.622 19.9072ZM18.319 19.9069L18.1675 19.9068C18.1507 19.9068 18.1371 19.8931 18.1371 19.8763C18.1371 19.8595 18.1507 19.8459 18.1675 19.8459L18.319 19.846C18.3358 19.846 18.3495 19.8596 18.3495 19.8764C18.3495 19.8932 18.3358 19.9069 18.319 19.9069ZM18.016 19.9066L17.8645 19.9064C17.8477 19.9064 17.8341 19.8928 17.8341 19.8759C17.8341 19.8591 17.8477 19.8455 17.8645 19.8455L18.016 19.8456C18.0329 19.8456 18.0465 19.8592 18.0465 19.876C18.0465 19.8929 18.0329 19.9065 18.016 19.9065V19.9066ZM17.7131 19.9063L17.5616 19.9062C17.5448 19.9062 17.5311 19.8926 17.5311 19.8757C17.5311 19.8589 17.5448 19.8453 17.5616 19.8453L17.7131 19.8454C17.7299 19.8454 17.7435 19.859 17.7435 19.8758C17.7435 19.8927 17.7299 19.9063 17.7131 19.9063ZM17.4101 19.906L17.2586 19.9059C17.2418 19.9059 17.2282 19.8923 17.2282 19.8755C17.2282 19.8586 17.2418 19.845 17.2586 19.845L17.4101 19.8451C17.4269 19.8451 17.4405 19.8587 17.4405 19.8756C17.4405 19.8924 17.4269 19.906 17.4101 19.906ZM17.1071 19.9057L16.9556 19.9056C16.9388 19.9056 16.9252 19.892 16.9252 19.8752C16.9252 19.8583 16.9388 19.8447 16.9556 19.8447L17.1071 19.8448C17.1239 19.8448 17.1376 19.8584 17.1376 19.8753C17.1376 19.8921 17.1239 19.9057 17.1071 19.9057ZM16.8042 19.9054L16.6527 19.9053C16.6359 19.9053 16.6222 19.8917 16.6222 19.8749C16.6222 19.8581 16.6359 19.8444 16.6527 19.8444L16.8042 19.8445C16.821 19.8445 16.8346 19.8582 16.8346 19.875C16.8346 19.8918 16.821 19.9054 16.8042 19.9054ZM16.5012 19.9051L16.3497 19.905C16.3329 19.905 16.3193 19.8914 16.3193 19.8746C16.3193 19.8578 16.3329 19.8441 16.3497 19.8441L16.5012 19.8442C16.518 19.8442 16.5316 19.8579 16.5316 19.8747C16.5316 19.8915 16.518 19.9051 16.5012 19.9051ZM16.1982 19.9048L16.0467 19.9047C16.0299 19.9047 16.0163 19.891 16.0163 19.8742C16.0163 19.8574 16.0299 19.8437 16.0467 19.8437L16.1982 19.8438C16.215 19.8438 16.2287 19.8575 16.2287 19.8743C16.2287 19.8911 16.215 19.9047 16.1982 19.9047V19.9048ZM15.8952 19.9046L15.7438 19.9045C15.7269 19.9045 15.7133 19.8908 15.7133 19.874C15.7133 19.8572 15.7269 19.8436 15.7438 19.8436L15.8952 19.8437C15.9121 19.8437 15.9257 19.8573 15.9257 19.8741C15.9257 19.8909 15.9121 19.9046 15.8952 19.9046ZM15.5923 19.9043L15.4408 19.9042C15.424 19.9042 15.4103 19.8905 15.4103 19.8737C15.4103 19.8569 15.424 19.8433 15.4408 19.8433L15.5923 19.8434C15.6091 19.8434 15.6227 19.857 15.6227 19.8738C15.6227 19.8906 15.6091 19.9043 15.5923 19.9043ZM15.2893 19.904L15.1378 19.9038C15.121 19.9038 15.1074 19.8902 15.1074 19.8733C15.1074 19.8565 15.121 19.8429 15.1378 19.8429L15.2893 19.843C15.3061 19.843 15.3198 19.8566 15.3198 19.8734C15.3198 19.8902 15.3061 19.9039 15.2893 19.9039V19.904ZM14.9863 19.9037L14.8349 19.9035C14.818 19.9035 14.8044 19.8899 14.8044 19.873C14.8044 19.8562 14.818 19.8426 14.8349 19.8426L14.9863 19.8427C15.0032 19.8427 15.0168 19.8563 15.0168 19.8731C15.0168 19.89 15.0032 19.9036 14.9863 19.9036V19.9037ZM14.6834 19.9034L14.5319 19.9033C14.5151 19.9033 14.5014 19.8897 14.5014 19.8728C14.5014 19.856 14.5151 19.8424 14.5319 19.8424L14.6834 19.8425C14.7002 19.8425 14.7138 19.8561 14.7138 19.8729C14.7138 19.8898 14.7002 19.9034 14.6834 19.9034ZM14.3804 19.9031L14.2289 19.903C14.2121 19.903 14.1985 19.8894 14.1985 19.8726C14.1985 19.8557 14.2121 19.8421 14.2289 19.8421L14.3804 19.8422C14.3972 19.8422 14.4109 19.8558 14.4109 19.8727C14.4109 19.8895 14.3972 19.9031 14.3804 19.9031ZM14.0774 19.9028L13.9259 19.9026C13.9091 19.9026 13.8955 19.889 13.8955 19.8722C13.8955 19.8553 13.9091 19.8417 13.9259 19.8417L14.0774 19.8418C14.0943 19.8418 14.1079 19.8554 14.1079 19.8723C14.1079 19.8891 14.0943 19.9027 14.0774 19.9027V19.9028ZM13.7745 19.9025L13.623 19.9024C13.6062 19.9024 13.5925 19.8888 13.5925 19.872C13.5925 19.8552 13.6062 19.8415 13.623 19.8415L13.7745 19.8416C13.7913 19.8416 13.8049 19.8553 13.8049 19.8721C13.8049 19.8889 13.7913 19.9025 13.7745 19.9025ZM13.4715 19.9022L13.32 19.9021C13.3032 19.9021 13.2896 19.8885 13.2896 19.8717C13.2896 19.8549 13.3032 19.8412 13.32 19.8412L13.4715 19.8413C13.4883 19.8413 13.5019 19.855 13.5019 19.8718C13.5019 19.8886 13.4883 19.9022 13.4715 19.9022ZM13.1685 19.9019L13.017 19.9018C13.0002 19.9018 12.9866 19.8882 12.9866 19.8714C12.9866 19.8546 13.0002 19.8409 13.017 19.8409L13.1685 19.841C13.1853 19.841 13.199 19.8547 13.199 19.8715C13.199 19.8883 13.1853 19.9019 13.1685 19.9019ZM12.8656 19.9017L12.7141 19.9015C12.6973 19.9015 12.6836 19.8878 12.6836 19.871C12.6836 19.8542 12.6973 19.8406 12.7141 19.8406L12.8656 19.8407C12.8824 19.8407 12.896 19.8543 12.896 19.8711C12.896 19.8879 12.8824 19.9016 12.8656 19.9016V19.9017ZM12.5626 19.9014L12.4111 19.9013C12.3943 19.9013 12.3807 19.8876 12.3807 19.8708C12.3807 19.854 12.3943 19.8404 12.4111 19.8404L12.5626 19.8405C12.5794 19.8405 12.593 19.8541 12.593 19.8709C12.593 19.8877 12.5794 19.9014 12.5626 19.9014ZM12.2596 19.9011L12.1081 19.9009C12.0913 19.9009 12.0777 19.8873 12.0777 19.8704C12.0777 19.8536 12.0913 19.84 12.1081 19.84L12.2596 19.8401C12.2764 19.8401 12.2901 19.8537 12.2901 19.8705C12.2901 19.8873 12.2764 19.901 12.2596 19.901V19.9011ZM11.9567 19.9008L11.8052 19.9007C11.7883 19.9007 11.7747 19.8871 11.7747 19.8702C11.7747 19.8534 11.7883 19.8398 11.8052 19.8398L11.9567 19.8399C11.9735 19.8399 11.9871 19.8535 11.9871 19.8703C11.9871 19.8872 11.9735 19.9008 11.9567 19.9008ZM11.6537 19.9005L11.5022 19.9004C11.4854 19.9004 11.4717 19.8868 11.4717 19.8699C11.4717 19.8531 11.4854 19.8395 11.5022 19.8395L11.6537 19.8396C11.6705 19.8396 11.6841 19.8532 11.6841 19.87C11.6841 19.8869 11.6705 19.9005 11.6537 19.9005ZM11.3507 19.9002L11.1992 19.9001C11.1824 19.9001 11.1688 19.8865 11.1688 19.8697C11.1688 19.8528 11.1824 19.8392 11.1992 19.8392L11.3507 19.8393C11.3675 19.8393 11.3812 19.8529 11.3812 19.8698C11.3812 19.8866 11.3675 19.9002 11.3507 19.9002ZM11.0477 19.8999L10.8963 19.8998C10.8794 19.8998 10.8658 19.8862 10.8658 19.8694C10.8658 19.8525 10.8794 19.8389 10.8963 19.8389L11.0477 19.839C11.0646 19.839 11.0782 19.8526 11.0782 19.8695C11.0782 19.8863 11.0646 19.8999 11.0477 19.8999ZM10.7448 19.8996L10.5933 19.8995C10.5765 19.8995 10.5628 19.8859 10.5628 19.8691C10.5628 19.8523 10.5765 19.8386 10.5933 19.8386L10.7448 19.8387C10.7616 19.8387 10.7752 19.8524 10.7752 19.8692C10.7752 19.886 10.7616 19.8996 10.7448 19.8996ZM10.4418 19.8993L10.2903 19.8992C10.2735 19.8992 10.2599 19.8856 10.2599 19.8688C10.2599 19.852 10.2735 19.8383 10.2903 19.8383L10.4418 19.8384C10.4586 19.8384 10.4723 19.8521 10.4723 19.8689C10.4723 19.8857 10.4586 19.8993 10.4418 19.8993ZM10.1388 19.899L9.98735 19.8989C9.97053 19.8989 9.9569 19.8852 9.9569 19.8684C9.9569 19.8516 9.97053 19.8379 9.98735 19.8379L10.1388 19.838C10.1557 19.838 10.1693 19.8517 10.1693 19.8685C10.1693 19.8853 10.1557 19.8989 10.1388 19.8989V19.899ZM9.83587 19.8988L9.68438 19.8987C9.66756 19.8987 9.65393 19.885 9.65393 19.8682C9.65393 19.8514 9.66756 19.8378 9.68438 19.8378L9.83587 19.8379C9.85269 19.8379 9.86632 19.8515 9.86632 19.8683C9.86632 19.8851 9.85269 19.8988 9.83587 19.8988ZM9.5329 19.8985L9.38141 19.8984C9.36459 19.8984 9.35096 19.8847 9.35096 19.8679C9.35096 19.8511 9.36459 19.8375 9.38141 19.8375L9.5329 19.8376C9.54972 19.8376 9.56335 19.8512 9.56335 19.868C9.56335 19.8848 9.54972 19.8985 9.5329 19.8985ZM9.22993 19.8982L9.07844 19.8981C9.06162 19.8981 9.04799 19.8844 9.04799 19.8676C9.04799 19.8508 9.06162 19.8372 9.07844 19.8372L9.22993 19.8373C9.24675 19.8373 9.26038 19.8509 9.26038 19.8677C9.26038 19.8845 9.24675 19.8982 9.22993 19.8982ZM8.92696 19.8979L8.77547 19.8978C8.75865 19.8978 8.74502 19.8842 8.74502 19.8673C8.74502 19.8505 8.75865 19.8369 8.77547 19.8369L8.92696 19.837C8.94378 19.837 8.95741 19.8506 8.95741 19.8674C8.95741 19.8843 8.94378 19.8979 8.92696 19.8979ZM8.62399 19.8976L8.47251 19.8975C8.45568 19.8975 8.44205 19.8839 8.44205 19.867C8.44205 19.8502 8.45568 19.8366 8.47251 19.8366L8.62399 19.8367C8.64081 19.8367 8.65444 19.8503 8.65444 19.8671C8.65444 19.884 8.64081 19.8976 8.62399 19.8976ZM8.32102 19.8973L8.16954 19.8972C8.15272 19.8972 8.13908 19.8836 8.13908 19.8668C8.13908 19.8499 8.15272 19.8363 8.16954 19.8363L8.32102 19.8364C8.33784 19.8364 8.35147 19.85 8.35147 19.8669C8.35147 19.8837 8.33784 19.8973 8.32102 19.8973ZM8.01805 19.897L7.86657 19.8969C7.84975 19.8969 7.83612 19.8833 7.83612 19.8665C7.83612 19.8496 7.84975 19.836 7.86657 19.836L8.01805 19.8361C8.03487 19.8361 8.0485 19.8497 8.0485 19.8666C8.0485 19.8834 8.03487 19.897 8.01805 19.897ZM7.71508 19.8967L7.5636 19.8966C7.54678 19.8966 7.53315 19.883 7.53315 19.8662C7.53315 19.8494 7.54678 19.8357 7.5636 19.8357L7.71508 19.8358C7.7319 19.8358 7.74553 19.8495 7.74553 19.8663C7.74553 19.8831 7.7319 19.8967 7.71508 19.8967ZM7.41211 19.8964L7.26063 19.8963C7.24381 19.8963 7.23018 19.8827 7.23018 19.8659C7.23018 19.8491 7.24381 19.8354 7.26063 19.8354L7.41211 19.8355C7.42893 19.8355 7.44257 19.8492 7.44257 19.866C7.44257 19.8828 7.42893 19.8964 7.41211 19.8964ZM7.10914 19.8961L6.95766 19.896C6.94084 19.896 6.92721 19.8824 6.92721 19.8656C6.92721 19.8488 6.94084 19.8351 6.95766 19.8351L7.10914 19.8352C7.12597 19.8352 7.1396 19.8489 7.1396 19.8657C7.1396 19.8825 7.12597 19.8961 7.10914 19.8961ZM6.80618 19.8959L6.65469 19.8958C6.63787 19.8958 6.62424 19.8821 6.62424 19.8653C6.62424 19.8485 6.63787 19.8349 6.65469 19.8349L6.80618 19.835C6.823 19.835 6.83663 19.8486 6.83663 19.8654C6.83663 19.8822 6.823 19.8959 6.80618 19.8959ZM6.50321 19.8956L6.35172 19.8955C6.3349 19.8955 6.32127 19.8818 6.32127 19.865C6.32127 19.8482 6.3349 19.8346 6.35172 19.8346L6.50321 19.8347C6.52003 19.8347 6.53366 19.8483 6.53366 19.8651C6.53366 19.8819 6.52003 19.8956 6.50321 19.8956ZM6.20024 19.8953L6.04875 19.8952C6.03193 19.8952 6.0183 19.8815 6.0183 19.8647C6.0183 19.8479 6.03193 19.8343 6.04875 19.8343L6.20024 19.8344C6.21706 19.8344 6.23069 19.848 6.23069 19.8648C6.23069 19.8816 6.21706 19.8953 6.20024 19.8953ZM5.89727 19.895L5.74578 19.8949C5.72896 19.8949 5.71533 19.8813 5.71533 19.8644C5.71533 19.8476 5.72896 19.834 5.74578 19.834L5.89727 19.8341C5.91409 19.8341 5.92772 19.8477 5.92772 19.8645C5.92772 19.8814 5.91409 19.895 5.89727 19.895Z" fill="black"/>
<path d="M18.8497 19.9086H18.7736C18.7568 19.9086 18.7432 19.8949 18.7432 19.8781C18.7432 19.8613 18.7568 19.8477 18.7736 19.8477H18.8497C18.8665 19.8477 18.8801 19.8613 18.8801 19.8781C18.8801 19.8949 18.8665 19.9086 18.8497 19.9086Z" fill="black"/>
</svg>
