<svg width="25" height="22" viewBox="0 0 25 22" fill="none" xmlns="http://www.w3.org/2000/svg">
<path d="M19.852 7.92861C19.852 7.92861 19.6649 11.3942 19.6893 12.9603C19.7327 15.7517 19.852 21.9431 19.852 21.9431H5.72928C5.72928 21.9431 5.84887 15.7517 5.89227 12.9603C5.91637 11.3942 5.72928 7.92861 5.72928 7.92861C5.72928 7.92861 6.30739 6.30499 6.19424 4.84557C6.08078 3.38626 5.24707 2.07707 5.24707 2.07707L9.50896 0.765625C9.50896 0.765625 9.59096 4.53502 12.7906 4.53502C15.9902 4.53502 16.1167 1.09486 16.1321 0.784313L20.3342 2.07717C20.3342 2.07717 19.5005 3.38636 19.3874 4.84567C19.2742 6.30499 19.8519 7.92872 19.8519 7.92872L19.852 7.92861Z" fill="white"/>
<path d="M19.8844 21.9756H5.69615L5.69676 21.9428C5.69798 21.881 5.81685 15.7196 5.85974 12.9602C5.88354 11.4131 5.6987 7.9653 5.69676 7.93068L5.69645 7.92425L5.6986 7.91822C5.70432 7.90209 6.27302 6.28398 6.16171 4.84846C6.05009 3.41376 5.22782 2.10773 5.21945 2.09466L5.19678 2.05912L9.53985 0.722656L9.54077 0.765241C9.54097 0.774636 9.5662 1.71354 9.97968 2.63927C10.5322 3.87606 11.4778 4.50329 12.7902 4.50329C14.1027 4.50329 15.0087 3.91752 15.5839 2.76222C16.0251 1.87612 16.0909 0.958148 16.0995 0.783112L16.1016 0.741855L20.3836 2.05922L20.3609 2.09476C20.3527 2.10783 19.5302 3.41437 19.419 4.84856C19.3077 6.28408 19.8761 7.90209 19.8818 7.91832L19.8839 7.92445L19.8836 7.93089C19.8818 7.9655 19.6968 11.4133 19.7209 12.9604C19.7638 15.7198 19.8824 21.8811 19.8836 21.943L19.8842 21.9758L19.8844 21.9756ZM5.76171 21.9113H19.8189C19.8094 21.42 19.6981 15.6161 19.6568 12.9612C19.6331 11.4436 19.8102 8.10214 19.8192 7.93354C19.7806 7.82202 19.2461 6.24772 19.355 4.84345C19.4572 3.52619 20.1518 2.31697 20.2848 2.09588L16.1615 0.827331C16.1454 1.07794 16.0609 1.94852 15.6416 2.79071C15.3826 3.31092 15.0427 3.7242 14.6313 4.01903C14.1235 4.38289 13.5042 4.56742 12.7903 4.56742C12.0765 4.56742 11.42 4.36706 10.9081 3.97175C10.4989 3.65578 10.1666 3.21574 9.92025 2.66367C9.55211 1.83854 9.48838 1.00359 9.47827 0.808847L5.29573 2.09588C5.42879 2.31687 6.12342 3.52619 6.22584 4.84345C6.3347 6.24772 5.8 7.82213 5.7613 7.93354C5.77029 8.10214 5.94736 11.4436 5.92398 12.9612C5.88272 15.6161 5.7711 21.42 5.7616 21.9113H5.76171Z" fill="black"/>
<path d="M5.72953 7.92772L3.06102 8.92442L0.938965 4.61613L5.24722 2.07617C5.24722 2.07617 6.08093 3.38537 6.19438 4.84468C6.30753 6.30399 5.72943 7.92772 5.72943 7.92772H5.72953Z" fill="white"/>
<path d="M3.04546 8.9653L0.897461 4.60411L5.2582 2.0332L5.27485 2.05945C5.28322 2.07262 6.11417 3.39223 6.22691 4.84276C6.33935 6.29217 5.76605 7.92274 5.76022 7.93908L5.75522 7.95317L3.04546 8.9653ZM0.981506 4.62923L3.07742 8.88472L5.70457 7.90344C5.76033 7.74096 6.26868 6.2119 6.16288 4.84777C6.06005 3.5257 5.35379 2.31302 5.23696 2.12041L0.981506 4.62923Z" fill="black"/>
<path d="M16.1203 0.778792C16.1272 0.780936 16.1318 0.78737 16.1314 0.794722C16.1106 1.17359 15.8411 4.53328 12.7905 4.53328C9.73998 4.53328 9.51767 1.00805 9.50929 0.775728C9.50899 0.768579 9.51358 0.762248 9.52042 0.760205L9.81667 0.669113C9.83066 0.664824 9.84496 0.674628 9.84568 0.689231C9.84864 0.753261 9.85916 0.920332 9.89347 1.14827C10.0372 2.10667 10.6001 4.14348 12.7906 4.14348C14.9811 4.14348 15.5806 2.07869 15.7006 1.12866C15.7295 0.900724 15.7353 0.737024 15.7364 0.681368C15.7366 0.670849 15.7468 0.663599 15.7568 0.666765L16.1204 0.778792H16.1203Z" fill="white"/>
<path d="M12.7905 4.56636C12.0755 4.56636 11.4578 4.37774 10.9545 4.00561C10.5481 3.70527 10.2147 3.28494 9.96359 2.75636C9.52712 1.83758 9.48086 0.883663 9.47708 0.777866C9.47627 0.756318 9.49016 0.736813 9.51089 0.730481L9.80714 0.639389C9.82348 0.634385 9.84074 0.637143 9.85473 0.646844C9.86851 0.656546 9.87689 0.671864 9.8777 0.688714C9.88056 0.749987 9.89088 0.916955 9.92519 1.14448C10.059 2.03682 10.606 4.11233 12.7905 4.11233C14.9749 4.11233 15.5553 2.02364 15.6685 1.12559C15.697 0.901126 15.7028 0.740387 15.704 0.681667C15.7043 0.666554 15.7114 0.652767 15.7237 0.643883C15.7359 0.634998 15.7514 0.632445 15.766 0.636938L16.1295 0.748965C16.1505 0.755501 16.1644 0.775313 16.1632 0.797371C16.1421 1.18308 15.8674 4.56626 12.7903 4.56626L12.7905 4.56636ZM9.54183 0.788282C9.54847 0.940647 9.60463 1.85096 10.0217 2.72879C10.5807 3.90543 11.5122 4.50202 12.7905 4.50202C15.7769 4.50202 16.0724 1.24252 16.0985 0.806664L15.7678 0.704747C15.7657 0.777151 15.7582 0.929618 15.7324 1.13366C15.6169 2.04856 15.099 4.17656 12.7905 4.17656C11.8281 4.17656 11.0736 3.78891 10.5479 3.02443C10.1189 2.40047 9.93785 1.66285 9.86157 1.15398C9.82909 0.937788 9.81776 0.775108 9.81408 0.704441L9.54183 0.78818V0.788282Z" fill="black"/>
<path d="M15.7374 0.680449C15.7364 0.733756 15.731 0.898069 15.7019 1.12815C15.7018 1.12927 15.7014 1.13029 15.7006 1.13121C15.6683 1.17288 14.8419 2.21023 12.8144 2.21023C10.9819 2.21023 9.99264 1.24977 9.89583 1.15092C9.8948 1.1499 9.8944 1.14878 9.89419 1.14745C9.85773 0.904707 9.84834 0.731407 9.8462 0.678611C9.84599 0.672688 9.85314 0.669624 9.85733 0.673811C9.9766 0.794008 11.006 1.77519 12.8196 1.77519C14.7495 1.77519 15.6179 0.806467 15.7261 0.67616C15.7301 0.671462 15.7376 0.674219 15.7375 0.680347L15.7374 0.680449Z" fill="white"/>
<path d="M12.8144 2.24341C10.9736 2.24341 9.98004 1.28388 9.87282 1.1744C9.8671 1.16858 9.86352 1.16123 9.8623 1.15306C9.82533 0.906845 9.81604 0.729461 9.81399 0.680851C9.81338 0.664716 9.82247 0.650215 9.83718 0.643883C9.85188 0.637449 9.86873 0.640717 9.88007 0.652155C9.99097 0.763876 11.0158 1.74404 12.8195 1.74404C14.7436 1.74404 15.6088 0.76796 15.7011 0.656648C15.7115 0.644087 15.7289 0.63939 15.7442 0.645109C15.7595 0.650827 15.7696 0.665635 15.7693 0.682076C15.7682 0.741715 15.7624 0.904905 15.7335 1.13325C15.7326 1.1404 15.7299 1.14673 15.7256 1.15224C15.6911 1.19667 14.8541 2.24351 12.8142 2.24351L12.8144 2.24341ZM9.92469 1.13549C10.0564 1.26764 11.0297 2.17907 12.8144 2.17907C14.7696 2.17907 15.5968 1.21004 15.6708 1.11803C15.6908 0.958314 15.6993 0.831684 15.7029 0.751723C15.4805 0.990278 14.589 1.80827 12.8195 1.80827C11.142 1.80827 10.1262 0.970058 9.8818 0.743043C9.88711 0.823412 9.89886 0.96148 9.92469 1.13539V1.13549Z" fill="black"/>
<path d="M15.7021 1.12891C15.5822 2.07894 15.0604 4.14373 12.7921 4.14373C10.5238 4.14373 10.0387 2.10702 9.89502 1.14851C9.98376 1.2395 10.9737 2.20914 12.8149 2.20914C14.8839 2.20914 15.7021 1.12891 15.7021 1.12891Z" fill="white"/>
<path d="M12.7924 4.17555C11.83 4.17555 11.0755 3.7879 10.5498 3.02342C10.1208 2.39946 9.93972 1.66184 9.86344 1.15297L9.84863 1.05442L9.91828 1.1258C10.0232 1.23333 10.9956 2.17673 12.8152 2.17673C14.8422 2.17673 15.6687 1.11988 15.6767 1.10916L15.7492 1.01367L15.7342 1.13254C15.6187 2.04745 15.1009 4.17555 12.7924 4.17555ZM9.94207 1.23762C10.0996 2.17336 10.6815 4.11132 12.7925 4.11132C14.9034 4.11132 15.5166 2.17653 15.656 1.23058C15.5598 1.33219 15.3645 1.51366 15.0508 1.69645C14.6248 1.94481 13.8912 2.24097 12.8152 2.24097C11.1774 2.24097 10.2133 1.48455 9.94207 1.23752V1.23762Z" fill="black"/>
<path d="M24.6437 4.61613L22.5218 8.92442L19.8533 7.92772C19.8533 7.92772 19.2755 6.30409 19.3887 4.84468C19.5019 3.38537 20.3356 2.07617 20.3356 2.07617L24.6438 4.61613H24.6437Z" fill="white"/>
<path d="M22.5375 8.9653L19.8278 7.95317L19.8228 7.93908C19.817 7.92274 19.2441 6.29217 19.3564 4.84276C19.4689 3.39213 20.2998 2.07262 20.3082 2.05945L20.3248 2.0332L20.3516 2.04893L24.6855 4.604L22.5375 8.96509V8.9653ZM19.8784 7.90344L22.5056 8.88472L24.6015 4.62923L20.3461 2.12041C20.2293 2.31302 19.523 3.52622 19.4205 4.84777C19.3147 6.21231 19.8228 7.74107 19.8785 7.90344H19.8784Z" fill="black"/>
<path d="M1.3944 4.47265C1.38246 4.47265 1.37102 4.46602 1.3654 4.45448L1.33037 4.38217C1.32261 4.36624 1.32935 4.34694 1.34528 4.33918C1.36121 4.33142 1.38051 4.33806 1.38828 4.35409L1.4233 4.42639C1.43106 4.44243 1.42432 4.46162 1.40839 4.46939C1.4039 4.47153 1.3991 4.47265 1.3944 4.47265Z" fill="black"/>
<path d="M3.38389 8.5771C3.37194 8.5771 3.3605 8.57046 3.35489 8.55892L3.28381 8.41238C3.27605 8.39645 3.28279 8.37715 3.29872 8.36938C3.31465 8.36162 3.33395 8.36826 3.34171 8.38429L3.41279 8.53084C3.42055 8.54677 3.41391 8.56607 3.39788 8.57383C3.39339 8.57598 3.38859 8.5771 3.38389 8.5771ZM3.24174 8.28391C3.22979 8.28391 3.21835 8.27727 3.21274 8.26573L3.14166 8.11919C3.1339 8.10326 3.14054 8.08396 3.15657 8.0762C3.1725 8.06843 3.1918 8.07517 3.19956 8.0911L3.27064 8.23765C3.2784 8.25368 3.27176 8.27288 3.25573 8.28064C3.25124 8.28279 3.24644 8.28391 3.24174 8.28391ZM3.09959 7.99072C3.08764 7.99072 3.0762 7.98408 3.07058 7.97254L2.99951 7.826C2.99175 7.81007 2.99839 7.79077 3.01442 7.783C3.03035 7.77524 3.04965 7.78198 3.05741 7.79791L3.12849 7.94446C3.13625 7.96039 3.12951 7.97969 3.11358 7.98745C3.10908 7.9896 3.10428 7.99072 3.09959 7.99072ZM2.95743 7.69753C2.94549 7.69753 2.93405 7.69089 2.92843 7.67935L2.85736 7.53281C2.8496 7.51677 2.85623 7.49758 2.87227 7.48981C2.8882 7.48205 2.9075 7.48879 2.91526 7.50472L2.98634 7.65127C2.9941 7.6672 2.98736 7.6865 2.97143 7.69426C2.96693 7.69641 2.96213 7.69753 2.95743 7.69753ZM2.81528 7.40434C2.80334 7.40434 2.7919 7.3977 2.78628 7.38616L2.71521 7.23962C2.70744 7.22369 2.71408 7.20439 2.73012 7.19662C2.74605 7.18886 2.76535 7.1956 2.77311 7.21153L2.84418 7.35808C2.85194 7.37411 2.8452 7.39331 2.82927 7.40107C2.82478 7.40322 2.81998 7.40434 2.81528 7.40434ZM2.67313 7.11115C2.66118 7.11115 2.64975 7.10451 2.64413 7.09297L2.57305 6.94643C2.56529 6.9305 2.57193 6.9112 2.58796 6.90343C2.60389 6.89567 2.6232 6.90231 2.63096 6.91834L2.70203 7.06489C2.70979 7.08082 2.70305 7.10012 2.68712 7.10788C2.68263 7.11003 2.67783 7.11115 2.67313 7.11115ZM2.53098 6.81796C2.51903 6.81796 2.5076 6.81132 2.50198 6.79978L2.4309 6.65324C2.42314 6.63731 2.42978 6.61801 2.44581 6.61024C2.46174 6.60248 2.48104 6.60922 2.48881 6.62515L2.55988 6.7717C2.56764 6.78763 2.561 6.80693 2.54497 6.81469C2.54048 6.81684 2.53568 6.81796 2.53098 6.81796ZM2.38883 6.52477C2.37688 6.52477 2.36544 6.51813 2.35983 6.50659L2.28875 6.36005C2.28099 6.34412 2.28773 6.32482 2.30366 6.31705C2.31969 6.30929 2.33889 6.31603 2.34665 6.33196L2.41773 6.47851C2.42549 6.49444 2.41875 6.51374 2.40282 6.5215C2.39833 6.52365 2.39353 6.52477 2.38883 6.52477ZM2.24668 6.23158C2.23473 6.23158 2.22329 6.22494 2.21768 6.2134L2.1466 6.06686C2.13884 6.05093 2.14548 6.03162 2.16151 6.02386C2.17744 6.0161 2.19674 6.02284 2.2045 6.03877L2.27558 6.18532C2.28334 6.20135 2.2767 6.22055 2.26067 6.22831C2.25617 6.23046 2.25138 6.23158 2.24668 6.23158ZM2.10453 5.93839C2.09258 5.93839 2.08114 5.93175 2.07552 5.92021L2.00445 5.77367C1.99669 5.75774 2.00343 5.73843 2.01936 5.73067C2.03529 5.72291 2.05459 5.72965 2.06235 5.74558L2.13343 5.89213C2.14119 5.90806 2.13445 5.92736 2.11852 5.93512C2.11402 5.93726 2.10922 5.93839 2.10453 5.93839ZM1.96237 5.6452C1.95043 5.6452 1.93899 5.63856 1.93337 5.62702L1.8623 5.48048C1.85454 5.46455 1.86128 5.44524 1.87721 5.43748C1.89314 5.42972 1.91244 5.43646 1.9202 5.45239L1.99127 5.59894C1.99904 5.61487 1.9923 5.63417 1.97637 5.64193C1.97187 5.64407 1.96707 5.6452 1.96237 5.6452ZM1.82022 5.35201C1.80828 5.35201 1.79684 5.34537 1.79122 5.33383L1.72015 5.18729C1.71238 5.17136 1.71912 5.15205 1.73506 5.14429C1.75099 5.13653 1.77029 5.14327 1.77805 5.1592L1.84912 5.30575C1.85688 5.32178 1.85025 5.34098 1.83421 5.34874C1.82972 5.35088 1.82492 5.35201 1.82022 5.35201ZM1.67807 5.05882C1.66612 5.05882 1.65469 5.05218 1.64907 5.04064L1.57799 4.8941C1.57023 4.87817 1.57697 4.85886 1.5929 4.8511C1.60883 4.84334 1.62814 4.84998 1.6359 4.86601L1.70697 5.01256C1.71473 5.02849 1.7081 5.04779 1.69206 5.05555C1.68757 5.05769 1.68277 5.05882 1.67807 5.05882ZM1.53592 4.76563C1.52397 4.76563 1.51253 4.75899 1.50692 4.74745L1.43584 4.60091C1.42808 4.58498 1.43482 4.56567 1.45075 4.55791C1.46668 4.55015 1.48598 4.55689 1.49374 4.57282L1.56482 4.71937C1.57258 4.7354 1.56594 4.7546 1.54991 4.76236C1.54542 4.7645 1.54062 4.76563 1.53592 4.76563Z" fill="black"/>
<path d="M3.49061 8.79685C3.47866 8.79685 3.46723 8.79022 3.46161 8.77868L3.42658 8.70637C3.41882 8.69044 3.42546 8.67114 3.44149 8.66338C3.45742 8.65562 3.47672 8.66236 3.48449 8.67829L3.51951 8.75059C3.52727 8.76663 3.52053 8.78583 3.5046 8.79359C3.50011 8.79573 3.49531 8.79685 3.49061 8.79685Z" fill="black"/>
<path d="M24.1879 4.47264C24.1832 4.47264 24.1784 4.47161 24.1739 4.46937C24.158 4.46161 24.1512 4.44241 24.159 4.42637L24.194 4.35407C24.2018 4.33814 24.221 4.3314 24.237 4.33916C24.2529 4.34692 24.2597 4.36612 24.2519 4.38216L24.2169 4.45446C24.2114 4.4659 24.1998 4.47264 24.1879 4.47264Z" fill="black"/>
<path d="M22.1981 8.57712C22.1934 8.57712 22.1886 8.5761 22.1842 8.57385C22.1682 8.56609 22.1615 8.54689 22.1692 8.53086L22.2403 8.38431C22.2481 8.36838 22.2673 8.36164 22.2833 8.3694C22.2992 8.37716 22.306 8.39636 22.2982 8.4124L22.2271 8.55894C22.2216 8.57038 22.2101 8.57712 22.1981 8.57712ZM22.3403 8.28393C22.3356 8.28393 22.3308 8.28291 22.3263 8.28066C22.3104 8.2729 22.3036 8.2537 22.3114 8.23767L22.3825 8.09112C22.3902 8.07509 22.4094 8.06845 22.4255 8.07621C22.4414 8.08397 22.4481 8.10317 22.4404 8.1192L22.3693 8.26575C22.3638 8.27719 22.3522 8.28393 22.3403 8.28393ZM22.4824 7.99074C22.4777 7.99074 22.4729 7.98972 22.4685 7.98747C22.4525 7.97971 22.4458 7.96051 22.4535 7.94448L22.5246 7.79793C22.5324 7.782 22.5516 7.77526 22.5676 7.78302C22.5835 7.79078 22.5903 7.80998 22.5825 7.82602L22.5114 7.97256C22.5059 7.984 22.4944 7.99074 22.4824 7.99074ZM22.6246 7.69755C22.6199 7.69755 22.6151 7.69653 22.6106 7.69428C22.5947 7.68652 22.5879 7.66732 22.5957 7.65129L22.6668 7.50474C22.6745 7.48881 22.6937 7.48207 22.7098 7.48983C22.7258 7.49759 22.7324 7.51679 22.7247 7.53282L22.6536 7.67937C22.6481 7.69081 22.6365 7.69755 22.6246 7.69755ZM22.7667 7.40436C22.762 7.40436 22.7572 7.40334 22.7528 7.40109C22.7368 7.39333 22.7301 7.37413 22.7378 7.3581L22.8089 7.21155C22.8167 7.19562 22.8359 7.18888 22.8519 7.19664C22.8678 7.2044 22.8746 7.2236 22.8668 7.23964L22.7958 7.38618C22.7902 7.39762 22.7787 7.40436 22.7667 7.40436ZM22.9089 7.11117C22.9042 7.11117 22.8994 7.11015 22.8949 7.1079C22.879 7.10014 22.8722 7.08094 22.88 7.06491L22.9511 6.91836C22.9588 6.90243 22.978 6.89579 22.9941 6.90345C23.01 6.91121 23.0167 6.93041 23.009 6.94644L22.9379 7.09299C22.9324 7.10443 22.9208 7.11117 22.9089 7.11117ZM23.0511 6.81798C23.0464 6.81798 23.0416 6.81695 23.0371 6.81471C23.0211 6.80695 23.0144 6.78775 23.0221 6.77172L23.0932 6.62517C23.101 6.60924 23.1203 6.6025 23.1362 6.61026C23.1521 6.61802 23.1589 6.63722 23.1511 6.65325L23.0801 6.7998C23.0745 6.81124 23.063 6.81798 23.0511 6.81798ZM23.1932 6.52479C23.1885 6.52479 23.1837 6.52377 23.1792 6.52152C23.1633 6.51376 23.1565 6.49456 23.1643 6.47853L23.2354 6.33198C23.2431 6.31605 23.2623 6.30931 23.2784 6.31707C23.2943 6.32483 23.301 6.34403 23.2933 6.36006L23.2222 6.50661C23.2167 6.51805 23.2051 6.52479 23.1932 6.52479ZM23.3354 6.2316C23.3307 6.2316 23.3259 6.23057 23.3214 6.22833C23.3054 6.22057 23.2987 6.20137 23.3065 6.18533L23.3775 6.03879C23.3853 6.02286 23.4045 6.01612 23.4205 6.02388C23.4365 6.03164 23.4432 6.05084 23.4354 6.06687L23.3644 6.21342C23.3588 6.22486 23.3473 6.2316 23.3354 6.2316ZM23.4775 5.93841C23.4728 5.93841 23.468 5.93738 23.4635 5.93514C23.4476 5.92738 23.4408 5.90818 23.4486 5.89215L23.5197 5.7456C23.5274 5.72967 23.5466 5.72293 23.5627 5.73069C23.5786 5.73845 23.5853 5.75765 23.5776 5.77368L23.5065 5.92023C23.501 5.93167 23.4895 5.93841 23.4775 5.93841ZM23.6197 5.64522C23.615 5.64522 23.6102 5.64419 23.6057 5.64195C23.5897 5.63419 23.583 5.61499 23.5908 5.59895L23.6618 5.45241C23.6696 5.43648 23.6889 5.42974 23.7048 5.4375C23.7208 5.44526 23.7275 5.46446 23.7197 5.48049L23.6487 5.62704C23.6431 5.63848 23.6316 5.64522 23.6197 5.64522ZM23.7618 5.35203C23.7571 5.35203 23.7523 5.351 23.7478 5.34876C23.7319 5.341 23.7251 5.3218 23.7329 5.30576L23.804 5.15922C23.8117 5.14329 23.8309 5.13655 23.847 5.14431C23.8629 5.15207 23.8696 5.17127 23.8619 5.1873L23.7908 5.33385C23.7853 5.34529 23.7738 5.35203 23.7618 5.35203ZM23.904 5.05884C23.8993 5.05884 23.8945 5.05781 23.89 5.05557C23.874 5.04781 23.8673 5.02861 23.8751 5.01257L23.9461 4.86603C23.9539 4.8501 23.9731 4.84346 23.9891 4.85112C24.0051 4.85888 24.0118 4.87808 24.004 4.89411L23.933 5.04066C23.9274 5.0521 23.9159 5.05884 23.904 5.05884ZM24.0461 4.76565C24.0414 4.76565 24.0366 4.76462 24.0321 4.76238C24.0162 4.75462 24.0094 4.73542 24.0172 4.71938L24.0883 4.57284C24.096 4.55681 24.1152 4.55017 24.1313 4.55793C24.1472 4.56569 24.1539 4.58489 24.1462 4.60092L24.0751 4.74747C24.0696 4.75891 24.0581 4.76565 24.0461 4.76565Z" fill="black"/>
<path d="M22.0917 8.79685C22.087 8.79685 22.0822 8.79583 22.0777 8.79359C22.0618 8.78583 22.055 8.76663 22.0628 8.75059L22.0978 8.67829C22.1056 8.66236 22.1248 8.65562 22.1408 8.66338C22.1567 8.67114 22.1635 8.69034 22.1557 8.70637L22.1207 8.77868C22.1152 8.79011 22.1036 8.79685 22.0917 8.79685Z" fill="black"/>
<path d="M5.83763 21.455H5.75727C5.7395 21.455 5.7251 21.4406 5.7251 21.4228C5.7251 21.405 5.7395 21.3906 5.75727 21.3906H5.83763C5.8554 21.3906 5.8698 21.405 5.8698 21.4228C5.8698 21.4406 5.8554 21.455 5.83763 21.455Z" fill="black"/>
<path d="M19.5999 21.4679L19.4399 21.4678C19.4221 21.4678 19.4077 21.4534 19.4077 21.4357C19.4077 21.4179 19.4221 21.4035 19.4399 21.4035L19.5999 21.4036C19.6177 21.4036 19.6321 21.418 19.6321 21.4358C19.6321 21.4535 19.6177 21.4679 19.5999 21.4679ZM19.2799 21.4676L19.1198 21.4675C19.1021 21.4675 19.0877 21.4531 19.0877 21.4354C19.0877 21.4176 19.1021 21.4032 19.1198 21.4032L19.2799 21.4033C19.2976 21.4033 19.312 21.4177 19.312 21.4355C19.312 21.4532 19.2976 21.4676 19.2799 21.4676ZM18.9598 21.4673L18.7998 21.4671C18.782 21.4671 18.7676 21.4527 18.7676 21.4349C18.7676 21.4172 18.782 21.4028 18.7998 21.4028L18.9598 21.4029C18.9776 21.4029 18.992 21.4173 18.992 21.435C18.992 21.4528 18.9776 21.4672 18.9598 21.4672V21.4673ZM18.6398 21.467L18.4797 21.4669C18.462 21.4669 18.4476 21.4525 18.4476 21.4347C18.4476 21.417 18.462 21.4026 18.4797 21.4026L18.6398 21.4027C18.6575 21.4027 18.6719 21.4171 18.6719 21.4348C18.6719 21.4526 18.6575 21.467 18.6398 21.467ZM18.3197 21.4667L18.1597 21.4666C18.1419 21.4666 18.1275 21.4522 18.1275 21.4344C18.1275 21.4167 18.1419 21.4023 18.1597 21.4023L18.3197 21.4024C18.3375 21.4024 18.3519 21.4168 18.3519 21.4345C18.3519 21.4523 18.3375 21.4667 18.3197 21.4667ZM17.9997 21.4664L17.8397 21.4663C17.8219 21.4663 17.8075 21.4519 17.8075 21.4341C17.8075 21.4164 17.8219 21.402 17.8397 21.402L17.9997 21.4021C18.0174 21.4021 18.0318 21.4165 18.0318 21.4342C18.0318 21.452 18.0174 21.4664 17.9997 21.4664ZM17.6796 21.4661L17.5196 21.466C17.5018 21.466 17.4874 21.4516 17.4874 21.4338C17.4874 21.4161 17.5018 21.4017 17.5196 21.4017L17.6796 21.4018C17.6974 21.4018 17.7118 21.4162 17.7118 21.4339C17.7118 21.4517 17.6974 21.4661 17.6796 21.4661ZM17.3596 21.4658L17.1996 21.4657C17.1818 21.4657 17.1674 21.4513 17.1674 21.4335C17.1674 21.4157 17.1818 21.4013 17.1996 21.4013L17.3596 21.4015C17.3774 21.4015 17.3918 21.4158 17.3918 21.4336C17.3918 21.4514 17.3774 21.4658 17.3596 21.4658ZM17.0395 21.4655L16.8795 21.4653C16.8617 21.4653 16.8474 21.4509 16.8474 21.4331C16.8474 21.4153 16.8617 21.4009 16.8795 21.4009L17.0395 21.401C17.0573 21.401 17.0717 21.4154 17.0717 21.4332C17.0717 21.451 17.0573 21.4654 17.0395 21.4654V21.4655ZM16.7195 21.4652L16.5595 21.4651C16.5417 21.4651 16.5273 21.4507 16.5273 21.4329C16.5273 21.4151 16.5417 21.4007 16.5595 21.4007L16.7195 21.4008C16.7373 21.4008 16.7517 21.4152 16.7517 21.433C16.7517 21.4508 16.7373 21.4652 16.7195 21.4652ZM16.3994 21.4649L16.2394 21.4648C16.2217 21.4648 16.2073 21.4504 16.2073 21.4326C16.2073 21.4148 16.2217 21.4004 16.2394 21.4004L16.3994 21.4005C16.4172 21.4005 16.4316 21.4149 16.4316 21.4327C16.4316 21.4505 16.4172 21.4649 16.3994 21.4649ZM16.0794 21.4646L15.9194 21.4644C15.9016 21.4644 15.8872 21.45 15.8872 21.4322C15.8872 21.4144 15.9016 21.4 15.9194 21.4L16.0794 21.4001C16.0972 21.4001 16.1116 21.4145 16.1116 21.4323C16.1116 21.4501 16.0972 21.4645 16.0794 21.4645V21.4646ZM15.7594 21.4643L15.5993 21.4641C15.5816 21.4641 15.5672 21.4497 15.5672 21.4319C15.5672 21.4141 15.5816 21.3997 15.5993 21.3997L15.7594 21.3998C15.7771 21.3998 15.7915 21.4142 15.7915 21.432C15.7915 21.4498 15.7771 21.4642 15.7594 21.4642V21.4643ZM15.4393 21.4639L15.2793 21.4638C15.2615 21.4638 15.2471 21.4494 15.2471 21.4317C15.2471 21.4139 15.2615 21.3995 15.2793 21.3995L15.4393 21.3996C15.4571 21.3996 15.4715 21.414 15.4715 21.4318C15.4715 21.4495 15.4571 21.4639 15.4393 21.4639ZM15.1193 21.4636L14.9592 21.4635C14.9415 21.4635 14.9271 21.4491 14.9271 21.4314C14.9271 21.4136 14.9415 21.3992 14.9592 21.3992L15.1193 21.3993C15.137 21.3993 15.1514 21.4137 15.1514 21.4315C15.1514 21.4492 15.137 21.4636 15.1193 21.4636ZM14.7992 21.4633L14.6392 21.4631C14.6214 21.4631 14.607 21.4487 14.607 21.431C14.607 21.4132 14.6214 21.3988 14.6392 21.3988L14.7992 21.3989C14.817 21.3989 14.8314 21.4133 14.8314 21.4311C14.8314 21.4488 14.817 21.4632 14.7992 21.4632V21.4633ZM14.4792 21.463L14.3192 21.4629C14.3014 21.4629 14.287 21.4485 14.287 21.4308C14.287 21.413 14.3014 21.3986 14.3192 21.3986L14.4792 21.3987C14.4969 21.3987 14.5113 21.4131 14.5113 21.4309C14.5113 21.4486 14.4969 21.463 14.4792 21.463ZM14.1591 21.4627L13.9991 21.4626C13.9813 21.4626 13.9669 21.4482 13.9669 21.4305C13.9669 21.4127 13.9813 21.3983 13.9991 21.3983L14.1591 21.3984C14.1769 21.3984 14.1913 21.4128 14.1913 21.4306C14.1913 21.4483 14.1769 21.4627 14.1591 21.4627ZM13.8391 21.4624L13.6791 21.4623C13.6613 21.4623 13.6469 21.4479 13.6469 21.4301C13.6469 21.4124 13.6613 21.398 13.6791 21.398L13.8391 21.3981C13.8569 21.3981 13.8713 21.4125 13.8713 21.4302C13.8713 21.448 13.8569 21.4624 13.8391 21.4624ZM13.519 21.4621L13.359 21.4619C13.3413 21.4619 13.3269 21.4475 13.3269 21.4297C13.3269 21.412 13.3413 21.3976 13.359 21.3976L13.519 21.3977C13.5368 21.3977 13.5512 21.4121 13.5512 21.4298C13.5512 21.4476 13.5368 21.462 13.519 21.462V21.4621ZM13.199 21.4618L13.039 21.4617C13.0212 21.4617 13.0068 21.4473 13.0068 21.4295C13.0068 21.4118 13.0212 21.3974 13.039 21.3974L13.199 21.3975C13.2168 21.3975 13.2312 21.4119 13.2312 21.4296C13.2312 21.4474 13.2168 21.4618 13.199 21.4618ZM12.879 21.4615L12.7189 21.4613C12.7012 21.4613 12.6868 21.4469 12.6868 21.4291C12.6868 21.4114 12.7012 21.397 12.7189 21.397L12.879 21.3971C12.8967 21.3971 12.9111 21.4115 12.9111 21.4292C12.9111 21.447 12.8967 21.4614 12.879 21.4614V21.4615ZM12.5589 21.4612L12.3989 21.4611C12.3811 21.4611 12.3667 21.4467 12.3667 21.4289C12.3667 21.4112 12.3811 21.3968 12.3989 21.3968L12.5589 21.3969C12.5767 21.3969 12.5911 21.4113 12.5911 21.429C12.5911 21.4468 12.5767 21.4612 12.5589 21.4612ZM12.2389 21.4609L12.0788 21.4608C12.0611 21.4608 12.0467 21.4464 12.0467 21.4286C12.0467 21.4108 12.0611 21.3964 12.0788 21.3964L12.2389 21.3965C12.2566 21.3965 12.271 21.4109 12.271 21.4287C12.271 21.4465 12.2566 21.4609 12.2389 21.4609ZM11.9188 21.4606L11.7588 21.4605C11.741 21.4605 11.7266 21.4461 11.7266 21.4283C11.7266 21.4105 11.741 21.3961 11.7588 21.3961L11.9188 21.3962C11.9366 21.3962 11.951 21.4106 11.951 21.4284C11.951 21.4462 11.9366 21.4606 11.9188 21.4606ZM11.5988 21.4603L11.4388 21.4602C11.421 21.4602 11.4066 21.4458 11.4066 21.428C11.4066 21.4102 11.421 21.3958 11.4388 21.3958L11.5988 21.3959C11.6165 21.3959 11.6309 21.4103 11.6309 21.4281C11.6309 21.4459 11.6165 21.4603 11.5988 21.4603ZM11.2787 21.46L11.1187 21.4599C11.1009 21.4599 11.0865 21.4455 11.0865 21.4277C11.0865 21.4099 11.1009 21.3955 11.1187 21.3955L11.2787 21.3956C11.2965 21.3956 11.3109 21.41 11.3109 21.4278C11.3109 21.4456 11.2965 21.46 11.2787 21.46ZM10.9587 21.4597L10.7987 21.4596C10.7809 21.4596 10.7665 21.4452 10.7665 21.4274C10.7665 21.4096 10.7809 21.3952 10.7987 21.3952L10.9587 21.3953C10.9765 21.3953 10.9909 21.4097 10.9909 21.4275C10.9909 21.4453 10.9765 21.4597 10.9587 21.4597ZM10.6386 21.4594L10.4786 21.4591C10.4608 21.4591 10.4464 21.4447 10.4464 21.427C10.4464 21.4092 10.4608 21.3948 10.4786 21.3948L10.6386 21.3949C10.6564 21.3949 10.6708 21.4093 10.6708 21.4271C10.6708 21.4449 10.6564 21.4593 10.6386 21.4593V21.4594ZM10.3186 21.459L10.1586 21.4589C10.1408 21.4589 10.1264 21.4445 10.1264 21.4268C10.1264 21.409 10.1408 21.3946 10.1586 21.3946L10.3186 21.3947C10.3364 21.3947 10.3508 21.4091 10.3508 21.4269C10.3508 21.4446 10.3364 21.459 10.3186 21.459ZM9.99855 21.4587L9.83853 21.4586C9.82076 21.4586 9.80636 21.4442 9.80636 21.4265C9.80636 21.4087 9.82076 21.3943 9.83853 21.3943L9.99855 21.3944C10.0163 21.3944 10.0307 21.4088 10.0307 21.4266C10.0307 21.4443 10.0163 21.4587 9.99855 21.4587ZM9.67851 21.4584L9.51848 21.4583C9.50071 21.4583 9.48631 21.4439 9.48631 21.4262C9.48631 21.4084 9.50071 21.394 9.51848 21.394L9.67851 21.3941C9.69627 21.3941 9.71067 21.4085 9.71067 21.4263C9.71067 21.444 9.69627 21.4584 9.67851 21.4584ZM9.35846 21.4581L9.19844 21.458C9.18067 21.458 9.16627 21.4436 9.16627 21.4259C9.16627 21.4081 9.18067 21.3937 9.19844 21.3937L9.35846 21.3938C9.37623 21.3938 9.39063 21.4082 9.39063 21.426C9.39063 21.4437 9.37623 21.4581 9.35846 21.4581ZM9.03842 21.4578L8.87839 21.4577C8.86062 21.4577 8.84623 21.4433 8.84623 21.4256C8.84623 21.4078 8.86062 21.3934 8.87839 21.3934L9.03842 21.3935C9.05618 21.3935 9.07058 21.4079 9.07058 21.4257C9.07058 21.4434 9.05618 21.4578 9.03842 21.4578ZM8.71837 21.4575L8.55835 21.4574C8.54058 21.4574 8.52618 21.443 8.52618 21.4252C8.52618 21.4075 8.54058 21.3931 8.55835 21.3931L8.71837 21.3932C8.73614 21.3932 8.75054 21.4076 8.75054 21.4253C8.75054 21.4431 8.73614 21.4575 8.71837 21.4575ZM8.39833 21.4572L8.2383 21.4571C8.22053 21.4571 8.20614 21.4427 8.20614 21.4249C8.20614 21.4072 8.22053 21.3928 8.2383 21.3928L8.39833 21.3929C8.41609 21.3929 8.43049 21.4073 8.43049 21.425C8.43049 21.4428 8.41609 21.4572 8.39833 21.4572ZM8.07828 21.4569L7.91826 21.4568C7.90049 21.4568 7.88609 21.4424 7.88609 21.4246C7.88609 21.4069 7.90049 21.3925 7.91826 21.3925L8.07828 21.3926C8.09605 21.3926 8.11045 21.407 8.11045 21.4247C8.11045 21.4425 8.09605 21.4569 8.07828 21.4569ZM7.75824 21.4566L7.59821 21.4565C7.58044 21.4565 7.56605 21.4421 7.56605 21.4243C7.56605 21.4066 7.58044 21.3922 7.59821 21.3922L7.75824 21.3923C7.776 21.3923 7.7904 21.4067 7.7904 21.4244C7.7904 21.4422 7.776 21.4566 7.75824 21.4566ZM7.43819 21.4563L7.27817 21.4562C7.2604 21.4562 7.246 21.4418 7.246 21.424C7.246 21.4062 7.2604 21.3919 7.27817 21.3919L7.43819 21.392C7.45596 21.392 7.47036 21.4064 7.47036 21.4241C7.47036 21.4419 7.45596 21.4563 7.43819 21.4563ZM7.11815 21.456L6.95812 21.4559C6.94035 21.4559 6.92596 21.4415 6.92596 21.4237C6.92596 21.4059 6.94035 21.3915 6.95812 21.3915L7.11815 21.3916C7.13591 21.3916 7.15031 21.406 7.15031 21.4238C7.15031 21.4416 7.13591 21.456 7.11815 21.456ZM6.7981 21.4557L6.63808 21.4556C6.62031 21.4556 6.60591 21.4412 6.60591 21.4234C6.60591 21.4056 6.62031 21.3912 6.63808 21.3912L6.7981 21.3913C6.81587 21.3913 6.83027 21.4057 6.83027 21.4235C6.83027 21.4413 6.81587 21.4557 6.7981 21.4557ZM6.47806 21.4554L6.31803 21.4553C6.30026 21.4553 6.28587 21.4409 6.28587 21.4231C6.28587 21.4053 6.30026 21.3909 6.31803 21.3909L6.47806 21.391C6.49582 21.391 6.51022 21.4054 6.51022 21.4232C6.51022 21.441 6.49582 21.4554 6.47806 21.4554ZM6.15801 21.4551L5.99799 21.455C5.98022 21.455 5.96582 21.4406 5.96582 21.4228C5.96582 21.405 5.98022 21.3906 5.99799 21.3906L6.15801 21.3907C6.17578 21.3907 6.19018 21.4051 6.19018 21.4229C6.19018 21.4407 6.17578 21.4551 6.15801 21.4551Z" fill="black"/>
<path d="M19.8401 21.4686H19.7597C19.7419 21.4686 19.7275 21.4542 19.7275 21.4365C19.7275 21.4187 19.7419 21.4043 19.7597 21.4043H19.8401C19.8578 21.4043 19.8722 21.4187 19.8722 21.4365C19.8722 21.4542 19.8578 21.4686 19.8401 21.4686Z" fill="black"/>
<path d="M13.7812 2.35742H11.8018V2.79358H13.7812V2.35742Z" fill="white"/>
<path d="M13.8133 2.82657H11.7695V2.32617H13.8133V2.82657ZM11.8339 2.76223H13.7489V2.39041H11.8339V2.76223Z" fill="black"/>
<path d="M11.9316 2.72474C11.9138 2.72474 11.8994 2.71034 11.8994 2.69257V2.59617C11.8994 2.5784 11.9138 2.564 11.9316 2.564C11.9494 2.564 11.9638 2.5784 11.9638 2.59617V2.69257C11.9638 2.71034 11.9494 2.72474 11.9316 2.72474ZM11.9316 2.53183C11.9138 2.53183 11.8994 2.51743 11.8994 2.49966V2.40326C11.8994 2.38549 11.9138 2.37109 11.9316 2.37109C11.9494 2.37109 11.9638 2.38549 11.9638 2.40326V2.49966C11.9638 2.51743 11.9494 2.53183 11.9316 2.53183Z" fill="black"/>
<path d="M13.663 2.72474C13.6453 2.72474 13.6309 2.71034 13.6309 2.69257V2.59617C13.6309 2.5784 13.6453 2.564 13.663 2.564C13.6808 2.564 13.6952 2.5784 13.6952 2.59617V2.69257C13.6952 2.71034 13.6808 2.72474 13.663 2.72474ZM13.663 2.53183C13.6453 2.53183 13.6309 2.51743 13.6309 2.49966V2.40326C13.6309 2.38549 13.6453 2.37109 13.663 2.37109C13.6808 2.37109 13.6952 2.38549 13.6952 2.40326V2.49966C13.6952 2.51743 13.6808 2.53183 13.663 2.53183Z" fill="black"/>
</svg>
