<svg width="30" height="30" viewBox="0 0 30 30" fill="none" xmlns="http://www.w3.org/2000/svg">
<path d="M29.1923 10.3503C29.1923 6.66217 29.1923 2.56423 26.3237 0.105469L15.6787 3.38992C15.6787 3.38992 18.5078 7.81473 18.8928 12.7469C19.2768 17.6791 17.315 23.167 17.315 23.167C17.315 23.167 17.179 26.2519 17.3083 29.2008C24.2748 30.0204 24.2748 28.3812 26.7335 26.3323C27.2717 26.0717 28.3727 24.6931 28.7825 22.6441C29.6021 21.8245 29.6858 16.8939 29.1923 14.0385C28.9151 12.6233 29.5388 11.7309 29.1923 10.3503Z" fill="white"/>
<path d="M19.0014 12.7391C18.6539 8.28701 16.2967 4.20009 15.8452 3.45319L24.7542 0.722715C24.732 0.653685 24.7098 0.584655 24.6877 0.515625L15.5098 3.32859L15.5867 3.44905C15.6148 3.49323 18.4054 7.907 18.7841 12.7563C19.1619 17.6081 17.232 23.0767 17.2126 23.1315L17.2053 23.1519L17.2064 23.1736C17.2092 23.2244 17.3291 25.4509 17.4573 28.382C17.529 28.3554 17.6004 28.3285 17.6721 28.3015C17.5512 25.5417 17.4382 23.4218 17.4254 23.1833C17.5567 22.8064 19.3712 17.4856 19.0018 12.7394L19.0014 12.7391Z" fill="black"/>
<path d="M18.8922 12.7476C18.5072 7.81544 15.6781 3.39062 15.6781 3.39062L1.05859 11.9748L8.25918 26.536L17.3144 23.1673C17.3144 23.1673 19.2761 17.6798 18.8922 12.7473V12.7476Z" fill="white"/>
<path d="M17.4175 23.2048C17.4373 23.1496 19.3827 17.6386 19.0012 12.7399C18.6183 7.83739 15.7989 3.37737 15.7705 3.33284L15.714 3.24414L0.916016 11.9333L8.20497 26.6729L17.4002 23.2521L17.4172 23.2045L17.4175 23.2048ZM8.31378 26.4009L1.20121 12.0182L15.6412 3.5389C16.0376 4.18985 18.4342 8.2885 18.7832 12.7568C19.1422 17.3677 17.4172 22.5352 17.228 23.0844L8.31309 26.4006L8.31378 26.4009Z" fill="black"/>
<path d="M2.60322 11.4914C2.56268 11.4914 2.52386 11.4689 2.50481 11.4299L2.38595 11.1856C2.35961 11.1317 2.38248 11.0665 2.43654 11.0403C2.4906 11.014 2.55609 11.0365 2.58243 11.0906L2.70129 11.335C2.72763 11.3892 2.70475 11.4541 2.6507 11.4803C2.63545 11.4876 2.61916 11.4914 2.60322 11.4914Z" fill="black"/>
<path d="M3.4252 12.8192C3.39887 12.765 3.33372 12.7425 3.27931 12.7688C3.22525 12.795 3.20238 12.8599 3.22872 12.9141L3.4699 13.4094C3.48862 13.448 3.52778 13.4708 3.56832 13.4708C3.58426 13.4708 3.60055 13.4674 3.61579 13.4598C3.66985 13.4335 3.69272 13.3686 3.66639 13.3145L3.4252 12.8192Z" fill="black"/>
<path d="M7.32928 21.337C7.34799 21.3757 7.38715 21.3985 7.4277 21.3985C7.44364 21.3985 7.45992 21.395 7.47517 21.3874C7.52923 21.3612 7.5521 21.2963 7.52576 21.2421L7.28458 20.7468C7.25824 20.693 7.19309 20.6702 7.13869 20.6964C7.08463 20.7227 7.06176 20.7876 7.08809 20.8418L7.32928 21.337Z" fill="black"/>
<path d="M2.94327 11.8289C2.91693 11.775 2.85178 11.7522 2.79738 11.7785C2.74332 11.8047 2.72045 11.8696 2.74679 11.9238L2.98797 12.4191C3.00668 12.4577 3.04584 12.4805 3.08639 12.4805C3.10233 12.4805 3.11861 12.4771 3.13386 12.4695C3.18792 12.4432 3.21079 12.3784 3.18445 12.3242L2.94327 11.8289Z" fill="black"/>
<path d="M7.81121 22.3273C7.82993 22.3659 7.86908 22.3887 7.90963 22.3887C7.92557 22.3887 7.94186 22.3853 7.9571 22.3777C8.01116 22.3514 8.03403 22.2866 8.0077 22.2324L7.76651 21.7371C7.74017 21.6832 7.67503 21.6605 7.62062 21.6867C7.56656 21.7129 7.54369 21.7778 7.57003 21.832L7.81121 22.3273Z" fill="black"/>
<path d="M9.25799 25.3C9.2767 25.3387 9.31586 25.3614 9.35641 25.3614C9.37235 25.3614 9.38863 25.358 9.40388 25.3504C9.45829 25.3242 9.48081 25.2593 9.45447 25.2051L9.21329 24.7098C9.18695 24.6556 9.12146 24.6332 9.0674 24.6594C9.01334 24.6856 8.99047 24.7505 9.0168 24.8047L9.25799 25.3Z" fill="black"/>
<path d="M8.77655 24.3097C8.79526 24.3484 8.83442 24.3711 8.87496 24.3711C8.8909 24.3711 8.90719 24.3677 8.92244 24.3601C8.97649 24.3339 8.99937 24.269 8.97303 24.2148L8.73184 23.7195C8.70551 23.6657 8.64036 23.6429 8.58595 23.6691C8.53189 23.6953 8.50902 23.7602 8.53536 23.8144L8.77655 24.3097Z" fill="black"/>
<path d="M8.29364 23.3195C8.31235 23.3581 8.35151 23.3809 8.39205 23.3809C8.40799 23.3809 8.42428 23.3775 8.43953 23.3699C8.49358 23.3436 8.51646 23.2787 8.49012 23.2246L8.24893 22.7293C8.2226 22.6754 8.15745 22.6526 8.10304 22.6789C8.04898 22.7051 8.02611 22.77 8.05245 22.8242L8.29364 23.3195Z" fill="black"/>
<path d="M4.39053 14.8015C4.3642 14.7477 4.29905 14.7249 4.24464 14.7511C4.19059 14.7774 4.16771 14.8423 4.19405 14.8964L4.43524 15.3917C4.45395 15.4304 4.49311 15.4532 4.53365 15.4532C4.54959 15.4532 4.56588 15.4497 4.58113 15.4421C4.63519 15.4159 4.65806 15.351 4.63172 15.2968L4.39053 14.8015Z" fill="black"/>
<path d="M3.90762 13.8113C3.88129 13.7575 3.81579 13.7347 3.76173 13.7609C3.70768 13.7871 3.6848 13.852 3.71114 13.9062L3.95233 14.4015C3.97104 14.4402 4.0102 14.4629 4.05074 14.4629C4.06668 14.4629 4.08297 14.4595 4.09822 14.4519C4.15228 14.4257 4.17515 14.3608 4.14881 14.3066L3.90762 13.8113Z" fill="black"/>
<path d="M6.94478 20.4083C6.96073 20.4083 6.97701 20.4049 6.99226 20.3973C7.04632 20.371 7.06919 20.3061 7.04285 20.252L6.80167 19.7567C6.77533 19.7025 6.71018 19.68 6.65578 19.7063C6.60172 19.7325 6.57885 19.7974 6.60518 19.8516L6.84637 20.3469C6.86508 20.3855 6.90424 20.4083 6.94478 20.4083Z" fill="black"/>
<path d="M5.83737 17.7742C5.81103 17.7203 5.74589 17.6976 5.69148 17.7238C5.63708 17.75 5.61455 17.8149 5.64089 17.8691L5.88207 18.3644C5.90079 18.403 5.93994 18.4258 5.98049 18.4258C5.99643 18.4258 6.01272 18.4224 6.02796 18.4148C6.08202 18.3886 6.10489 18.3237 6.07856 18.2695L5.83737 17.7742Z" fill="black"/>
<path d="M6.31925 18.7644C6.29291 18.7106 6.22776 18.6878 6.17336 18.714C6.1193 18.7403 6.09643 18.8051 6.12276 18.8593L6.36395 19.3546C6.38266 19.3933 6.42182 19.4161 6.46236 19.4161C6.4783 19.4161 6.49459 19.4126 6.50984 19.405C6.5639 19.3788 6.58677 19.3139 6.56043 19.2597L6.31925 18.7644Z" fill="black"/>
<path d="M4.87198 15.7918C4.84564 15.7379 4.78015 15.7151 4.72609 15.7414C4.67203 15.7676 4.64916 15.8325 4.6755 15.8867L4.91668 16.382C4.93539 16.4206 4.97455 16.4434 5.0151 16.4434C5.03104 16.4434 5.04732 16.44 5.06257 16.4324C5.11663 16.4061 5.1395 16.3412 5.11317 16.2871L4.87198 15.7918Z" fill="black"/>
<path d="M5.35495 16.7839C5.32861 16.7301 5.26346 16.7073 5.20906 16.7336C5.15465 16.7598 5.13213 16.8247 5.15847 16.8789L5.39965 17.3742C5.41836 17.4128 5.45752 17.4356 5.49807 17.4356C5.51401 17.4356 5.53029 17.4321 5.54554 17.4245C5.5996 17.3983 5.62247 17.3334 5.59614 17.2792L5.35495 16.7839Z" fill="black"/>
<path d="M9.6176 26.0412C9.63631 26.0799 9.67547 26.1026 9.71601 26.1026C9.73195 26.1026 9.74824 26.0992 9.76349 26.0916C9.81755 26.0654 9.84042 26.0005 9.81408 25.9463L9.69522 25.7019C9.66889 25.6481 9.60374 25.6253 9.54933 25.6515C9.49527 25.6778 9.4724 25.7426 9.49874 25.7968L9.6176 26.0412Z" fill="black"/>
</svg>
