<svg width="30" height="30" viewBox="0 0 30 30" fill="none" xmlns="http://www.w3.org/2000/svg">
<path d="M1.1241 10.3288C1.1241 6.64069 1.1241 2.54275 3.99266 0.0839844L14.6377 3.36843C14.6377 3.36843 11.8086 7.79325 11.4236 12.7254C11.0397 17.6576 13.0014 23.1455 13.0014 23.1455C13.0014 23.1455 13.1374 26.2304 13.0081 29.1793C6.04163 29.9989 6.04163 28.3598 3.58287 26.3108C3.0447 26.0502 1.94369 24.6716 1.5339 22.6226C0.71431 21.8031 0.630642 16.8724 1.1241 14.017C1.40133 12.6019 0.777572 11.7094 1.1241 10.3288Z" fill="white"/>
<path d="M11.315 12.7176C11.6626 8.26552 14.0197 4.17861 14.4712 3.43171L5.56221 0.70123C5.58438 0.6322 5.60656 0.563171 5.62874 0.494141L14.8066 3.30711L14.7297 3.42757C14.7016 3.47174 11.911 7.88552 11.5323 12.7349C11.1545 17.5866 13.0844 23.0552 13.1038 23.1101L13.1111 23.1304L13.11 23.1522C13.1072 23.2029 12.9873 25.4295 12.8591 28.3605C12.7874 28.3339 12.716 28.307 12.6443 28.28C12.7652 25.5202 12.8782 23.4003 12.891 23.1618C12.7597 22.7849 10.9452 17.4641 11.3146 12.718L11.315 12.7176Z" fill="black"/>
<path d="M11.4237 12.7261C11.8087 7.79395 14.6378 3.36914 14.6378 3.36914L29.2573 11.9534L22.0567 26.5145L13.0015 23.1459C13.0015 23.1459 11.0398 17.6583 11.4237 12.7258V12.7261Z" fill="white"/>
<path d="M12.8984 23.1833C12.8786 23.1281 10.9332 17.6171 11.3147 12.7184C11.6977 7.8159 14.517 3.35588 14.5455 3.31136L14.6019 3.22266L29.3999 11.9118L22.1109 26.6514L12.9157 23.2306L12.8987 23.183L12.8984 23.1833ZM22.0021 26.3794L29.1147 11.9967L14.6747 3.51741C14.2783 4.16837 11.8817 8.26701 11.5327 12.7353C11.1737 17.3462 12.8987 22.5137 13.0879 23.0629L22.0028 26.3791L22.0021 26.3794Z" fill="black"/>
</svg>
