<svg width="28" height="81" viewBox="0 0 28 81" fill="none" xmlns="http://www.w3.org/2000/svg">
<mask id="mask0_1_7179" style="mask-type:luminance" maskUnits="userSpaceOnUse" x="0" y="0" width="28" height="100">
<path d="M0.216309 100L0.216304 7.62939e-06L27.7839 6.42438e-06L27.7839 100L0.216309 100Z" fill="white"/>
</mask>
<g mask="url(#mask0_1_7179)">
<path d="M15.6109 1.35681C15.492 0.578428 14.8326 5.32159e-05 14.0596 5.32497e-05C13.292 5.32832e-05 12.6326 0.567619 12.5082 1.34059L10.5353 13.6919C10.1893 15.8649 11.838 17.8379 14.0001 17.8379C16.1515 17.8379 17.8001 15.8865 17.4704 13.7244L15.6109 1.35681Z" fill="#3DA0ED"/>
<path d="M17.2703 13.7547L17.2703 13.7553C17.5816 15.798 16.0238 17.6353 14 17.6353C11.967 17.6353 10.4081 15.778 10.7351 13.7239L12.7081 1.37309C12.8173 0.695791 13.3935 0.202822 14.0595 0.202822C14.7292 0.202822 15.306 0.704441 15.4108 1.38714L15.4108 1.38769L17.2703 13.7547Z" stroke="#E8E6E3" stroke-opacity="0.1" stroke-width="0.405405"/>
<path d="M10.2541 11.8918L2.54602 41.1242C2.10819 42.4323 1.83792 43.7837 0.756836 43.7837L27.2433 43.7837C26.1622 43.7837 25.892 42.4323 25.5785 41.3459L18.0866 11.8918L10.2541 11.8918Z" fill="#222525"/>
<path d="M10.2541 11.8918L2.54602 41.1242C2.10819 42.4323 1.83792 43.7837 0.756836 43.7837L27.2433 43.7837C26.1622 43.7837 25.892 42.4323 25.5785 41.3459L18.0866 11.8918L10.2541 11.8918Z" fill="#252728"/>
<path d="M10.2541 11.8918L2.54602 41.1242C2.10819 42.4323 1.83792 43.7837 0.756836 43.7837L27.2433 43.7837C26.1622 43.7837 25.892 42.4323 25.5785 41.3459L18.0866 11.8918L10.2541 11.8918Z" fill="url(#paint0_linear_1_7179)" fill-opacity="0.3"/>
<path d="M0.756834 56.2162L0.756836 100L27.2433 100L27.2433 56.2162L0.756834 56.2162Z" fill="#222426"/>
<path d="M0.756834 56.2162L0.756836 100L27.2433 100L27.2433 56.2162L0.756834 56.2162Z" fill="url(#paint1_linear_1_7179)" fill-opacity="0.3"/>
<path d="M27.2433 43.7839L0.756849 43.7839C0.459551 43.7839 0.216308 44.0271 0.216308 44.3244L0.216309 55.6758C0.216309 55.9731 0.459552 56.2163 0.756849 56.2163L27.2433 56.2163C27.5406 56.2163 27.7839 55.9731 27.7839 55.6758L27.7839 44.3244C27.7839 44.0271 27.5406 43.7839 27.2433 43.7839Z" fill="url(#paint2_linear_1_7179)" fill-opacity="0.3"/>
<path fill-rule="evenodd" clip-rule="evenodd" d="M10.2541 11.8919L2.54604 41.1243C2.49198 41.2919 2.43793 41.4541 2.38928 41.6216C2.03252 42.7459 1.7082 43.7676 0.783874 43.7838L0.756847 43.7838C0.459549 43.7838 0.216306 44.027 0.216306 44.3243L0.216307 55.6757C0.216307 55.973 0.45955 56.2162 0.756847 56.2162L0.756849 100L27.2433 100L27.2433 56.2162C27.5406 56.2162 27.7839 55.973 27.7839 55.6757L27.7839 44.3243C27.7839 44.027 27.5406 43.7838 27.2433 43.7838L27.2217 43.7838C26.2541 43.7676 25.946 42.6595 25.6595 41.6487C25.6325 41.546 25.6001 41.4432 25.5731 41.3459L18.0866 11.8919L10.2541 11.8919Z" fill="url(#paint3_linear_1_7179)" fill-opacity="0.1"/>
<path d="M0.216308 48.6486L0.216309 51.8918L27.7839 51.8918L27.7839 48.6486L0.216308 48.6486Z" fill="#3DA0ED"/>
<path d="M27.5811 51.6892L0.418945 51.6892L0.418945 48.8514L27.5811 48.8514L27.5811 51.6892Z" stroke="#E8E6E3" stroke-opacity="0.1" stroke-width="0.405405"/>
<path d="M18.0217 77.7513C17.9082 77.3134 17.3515 77.0377 16.8866 77.1945C16.6866 77.2486 16.492 77.4161 16.319 77.5134C15.6109 77.9513 14.9028 78.3999 14.2163 78.8648L13.9947 78.9999L15.2704 77.1404C16.0109 76.2756 16.6866 75.3621 17.3569 74.4377C17.8001 73.8972 17.4163 73.1026 16.6704 73.0432C16.4055 73.0161 16.1353 73.0972 15.9407 73.254L15.7677 73.3837C15.5461 73.5567 15.3298 73.7296 15.1298 73.9242C15.119 73.935 15.1082 73.9405 15.0974 73.9405L12.6596 75.4269L13.865 73.054C14.1461 72.6432 14.3893 72.2215 14.6325 71.7945C14.7136 71.6486 14.8163 71.5026 14.865 71.3404C14.9785 70.9729 14.7839 70.5567 14.4001 70.3837C13.9244 70.135 13.2758 70.3459 13.0758 70.8053C12.9655 71.0241 12.8574 71.2439 12.7515 71.4648C12.3244 72.3404 11.9136 73.2269 11.5569 74.1404L10.7352 75.7567C10.5352 76.0918 10.3082 76.4702 10.119 76.8161L9.91903 77.1837C9.77849 77.4594 9.83795 77.8161 10.0704 78.0432C10.3623 78.3459 10.9028 78.4107 11.2542 78.1783C11.3731 78.1026 11.6812 77.9134 11.8001 77.8323C12.4974 77.3837 13.2596 76.881 13.9244 76.3999L12.2163 78.8648C11.8325 79.3134 11.4758 79.7783 11.1353 80.2432C10.9623 80.4702 10.7893 80.708 10.6217 80.9459C10.4001 81.2107 10.3461 81.5783 10.519 81.8702C10.7298 82.2432 11.2704 82.4269 11.7028 82.2648C11.9244 82.1729 12.1082 82.0161 12.3082 81.8972C12.8163 81.5675 13.3082 81.2323 13.7839 80.8648L15.2488 79.9729L14.0325 82.3891C13.7407 82.7837 13.4866 83.1945 13.2434 83.6107C13.1623 83.7675 13.0596 83.9026 13.0001 84.0648C12.8812 84.4486 13.092 84.8972 13.4866 85.0756C13.9731 85.3242 14.638 85.1188 14.865 84.6648C14.865 84.6648 14.9839 84.4377 14.9839 84.4161C15.492 83.3945 15.9731 82.3621 16.3515 81.2864C16.3407 81.3026 16.3298 81.3242 16.319 81.3296L17.0704 79.8432C17.3839 79.3675 17.665 78.8648 17.9298 78.3729C18.0325 78.2432 18.092 77.9513 18.0217 77.7513Z" fill="#3DA0ED"/>
<path d="M17.8255 77.8022L17.8277 77.8103L17.8304 77.8184C17.8527 77.8954 17.8564 77.9765 17.8412 78.0552C17.8324 78.1236 17.8084 78.1892 17.7709 78.2471L17.7601 78.2611L17.7515 78.2773C17.4872 78.7676 17.2099 79.2638 16.9012 79.7314L16.8947 79.7417L16.8893 79.7519L16.138 81.2384L15.8623 81.7849L15.972 81.7298C15.6315 82.6125 15.2277 83.4703 14.8023 84.326L14.7812 84.3687L14.7812 84.3795C14.7568 84.4325 14.7308 84.4848 14.7034 84.5363L14.6904 84.5617L14.6866 84.5687L14.6855 84.5703L14.6839 84.5741C14.6001 84.7417 14.4282 84.8752 14.2147 84.9395C14.0017 85.0044 13.7693 84.9925 13.579 84.8952L13.5747 84.893L13.5699 84.8909C13.2628 84.7519 13.1093 84.4071 13.1926 84.1298C13.2153 84.0681 13.2477 84.0076 13.2882 83.9384L13.3196 83.886C13.352 83.8319 13.3888 83.7709 13.4212 83.7087C13.6617 83.2968 13.9109 82.8946 14.1958 82.5098L14.2061 82.4957L14.2136 82.4806L15.4299 80.0644L15.7488 79.4319L15.1434 79.7995L13.6785 80.6914L13.6688 80.6973L13.6601 80.7044C13.1879 81.0647 12.701 81.4053 12.2007 81.7254C12.1266 81.7698 12.0515 81.8211 11.9817 81.8681C11.9552 81.8863 11.9285 81.9043 11.9017 81.9222C11.8158 81.9821 11.7244 82.0337 11.6288 82.0763C11.2817 82.2044 10.8526 82.0481 10.6958 81.7703L10.6936 81.7671C10.5709 81.56 10.6017 81.2854 10.7774 81.0763L10.7828 81.0698L10.7877 81.0627C10.9542 80.8265 11.1255 80.5908 11.2963 80.366L11.299 80.3633C11.6374 79.9006 11.9909 79.44 12.3704 78.9968L12.3769 78.9887L12.3828 78.9806L14.0909 76.5157L13.8055 76.2357C13.1455 76.7136 12.3866 77.2141 11.6904 77.6622L11.6861 77.6649C11.562 77.7464 11.4368 77.8261 11.3104 77.9038C11.2455 77.9444 11.1861 77.9811 11.1455 78.0076L11.1423 78.0092C10.9992 78.0975 10.8299 78.1332 10.6634 78.1103C10.4866 78.0898 10.3244 78.0152 10.2163 77.9027L10.212 77.8984C10.0417 77.7319 10.0012 77.4714 10.0985 77.2779L10.2969 76.9136C10.4726 76.5925 10.6817 76.2422 10.8726 75.9222L10.9093 75.8606L10.9131 75.8552L10.9158 75.8487L11.7374 74.2325L11.7423 74.2233L11.7455 74.2141C12.0996 73.3081 12.5077 72.4271 12.9336 71.5536C13.005 71.4065 13.1872 71.0308 13.2558 70.899L13.259 70.893L13.2617 70.8865C13.3342 70.7206 13.4942 70.5871 13.6963 70.5222C13.8985 70.4573 14.1228 70.4676 14.3061 70.5633L14.3115 70.566L14.3169 70.5687C14.6153 70.7033 14.752 71.019 14.6715 71.2806L14.6709 71.2822C14.6423 71.3779 14.5936 71.4595 14.5336 71.5611C14.5093 71.6022 14.4834 71.646 14.4558 71.6952C14.2126 72.1222 13.9736 72.5368 13.698 72.9395L13.6904 72.9503L13.6844 72.9622L12.479 75.3352L12.1553 75.9719L12.765 75.6L15.1769 74.1298C15.2124 74.1168 15.2446 74.0963 15.2715 74.0698C15.4623 73.8838 15.6704 73.7168 15.8909 73.5449L16.0623 73.4163L16.0677 73.4119C16.2201 73.2892 16.4369 73.2227 16.6499 73.2449L16.6542 73.2449C16.9558 73.2692 17.1753 73.4395 17.2774 73.6492C17.331 73.7546 17.3522 73.8735 17.3385 73.9909C17.3247 74.1083 17.2766 74.2191 17.2001 74.3092L17.1963 74.3141L17.1931 74.319C16.5228 75.2433 15.8515 76.1509 15.1163 77.0087L15.1093 77.0168L15.1034 77.026L13.8277 78.8854L14.1001 79.173L14.3217 79.0379L14.3261 79.0352L14.3299 79.0325C15.012 78.5708 15.7163 78.1244 16.4223 77.6881C16.4834 77.6536 16.5526 77.6071 16.6153 77.5654L16.7017 77.5087C16.7936 77.4498 16.8709 77.4087 16.9396 77.3903L16.9455 77.3887L16.9509 77.3865C17.1272 77.3271 17.3266 77.3487 17.4969 77.4319C17.6666 77.5157 17.7866 77.6519 17.8255 77.8022ZM16.2282 81.1481L16.2607 81.213L16.1877 81.1763L16.1926 81.1719C16.2035 81.1628 16.2155 81.1545 16.2282 81.1481Z" stroke="#E8E6E3" stroke-opacity="0.07" stroke-width="0.405405"/>
</g>
<defs>
<linearGradient id="paint0_linear_1_7179" x1="24.4276" y1="26.8913" x2="-3.13992" y2="31.4859" gradientUnits="userSpaceOnUse">
<stop offset="0.13" stop-color="white" stop-opacity="0"/>
<stop offset="0.226" stop-color="white"/>
<stop offset="0.394" stop-color="white" stop-opacity="0"/>
</linearGradient>
<linearGradient id="paint1_linear_1_7179" x1="0.756835" y1="78.1081" x2="27.2433" y2="78.1081" gradientUnits="userSpaceOnUse">
<stop offset="0.474" stop-color="white" stop-opacity="0"/>
<stop offset="0.75" stop-color="white"/>
<stop offset="0.854" stop-color="white" stop-opacity="0"/>
</linearGradient>
<linearGradient id="paint2_linear_1_7179" x1="29.4055" y1="50.0001" x2="0.216308" y2="50.0001" gradientUnits="userSpaceOnUse">
<stop offset="0.157" stop-color="white" stop-opacity="0"/>
<stop offset="0.255" stop-color="white"/>
<stop offset="0.529" stop-color="white" stop-opacity="0"/>
</linearGradient>
<linearGradient id="paint3_linear_1_7179" x1="31.899" y1="13.16" x2="4.33145" y2="102.619" gradientUnits="userSpaceOnUse">
<stop stop-color="#C9C9C9"/>
<stop offset="1" stop-color="#C9C9C9" stop-opacity="0"/>
</linearGradient>
</defs>
</svg>
