<svg width="30" height="81" viewBox="0 0 30 81" fill="none" xmlns="http://www.w3.org/2000/svg">
<path d="M3.05076 14.8276C3.12729 14.0243 3.50051 13.2784 4.09753 12.7355C4.69455 12.1927 5.47249 11.8919 6.27941 11.8919L23.7205 11.8919C24.5274 11.8919 25.3054 12.1927 25.9024 12.7355C26.4994 13.2784 26.8726 14.0243 26.9491 14.8276L28.2432 28.4054L28.2432 100L1.75671 100L1.75671 28.4054L3.05076 14.8276Z" fill="#E4E4E4"/>
<path d="M2.1459 20.6741C2.18965 19.8446 2.54997 19.0635 3.1526 18.4919C3.75522 17.9202 4.5542 17.6016 5.38482 17.6016L24.6151 17.6016C25.4456 17.6017 26.2445 17.9204 26.847 18.4921C27.4495 19.0637 27.8097 19.8447 27.8535 20.6741L28.2432 28.047L28.2432 35.2492C28.2432 36.1093 27.9015 36.9343 27.2933 37.5425C26.685 38.1507 25.8601 38.4924 25 38.4924L4.99996 38.4924C4.1398 38.4924 3.31486 38.1507 2.70664 37.5425C2.09841 36.9343 1.75671 36.1094 1.75671 35.2492L1.75671 28.047L2.1459 20.6741Z" fill="url(#paint0_linear_1_7238)"/>
<path d="M2.68968 17.2287L27.3183 17.2287L27.6837 22.4514L2.31616 22.4514L2.68968 17.2287Z" fill="url(#paint1_linear_1_7238)"/>
<path d="M10.4054 79.6394L10.4054 81.6216C10.4054 81.9201 10.6474 82.1621 10.9459 82.1621L12.9281 82.1621C13.2266 82.1621 13.4686 81.9201 13.4686 81.6216L13.4686 79.6394C13.4686 79.3409 13.2266 79.0989 12.9281 79.0989L10.9459 79.0989C10.6474 79.0989 10.4054 79.3409 10.4054 79.6394Z" fill="#DE3232"/>
<path d="M16.5314 79.6394L16.5314 81.6216C16.5314 81.9201 16.7734 82.1621 17.0719 82.1621L19.0541 82.1621C19.3526 82.1621 19.5946 81.9201 19.5946 81.6216L19.5946 79.6394C19.5946 79.3409 19.3526 79.0989 19.0541 79.0989L17.0719 79.0989C16.7734 79.0989 16.5314 79.3409 16.5314 79.6394Z" fill="#DE3232"/>
<path d="M13.4686 76.5762L13.4686 78.5583C13.4686 78.8569 13.7106 79.0989 14.0092 79.0989L15.9913 79.0989C16.2899 79.0989 16.5319 78.8569 16.5319 78.5583L16.5319 76.5762C16.5319 76.2776 16.2899 76.0356 15.9913 76.0356L14.0092 76.0356C13.7106 76.0356 13.4686 76.2776 13.4686 76.5762Z" fill="#DE3232"/>
<path d="M10.4054 73.5134L10.4054 75.4956C10.4054 75.7941 10.6474 76.0361 10.9459 76.0361L12.9281 76.0361C13.2266 76.0361 13.4686 75.7941 13.4686 75.4956L13.4686 73.5134C13.4686 73.2149 13.2266 72.9729 12.9281 72.9729L10.9459 72.9729C10.6474 72.9729 10.4054 73.2149 10.4054 73.5134Z" fill="#DE3232"/>
<path d="M16.5314 73.5134L16.5314 75.4956C16.5314 75.7941 16.7734 76.0361 17.0719 76.0361L19.0541 76.0361C19.3526 76.0361 19.5946 75.7941 19.5946 75.4956L19.5946 73.5134C19.5946 73.2149 19.3526 72.9729 19.0541 72.9729L17.0719 72.9729C16.7734 72.9729 16.5314 73.2149 16.5314 73.5134Z" fill="#DE3232"/>
<defs>
<linearGradient id="paint0_linear_1_7238" x1="15" y1="17.6016" x2="15" y2="38.4924" gradientUnits="userSpaceOnUse">
<stop offset="0.214" stop-color="#FFD0D8" stop-opacity="0"/>
<stop offset="0.495" stop-color="#FFD0D8"/>
<stop offset="0.893" stop-color="#FFD0D8" stop-opacity="0"/>
</linearGradient>
<linearGradient id="paint1_linear_1_7238" x1="14.9999" y1="17.2287" x2="14.9999" y2="22.4514" gradientUnits="userSpaceOnUse">
<stop stop-color="white" stop-opacity="0"/>
<stop offset="0.094" stop-color="white"/>
<stop offset="0.88" stop-color="white"/>
<stop offset="1" stop-color="white" stop-opacity="0"/>
</linearGradient>
</defs>
</svg>
