<svg width="28" height="81" viewBox="0 0 28 81" fill="none" xmlns="http://www.w3.org/2000/svg">
<mask id="mask0_1_7198" style="mask-type:luminance" maskUnits="userSpaceOnUse" x="0" y="0" width="28" height="100">
<path d="M0.684814 100L0.68481 0L27.3152 -1.16405e-06L27.3152 100L0.684814 100Z" fill="white"/>
</mask>
<g mask="url(#mask0_1_7198)">
<path d="M19.7446 11.9783L19.7446 12.25L8.33154 12.25L8.33154 11.9783C8.33154 5.72826 10.8859 0.293478 14.0381 0.293478C17.1902 0.293478 19.7446 5.72826 19.7446 11.9783Z" fill="#E93035"/>
<path d="M19.5408 12.038L19.5408 12.0461L8.5354 12.0461L8.5354 11.9782C8.5354 8.87821 9.1691 5.98799 10.1865 3.88039C11.2109 1.75702 12.5865 0.49723 14.0381 0.49723C15.4897 0.497229 16.8653 1.75702 17.8897 3.88038C18.9071 5.98799 19.5408 8.87821 19.5408 11.9782L19.5408 12.038Z" stroke="#E8E6E3" stroke-opacity="0.1" stroke-width="0.407609"/>
<path d="M0.684812 51.6304L0.684814 100L27.3152 100L27.3152 51.6304L0.684812 51.6304Z" fill="#222426"/>
<path d="M0.684812 51.6304L0.684814 100L27.3152 100L27.3152 51.6304L0.684812 51.6304Z" fill="#292B2D"/>
<path d="M24.5979 51.6304L24.5979 100L26.2283 100L26.2283 51.6304L24.5979 51.6304Z" fill="#2D3133"/>
<path d="M0.684814 48.3695L0.684814 51.6304L27.3152 51.6304L27.3152 48.3695L0.684814 48.3695Z" fill="#E93035"/>
<path d="M27.1115 51.4265L0.888672 51.4265L0.888672 48.5733L27.1115 48.5733L27.1115 51.4265Z" stroke="#E8E6E3" stroke-opacity="0.1" stroke-width="0.407609"/>
<path d="M27.3152 32.6088L27.3152 48.3696L0.684814 48.3696L0.684814 32.6088C0.684814 32.3205 0.799332 32.044 1.00318 31.8402C1.20702 31.6363 1.48349 31.5218 1.77177 31.5218L26.2283 31.5218C26.5166 31.5218 26.793 31.6363 26.9969 31.8402C27.2007 32.044 27.3152 32.3205 27.3152 32.6088Z" fill="#DDDAD6"/>
<path d="M27.3152 32.6088L27.3152 48.3696L0.684814 48.3696L0.684814 32.6088C0.684814 32.3205 0.799332 32.044 1.00318 31.8402C1.20702 31.6363 1.48349 31.5218 1.77177 31.5218L26.2283 31.5218C26.5166 31.5218 26.793 31.6363 26.9969 31.8402C27.2007 32.044 27.3152 32.3205 27.3152 32.6088Z" fill="#313233"/>
<path d="M26.2283 31.5217C26.2283 31.3315 20.7935 17.3913 20.7935 17.3913L6.93477 17.3913L1.77173 31.5217L26.2283 31.5217Z" fill="#313334"/>
<path d="M7.96745 11.4131L19.7066 11.4131C20.3044 11.4131 20.7935 11.9022 20.7935 12.5001L20.7935 17.3914L6.88049 17.3914L6.88049 12.5001C6.88049 12.2118 6.99501 11.9353 7.19886 11.7315C7.4027 11.5276 7.67917 11.4131 7.96745 11.4131Z" fill="#2A2D2E"/>
<path d="M7.96745 11.413L19.7066 11.413C20.3044 11.413 20.7935 11.9022 20.7935 12.5L6.88049 12.5C6.88049 12.2117 6.99501 11.9352 7.19886 11.7314C7.4027 11.5276 7.67917 11.413 7.96745 11.413Z" fill="#DDDAD6"/>
<path d="M24.5979 31.5218L24.5979 48.3696L26.2283 48.3696L26.2283 31.5218L24.5979 31.5218Z" fill="#D0CCC6"/>
<path d="M25.6848 31.5217L20.25 17.3913L19.7065 17.3913L25.1413 31.5217L25.6848 31.5217ZM19.7065 12.5L19.7065 17.3913L20.25 17.3913L20.25 12.5L19.7065 12.5Z" fill="#C6C1B9" fill-opacity="0.5"/>
<path d="M13.1739 84.0327C13.4293 84.1414 12.9184 84.0327 13.1739 84.0327L11.3858 82.8099L13.1521 78.8751L11.3858 79.3697C11.0271 79.47 10.6475 79.4685 10.2895 79.3654C9.93155 79.2622 9.60934 79.0616 9.35892 78.7858C9.1085 78.51 8.93976 78.1699 8.87157 77.8037C8.80338 77.4375 8.83843 77.0595 8.9728 76.7121L11.2608 70.799C11.663 69.761 12.8261 69.2501 13.8587 69.6523C14.355 69.845 14.7546 70.2268 14.9696 70.7139C15.1846 71.201 15.1975 71.7535 15.0054 72.2501L14.163 74.424L16.0652 73.8914C16.8043 73.6849 17.6032 73.9186 18.1141 74.4947C18.3645 74.7768 18.53 75.124 18.5915 75.4961C18.6531 75.8683 18.6081 76.2502 18.4619 76.5979L14.8152 84.7827L13.1739 84.0327Z" fill="url(#paint0_linear_1_7198)"/>
<path d="M14.218 74.6202L16.1202 74.0876C16.4471 73.9968 16.793 73.9995 17.1185 74.0953C17.4439 74.1912 17.736 74.3764 17.9615 74.63C18.1862 74.8831 18.3348 75.1945 18.3903 75.5283C18.4458 75.8621 18.4058 76.2048 18.2751 76.517L14.7131 84.511L13.3023 83.8664C13.2926 83.8617 13.2828 83.8572 13.2729 83.8528L11.6419 82.7376L13.3381 78.9583L13.5164 78.561L13.0974 78.6784L11.3311 79.1729C11.0087 79.2633 10.6675 79.2622 10.3458 79.1697C10.024 79.0772 9.73439 78.8969 9.5093 78.6491C9.2842 78.4012 9.13255 78.0956 9.07131 77.7665C9.01008 77.4373 9.04168 77.0976 9.16259 76.7854L11.4506 70.8724C11.5358 70.6511 11.6638 70.4488 11.8273 70.2772C11.9909 70.1055 12.1867 69.9678 12.4036 69.872C12.6205 69.7762 12.8541 69.7242 13.0912 69.719C13.3282 69.7137 13.564 69.7553 13.7849 69.8414C14.231 70.0146 14.5901 70.3578 14.7833 70.7955C14.9765 71.2333 14.988 71.7299 14.8153 72.1762L13.9729 74.3501L13.8256 74.7306L14.218 74.6202ZM13.2338 83.892L13.174 84.0327L13.174 83.8882C13.187 83.8834 13.2005 83.8801 13.2142 83.8784L13.2175 83.8806C13.2231 83.8842 13.2286 83.8877 13.2338 83.892Z" stroke="url(#paint1_linear_1_7198)" stroke-opacity="0.07" stroke-width="0.407609"/>
</g>
<defs>
<linearGradient id="paint0_linear_1_7198" x1="12.9108" y1="78.0528" x2="10.1934" y2="83.7593" gradientUnits="userSpaceOnUse">
<stop offset="0.209"/>
<stop offset="0.632" stop-opacity="0"/>
</linearGradient>
<linearGradient id="paint1_linear_1_7198" x1="13.4566" y1="70.1088" x2="13.7284" y2="83.9675" gradientUnits="userSpaceOnUse">
<stop/>
<stop offset="1" stop-opacity="0"/>
</linearGradient>
</defs>
</svg>
