<svg width="28" height="81" viewBox="0 0 28 81" fill="none" xmlns="http://www.w3.org/2000/svg">
<mask id="mask0_1_7220" style="mask-type:luminance" maskUnits="userSpaceOnUse" x="0" y="0" width="28" height="100">
<path d="M0.338745 100L0.338741 -7.62939e-06L27.6611 -8.82369e-06L27.6611 100L0.338745 100Z" fill="white"/>
</mask>
<g mask="url(#mask0_1_7220)">
<path d="M0.885252 51.3661L0.885254 100L27.6612 100L27.6612 51.3661L0.885252 51.3661Z" fill="#1B1D1E"/>
<path d="M0.885252 51.3661L0.885254 100L27.6612 100L27.6612 51.3661L0.885252 51.3661Z" fill="#313233"/>
<path d="M27.6612 31.481L27.6612 51.3662L0.885254 51.3662L0.885253 31.481C0.885253 31.2624 0.950827 31.0547 1.07105 30.8744L4.51367 25.7214C6.31695 23.0274 7.2787 19.8525 7.2787 16.6121L7.27869 12.0219C7.27869 11.4209 7.7705 10.9291 8.37159 10.9291L20.1749 10.929C20.776 10.929 21.2678 11.4209 21.2678 12.0219L21.2678 16.6121C21.2668 19.8554 22.2292 23.0259 24.0328 25.7214L27.4754 30.8744C27.5956 31.0493 27.6612 31.2624 27.6612 31.481Z" fill="#1B1D1E"/>
<path d="M27.6612 31.481L27.6612 51.3662L0.885254 51.3662L0.885253 31.481C0.885253 31.2624 0.950827 31.0547 1.07105 30.8744L4.51367 25.7214C6.31695 23.0274 7.2787 19.8525 7.2787 16.6121L7.27869 12.0219C7.27869 11.4209 7.7705 10.9291 8.37159 10.9291L20.1749 10.929C20.776 10.929 21.2678 11.4209 21.2678 12.0219L21.2678 16.6121C21.2668 19.8554 22.2292 23.0259 24.0328 25.7214L27.4754 30.8744C27.5956 31.0493 27.6612 31.2624 27.6612 31.481Z" fill="#313334"/>
<path d="M8.53552 3.68852C8.53552 3.44262 8.69946 3.2295 8.93443 3.16392L19.3169 0.196714C19.6667 0.0983529 20.0109 0.360652 20.0109 0.721308L20.0109 10.929L8.53552 10.929L8.53552 3.68852Z" fill="#FFF345"/>
<path d="M8.98911 3.36128L8.99075 3.36128L19.3722 0.394062C19.4228 0.379703 19.4766 0.377281 19.5283 0.386974C19.58 0.396668 19.6288 0.418219 19.6708 0.449936C19.7128 0.481652 19.7469 0.522672 19.7703 0.569771C19.7938 0.616871 19.806 0.66877 19.8061 0.721392L19.8061 10.7241L8.74048 10.7241L8.74048 3.6886C8.74048 3.5356 8.84212 3.40226 8.98966 3.36128L8.98911 3.36128Z" stroke="#D8D4CF" stroke-opacity="0.1" stroke-width="0.409836"/>
<path d="M24.929 51.3661L24.929 100L26.5683 100L26.5683 51.3661L24.929 51.3661Z" fill="#242729"/>
<path d="M5.25684 37.1202C5.25684 34.7049 6.25684 32.3934 8.02186 30.7431C11.3825 27.5901 16.6175 27.5901 19.9836 30.7431C20.8565 31.5602 21.5523 32.5478 22.028 33.6447C22.5036 34.7416 22.7489 35.9246 22.7486 37.1202L22.7486 48.0874L14 48.0874C9.1694 48.0874 5.25684 44.1748 5.25684 39.3442L5.25684 37.1202Z" fill="url(#paint0_radial_1_7220)" fill-opacity="0.5"/>
<path fill-rule="evenodd" clip-rule="evenodd" d="M26.5683 51.3662L26.5683 32.011C26.5683 31.8034 26.5082 31.6012 26.3989 31.4263L22.7158 25.5957C21.0601 22.9728 20.1803 19.9345 20.1803 16.8362L20.1803 12.0219C20.1803 11.4209 19.6885 10.9291 19.0874 10.9291L19.6338 10.9291C20.2349 10.9291 20.7267 11.4209 20.7267 12.0219L20.7267 16.6121C20.7258 19.8554 21.6881 23.0259 23.4918 25.7214L26.9344 30.8744C27.0546 31.0547 27.1202 31.2678 27.1202 31.481L27.1202 51.3662L26.5683 51.3662Z" fill="#2B2F31" fill-opacity="0.5"/>
<path d="M0.885254 48.0875L0.885254 51.3662L27.6612 51.3662L27.6612 48.0875L0.885254 48.0875Z" fill="#FFF345"/>
<path d="M27.4563 51.1611L1.09021 51.1611L1.09021 48.2923L27.4563 48.2923L27.4563 51.1611Z" stroke="#D8D4CF" stroke-opacity="0.1" stroke-width="0.409836"/>
<path d="M15.8798 84.1531L12.1967 82.6121L13.7869 78.8088L12.0328 79.3006L9.62842 76.6613L12.4372 69.399L16.1585 70.8416L14.7869 74.3826L16.6776 73.8525L19.0546 76.5465L15.8798 84.1531Z" fill="url(#paint1_linear_1_7220)"/>
<path d="M13.7317 78.6115L12.0989 79.0689L9.86499 76.617L12.5541 69.664L15.8929 70.9591L14.5956 74.3088L14.448 74.6902L14.842 74.5798L16.6093 74.0848L18.8158 76.5859L15.7694 83.8848L12.465 82.5023L13.9759 78.888L14.1393 78.4973L13.7317 78.6115Z" stroke="url(#paint2_linear_1_7220)" stroke-opacity="0.07" stroke-width="0.409836"/>
</g>
<defs>
<radialGradient id="paint0_radial_1_7220" cx="0" cy="0" r="1" gradientUnits="userSpaceOnUse" gradientTransform="translate(22.7432 29.5076) rotate(90) scale(25.6831 17.4863)">
<stop stop-color="white"/>
<stop offset="1" stop-color="white" stop-opacity="0"/>
</radialGradient>
<linearGradient id="paint1_linear_1_7220" x1="13.8787" y1="77.5137" x2="11.9661" y2="82.1585" gradientUnits="userSpaceOnUse">
<stop offset="0.177"/>
<stop offset="1" stop-opacity="0"/>
</linearGradient>
<linearGradient id="paint2_linear_1_7220" x1="14.5464" y1="69.399" x2="14.5464" y2="84.1531" gradientUnits="userSpaceOnUse">
<stop/>
<stop offset="1" stop-opacity="0"/>
</linearGradient>
</defs>
</svg>
