<svg width="19" height="18" viewBox="0 0 19 18" fill="none" xmlns="http://www.w3.org/2000/svg">
<g id="iconoir:printing-page">
<g id="Group">
<path id="Vector" d="M13.6753 13.4963H15.7966C15.9159 13.4963 16.0303 13.4489 16.1147 13.3645C16.199 13.2801 16.2464 13.1657 16.2464 13.0464V8.24756C16.2464 7.45211 15.9304 6.68923 15.368 6.12676C14.8055 5.56429 14.0426 5.24829 13.2472 5.24829H5.749C4.95354 5.24829 4.19066 5.56429 3.62819 6.12676C3.06572 6.68923 2.74973 7.45211 2.74973 8.24756V13.0464C2.74973 13.1657 2.79712 13.2801 2.8815 13.3645C2.96587 13.4489 3.0803 13.4963 3.19962 13.4963H5.32085M6.49881 5.24829V2.69891C6.49881 2.5796 6.54621 2.46516 6.63058 2.38079C6.71495 2.29642 6.82939 2.24902 6.9487 2.24902H12.0475C12.1668 2.24902 12.2812 2.29642 12.3656 2.38079C12.45 2.46516 12.4974 2.5796 12.4974 2.69891V5.24829" stroke="white" stroke-width="0.629847"/>
<path id="Vector_2" d="M5.07226 15.2322L5.3197 13.4963L5.69311 10.8832C5.70845 10.776 5.76193 10.678 5.84375 10.607C5.92556 10.5361 6.03021 10.4971 6.1385 10.4971H12.8569C12.9651 10.4971 13.0698 10.5361 13.1516 10.607C13.2334 10.678 13.2869 10.776 13.3023 10.8832L13.6742 13.4963L13.9224 15.2322C13.9315 15.296 13.9268 15.361 13.9086 15.4229C13.8904 15.4847 13.8591 15.5419 13.8169 15.5906C13.7747 15.6394 13.7224 15.6784 13.6638 15.7052C13.6051 15.7319 13.5414 15.7458 13.477 15.7458H5.51765C5.45318 15.7458 5.38946 15.7319 5.33081 15.7052C5.27216 15.6784 5.21995 15.6394 5.17771 15.5906C5.13548 15.5419 5.1042 15.4847 5.08601 15.4229C5.06781 15.361 5.06312 15.296 5.07226 15.2322Z" stroke="white" stroke-width="0.629847"/>
<path id="Vector_3" d="M13.2475 7.50707L13.2564 7.49707" stroke="white" stroke-width="0.629847" stroke-linecap="round" stroke-linejoin="round"/>
</g>
</g>
</svg>
