<svg width="29" height="29" viewBox="0 0 29 29" fill="none" xmlns="http://www.w3.org/2000/svg">
<g clip-path="url(#clip0_164_4949)">
<path d="M6.21869 8.37574L12.1379 6.22133C12.9832 5.91397 13.8967 5.84517 14.7785 6.02246C15.6603 6.19975 16.4763 6.6163 17.1371 7.22647C17.7979 7.83665 18.2781 8.61692 18.525 9.48181C18.7719 10.3467 18.776 11.2629 18.5368 12.1299C19.5788 12.3492 20.521 12.9022 21.2206 13.705C21.9201 14.5077 22.339 15.5166 22.4138 16.5789C22.4886 17.6411 22.2151 18.6987 21.6349 19.5916C21.0547 20.4844 20.1993 21.1639 19.1983 21.527L11.9638 24.1602C11.6149 24.2872 11.2299 24.2704 10.8934 24.1135C10.557 23.9566 10.2966 23.6724 10.1696 23.3236L5.38208 10.1699C5.2551 9.82101 5.27191 9.436 5.42881 9.09953C5.5857 8.76307 5.86983 8.50271 6.21869 8.37574ZM10.8854 17.1046L12.3216 21.0507L18.2408 18.8963C18.7641 18.7058 19.1903 18.3153 19.4256 17.8106C19.661 17.3059 19.6862 16.7284 19.4957 16.2051C19.3053 15.6818 18.9147 15.2556 18.41 15.0203C17.9053 14.7849 17.3278 14.7597 16.8045 14.9502L10.8854 17.1046ZM14.5316 12.7982C15.0549 12.6077 15.4811 12.2172 15.7165 11.7125C15.9518 11.2078 15.977 10.6303 15.7866 10.107C15.5961 9.58371 15.2056 9.15752 14.7009 8.92217C14.1962 8.68683 13.6187 8.66162 13.0954 8.85208L8.49158 10.5277L9.92784 14.4738L14.5316 12.7982Z" fill="#FFF0F0"/>
</g>
<defs>
<clipPath id="clip0_164_4949">
<rect width="22.3966" height="22.3966" fill="white" transform="translate(0 7.66016) rotate(-20)"/>
</clipPath>
</defs>
</svg>
