<svg width="30" height="27" viewBox="0 0 30 27" fill="none" xmlns="http://www.w3.org/2000/svg">
<g clip-path="url(#clip0_436_1182)">
<path d="M20.3311 7.21458C20.0478 7.26816 19.7662 7.34515 19.4938 7.41951C19.3932 7.44708 19.2925 7.47445 19.1918 7.50084C19.1781 7.47431 19.1665 7.45168 19.1571 7.42815C18.374 5.48057 16.9617 4.36909 14.9581 4.12474C12.361 3.80776 10.1685 4.635 8.44256 6.58352C7.22206 7.96119 6.77512 9.62991 7.11401 11.5432C7.17022 11.8295 7.24245 12.1126 7.33034 12.3909C7.36319 12.5022 7.39595 12.6128 7.42612 12.7229C7.3917 12.7456 7.35672 12.7676 7.32165 12.7893L7.28366 12.8133C5.41366 13.9882 4.56853 15.7201 4.77166 17.9607C4.92 19.5983 5.89151 20.7669 7.50708 21.2512C8.62561 21.5863 9.79077 21.5547 10.9698 21.1568C12.2116 20.7378 13.4667 20.2907 14.6804 19.858C15.192 19.6757 15.7038 19.4939 16.2158 19.3126C16.3162 19.2772 16.4161 19.2404 16.5239 19.201L16.5889 19.1773C16.6285 19.2882 16.6658 19.3964 16.7022 19.5022C16.8035 19.7971 16.8993 20.0757 17.0215 20.3432C17.2211 20.7754 17.4477 21.1945 17.7001 21.5981C17.7853 21.7144 17.8932 21.8121 18.017 21.8853C18.0849 21.933 18.1617 21.9871 18.2441 22.053C18.2572 22.0635 18.2728 22.0704 18.2892 22.0732C18.3058 22.0759 18.3227 22.0744 18.3385 22.0687L18.344 22.0666C18.3602 22.0595 18.3742 22.0481 18.3845 22.0336C18.3947 22.0192 18.4008 22.0021 18.4023 21.9844C18.4093 21.8948 18.4194 21.8199 18.4285 21.7537C18.4512 21.6494 18.4527 21.5414 18.4331 21.4363C18.2844 20.8889 18.1144 20.3085 17.8832 19.5539C17.8282 19.375 17.7633 19.2026 17.688 19.0031C17.6618 18.9338 17.6346 18.8615 17.6062 18.785L17.7578 18.7291C17.8983 18.6773 18.0157 18.6339 18.1343 18.5934C19.9725 17.9644 21.91 17.1806 24.0577 16.1975C24.3513 16.0631 24.6101 15.9343 24.8489 15.8037C26.1708 15.081 27.1225 13.4199 27.1633 11.7644C27.202 10.1924 26.436 8.8382 25.0065 7.95156C23.66 7.11532 22.1306 6.8745 20.3311 7.21458ZM15.6815 12.8047L17.6141 13.0302C17.6736 13.0371 17.7333 13.0432 17.793 13.0492C17.94 13.0613 18.0865 13.0813 18.2316 13.109C18.4971 13.1649 18.6511 13.0666 18.7301 12.7912C18.7357 12.7718 18.7352 12.7512 18.7287 12.7321C18.7222 12.7131 18.7101 12.6964 18.6939 12.6845C18.6456 12.6489 18.5982 12.6096 18.5504 12.5699C18.4397 12.4691 18.3155 12.3844 18.1814 12.3185C17.6595 12.0828 17.1263 11.8735 16.5837 11.6916C16.2607 11.588 15.9246 11.5155 15.5996 11.4452C15.4349 11.4096 15.2697 11.374 15.106 11.3344C14.5975 11.2114 14.2184 11.3562 13.9131 11.7905C13.2949 12.6696 12.6855 13.6393 12.4143 14.7734C12.3981 14.8495 12.3891 14.9271 12.3874 15.0051C12.3857 15.0373 12.3841 15.0696 12.3813 15.1017C12.3795 15.1219 12.384 15.1421 12.3941 15.1597C12.4042 15.1772 12.4195 15.1913 12.4379 15.1998L12.577 15.2645C12.5967 15.2736 12.6187 15.2759 12.6398 15.271C12.6609 15.2662 12.6797 15.2545 12.6934 15.2378C13.041 14.7967 13.3648 14.3373 13.6632 13.8612C13.8802 13.5289 14.1034 13.1869 14.3469 12.8522L16.1439 17.7894C16.1223 17.8002 16.1011 17.811 16.0814 17.8211C16.0099 17.8608 15.9353 17.8947 15.8584 17.9226L14.7826 18.2789C13.2991 18.7703 11.7651 19.2784 10.2524 19.7651C9.57395 19.9983 8.842 20.0285 8.14539 19.8521C7.02332 19.5631 6.39899 18.8847 6.23699 17.7781C5.9712 15.9643 6.61323 14.5054 8.14346 13.4422C8.50669 13.1899 8.62045 12.9273 8.53629 12.5355C8.50928 12.4096 8.48815 12.2785 8.46763 12.1524C8.45474 12.072 8.44175 11.9915 8.42722 11.9113C7.95442 9.29761 9.3021 7.04969 11.8164 6.13456C12.0239 6.05903 12.2399 5.99241 12.4627 5.93572C13.1448 5.75988 13.8535 5.71064 14.5542 5.79041C15.3009 5.87664 15.9298 6.13206 16.4236 6.54953L16.4675 6.58674C17.1663 7.17758 17.889 7.78856 18.2764 8.66427C18.4264 9.00335 18.7922 9.13036 19.1852 8.9792C20.2698 8.57295 21.4427 8.46026 22.5865 8.65242C23.3454 8.77257 24.0531 9.11469 24.6209 9.636C25.3748 10.3123 25.64 11.1775 25.4093 12.2078C25.3134 12.685 25.1109 13.1338 24.8167 13.5203C24.5227 13.9068 24.1448 14.2208 23.7116 14.4388C23.3559 14.6251 22.9854 14.8005 22.6271 14.9701C22.1462 15.1978 21.6489 15.4332 21.1773 15.6995C20.3195 16.1838 19.3871 16.5334 18.4853 16.8715C18.1042 17.0144 17.7101 17.1621 17.326 17.3183C17.2943 17.3285 17.2615 17.3354 17.2284 17.3388L15.4787 12.7816C15.5465 12.7891 15.6141 12.7968 15.6815 12.8047Z" fill="white"/>
</g>
<defs>
<clipPath id="clip0_436_1182">
<rect width="23.7562" height="18.9169" fill="white" transform="matrix(0.939693 -0.34202 0.342021 0.939692 0.990967 8.2666)"/>
</clipPath>
</defs>
</svg>
