<svg width="28" height="28" viewBox="0 0 28 28" fill="none" xmlns="http://www.w3.org/2000/svg">
<g clip-path="url(#clip0_164_4959)">
<path d="M14.4515 15.5997C14.8355 16.2225 15.1135 16.9351 15.2489 17.7032C15.5563 19.4463 15.0758 21.1557 14.0538 22.4428C13.1483 23.6118 11.8388 24.4005 10.3819 24.654C7.12223 25.2287 4.00598 23.0467 3.4312 19.787C2.95194 17.0689 4.39704 14.438 6.77863 13.3174" stroke="#FFF0F0" stroke-linecap="round" stroke-linejoin="round"/>
<path d="M17.7687 11.3797C20.3899 11.6181 22.6477 13.5961 23.1269 16.3142C23.7017 19.5739 21.5197 22.6901 18.26 23.2649C16.8043 23.525 15.304 23.2318 14.0533 22.4429" stroke="#FFF0F0" stroke-linecap="round" stroke-linejoin="round"/>
<path d="M5.98134 11.2145C6.25767 12.7816 7.14521 14.1748 8.44873 15.0875C9.75225 16.0003 11.365 16.3578 12.9321 16.0815C14.4992 15.8051 15.8924 14.9176 16.8051 13.6141C17.7178 12.3106 18.0754 10.6979 17.799 9.13073C17.5227 7.56361 16.6352 6.17044 15.3316 5.25771C14.0281 4.34498 12.4154 3.98745 10.8483 4.26377C9.28118 4.5401 7.88801 5.42765 6.97528 6.73116C6.06255 8.03468 5.70502 9.64739 5.98134 11.2145Z" fill="#D35A65" fill-opacity="0.5" stroke="#FFF0F0" stroke-linecap="round" stroke-linejoin="round"/>
</g>
<defs>
<clipPath id="clip0_164_4959">
<rect width="24" height="24" fill="white" transform="translate(0 4.16797) rotate(-10)"/>
</clipPath>
</defs>
</svg>
