<svg width="24" height="24" viewBox="0 0 24 24" fill="none" xmlns="http://www.w3.org/2000/svg">
<g clip-path="url(#clip0_436_1192)">
<path d="M20.5358 9.01547L17.6587 4.90547C17.563 4.7688 17.4413 4.65231 17.3006 4.56266C17.1599 4.47301 17.0029 4.41196 16.8386 4.38299C16.6743 4.35402 16.5059 4.3577 16.343 4.39382C16.1802 4.42994 16.026 4.49779 15.8893 4.5935L4.54839 12.5352C4.41132 12.6304 4.29453 12.7518 4.20481 12.8925C4.1151 13.0332 4.05424 13.1904 4.02579 13.3548L3.4097 16.8488C3.3512 17.1806 3.42689 17.522 3.62012 17.798C3.81335 18.074 4.1083 18.2619 4.44007 18.3204L7.93411 18.9364C8.09836 18.9659 8.26683 18.9625 8.42973 18.9263C8.59263 18.8901 8.74672 18.8219 8.88303 18.7257L20.2238 10.7848C20.3605 10.6891 20.477 10.5674 20.5667 10.4267C20.6563 10.286 20.7174 10.129 20.7463 9.96474C20.7753 9.80044 20.7716 9.63204 20.7355 9.46916C20.6994 9.30629 20.6315 9.15212 20.5358 9.01547ZM5.58116 13.3622L13.8906 7.54386L14.9647 9.0787L6.6561 14.8964L5.58116 13.3622ZM5.05616 14.8263L6.90374 17.4649L4.66064 17.0694L5.05616 14.8263ZM8.45911 17.4723L7.3843 15.9374L15.6938 10.119L16.7678 11.6539L8.45911 17.4723Z" fill="white"/>
</g>
<defs>
<clipPath id="clip0_436_1192">
<rect width="20.3239" height="20.3238" fill="white" transform="translate(3.77515 0.145508) rotate(9.99998)"/>
</clipPath>
</defs>
</svg>
