<svg width="25" height="25" viewBox="0 0 25 25" fill="none" xmlns="http://www.w3.org/2000/svg">
<path d="M4.10156 3.125C3.60018 3.12495 3.11 3.2733 2.69278 3.55135C2.27556 3.8294 1.94997 4.22472 1.75703 4.6875H23.243C23.05 4.22472 22.7244 3.8294 22.3072 3.55135C21.89 3.2733 21.3998 3.12495 20.8984 3.125H4.10156ZM16.7797 7.42188H23.4375V8.98438H17.4422C17.3111 8.42989 17.0871 7.9016 16.7797 7.42188ZM8.22031 7.42188H1.5625V8.98438H7.55781C7.69062 8.42188 7.91719 7.89453 8.22031 7.42188ZM7.66641 11.7188H1.5625V13.2812H8.49688C8.13054 12.8132 7.84943 12.2843 7.66641 11.7188ZM5.49609 16.0156H1.5625V17.5781H5.07812C5.07812 17.0086 5.23047 16.475 5.49609 16.0156ZM19.9219 17.5781C19.9219 17.0086 19.7695 16.475 19.5039 16.0156H23.4375V17.5781H19.9219ZM5.07812 20.3125H1.75703C1.94983 20.7752 2.27528 21.1705 2.69236 21.4486C3.10945 21.7266 3.59951 21.875 4.10078 21.875H5.07812V20.3125ZM19.9219 21.875V20.3125H23.2422C23.0493 20.7752 22.7238 21.1704 22.3068 21.4484C21.8897 21.7265 21.3997 21.8749 20.8984 21.875H19.9219ZM16.5031 13.2812C16.8695 12.8132 17.1506 12.2843 17.3336 11.7188H23.4375V13.2812H16.5031ZM7.8125 17.5781C7.8125 17.4745 7.85365 17.3752 7.92691 17.3019C8.00017 17.2287 8.09952 17.1875 8.20312 17.1875H16.7969C16.9005 17.1875 16.9998 17.2287 17.0731 17.3019C17.1463 17.3752 17.1875 17.4745 17.1875 17.5781V21.875H18.75V17.5781C18.75 17.3216 18.6995 17.0677 18.6013 16.8307C18.5032 16.5937 18.3593 16.3784 18.1779 16.1971C17.9966 16.0157 17.7813 15.8718 17.5443 15.7737C17.3073 15.6755 17.0534 15.625 16.7969 15.625H8.20312C7.68512 15.625 7.18834 15.8308 6.82206 16.1971C6.45578 16.5633 6.25 17.0601 6.25 17.5781V21.875H7.8125V17.5781ZM8.59375 10.1562C8.59375 9.12025 9.0053 8.12668 9.73786 7.39411C10.4704 6.66155 11.464 6.25 12.5 6.25C13.536 6.25 14.5296 6.66155 15.2621 7.39411C15.9947 8.12668 16.4062 9.12025 16.4062 10.1562C16.4062 11.1923 15.9947 12.1858 15.2621 12.9184C14.5296 13.6509 13.536 14.0625 12.5 14.0625C11.464 14.0625 10.4704 13.6509 9.73786 12.9184C9.0053 12.1858 8.59375 11.1923 8.59375 10.1562ZM12.5 7.8125C11.8784 7.8125 11.2823 8.05943 10.8427 8.49897C10.4032 8.93851 10.1562 9.53465 10.1562 10.1562C10.1562 10.7779 10.4032 11.374 10.8427 11.8135C11.2823 12.2531 11.8784 12.5 12.5 12.5C13.1216 12.5 13.7177 12.2531 14.1573 11.8135C14.5968 11.374 14.8438 10.7779 14.8438 10.1562C14.8438 9.53465 14.5968 8.93851 14.1573 8.49897C13.7177 8.05943 13.1216 7.8125 12.5 7.8125Z" fill="#FFF0F0"/>
</svg>
