<svg width="20" height="21" viewBox="0 0 20 21" fill="none" xmlns="http://www.w3.org/2000/svg">
<path d="M9.36211 1.56995L9.36365 1.57172L13.8297 6.71588C13.8298 6.71602 13.8299 6.71616 13.8301 6.7163C13.9849 6.89601 14.0318 7.1467 13.9532 7.37179C13.8767 7.59089 13.6826 7.75631 13.4477 7.79773L6.54284 9.01525C6.31038 9.05624 6.07237 8.96892 5.91969 8.78491C5.77022 8.60476 5.72849 8.35483 5.81365 8.1299C5.81373 8.1297 5.81381 8.12949 5.81389 8.12928L8.2512 1.76788L8.25203 1.76569C8.33179 1.55459 8.52314 1.39571 8.75198 1.35536C8.98082 1.31501 9.21497 1.39887 9.36211 1.56995ZM13.1593 17.9383C12.6409 18.0297 12.1472 17.6841 12.0558 17.1657L11.1427 11.9871C11.0513 11.4687 11.3969 10.975 11.9153 10.8836L17.094 9.97048C17.6124 9.87908 18.106 10.2247 18.1974 10.7431L19.1106 15.9218C19.202 16.4401 18.8563 16.9338 18.3379 17.0252L13.1593 17.9383ZM8.75734 18.0688C8.12359 18.9739 7.15625 19.5901 6.06812 19.782C4.98 19.9739 3.86022 19.7256 2.95513 19.0919C2.05004 18.4581 1.43378 17.4908 1.24191 16.4027C1.05005 15.3145 1.29829 14.1948 1.93205 13.2897C2.5658 12.3846 3.53314 11.7683 4.62126 11.5765C5.70939 11.3846 6.82916 11.6328 7.73425 12.2666C8.63934 12.9003 9.2556 13.8677 9.44747 14.9558C9.63934 16.0439 9.39109 17.1637 8.75734 18.0688Z" stroke="white" stroke-width="1.0164"/>
</svg>
