<svg width="21" height="21" viewBox="0 0 21 21" fill="none" xmlns="http://www.w3.org/2000/svg">
<path d="M7.8146 17.3496C7.46257 17.3496 7.1632 17.2263 6.9165 16.9796C6.66979 16.7329 6.54672 16.4338 6.54728 16.0823V6.36618H3.5902C3.23817 6.36618 2.9388 6.24283 2.69209 5.99613C2.44539 5.74942 2.32231 5.45033 2.32288 5.09886C2.32288 4.74683 2.44623 4.44746 2.69294 4.20076C2.93964 3.95405 3.23873 3.83098 3.5902 3.83154H12.039C12.391 3.83154 12.6904 3.9549 12.9371 4.2016C13.1838 4.44831 13.3069 4.74739 13.3063 5.09886C13.3063 5.4509 13.183 5.75027 12.9363 5.99697C12.6896 6.24368 12.3905 6.36675 12.039 6.36618H9.08193V16.0823C9.08193 16.4343 8.95857 16.7337 8.71187 16.9804C8.46516 17.2271 8.16608 17.3502 7.8146 17.3496ZM15.4185 17.3496C15.0665 17.3496 14.7671 17.2263 14.5204 16.9796C14.2737 16.7329 14.1506 16.4338 14.1512 16.0823V10.5906H12.8839C12.5319 10.5906 12.2325 10.4672 11.9858 10.2205C11.7391 9.97382 11.616 9.67473 11.6166 9.32326C11.6166 8.97123 11.7399 8.67186 11.9866 8.42516C12.2333 8.17845 12.5324 8.05538 12.8839 8.05594H17.9532C18.3052 8.05594 18.6046 8.1793 18.8513 8.426C19.098 8.67271 19.2211 8.97179 19.2205 9.32326C19.2205 9.6753 19.0971 9.97466 18.8504 10.2214C18.6037 10.4681 18.3046 10.5911 17.9532 10.5906H16.6859V16.0823C16.6859 16.4343 16.5625 16.7337 16.3158 16.9804C16.0691 17.2271 15.77 17.3502 15.4185 17.3496Z" fill="white"/>
</svg>
